<svg width="183" height="183" viewBox="0 0 183 183" fill="none" xmlns="http://www.w3.org/2000/svg">
<g id="Illustration">
<path id="Vector" d="M173.918 122.881C155.528 165.658 106.985 184.028 68.952 180.895C58.5667 180.04 37.6726 178.319 21.3584 162.966C-9.97311 133.481 -5.14743 71.8499 24.8448 35.5649C28.7077 30.8926 55.443 -0.414507 97.1045 0.00416062C127.607 0.31101 149.016 17.4582 151.62 19.5944C154.909 22.2924 162.161 28.705 168.699 38.8766C184.059 62.7816 185.409 96.1509 173.918 122.881Z" fill="url(#paint0_linear_298_444)"/>
<path id="Vector_2" d="M0.631458 136.009C18.2212 193.667 157.061 198.323 182.113 143.311C183.83 139.541 180.797 135.398 176.262 135.315L4.01067 132.134C1.72687 132.092 0.0268671 134.032 0.631458 136.009Z" fill="#BDD0FB"/>
<path id="Vector_3" d="M120.555 135.273C120.555 135.273 126.735 52.7667 160.087 3.22151C162.329 -0.108978 167.531 0.257034 169.253 3.87812C180.757 28.0919 207.603 102.757 120.555 135.273Z" fill="#BDD0FB"/>
<path id="Vector_4" opacity="0.5" d="M127.948 128.895C127.777 129.116 128.097 129.376 128.296 129.179C135.658 121.939 163.061 87.6904 165.114 27.3853C165.12 27.1903 164.821 27.1636 164.797 27.356C163.026 41.5303 154.872 94.0432 127.948 128.895Z" fill="white"/>
<path id="Vector_5" d="M27.0707 51.7961C28.5704 48.6756 29.6431 45.4023 29.8934 41.8417C30.5233 32.8702 25.3083 24.6087 21.4772 16.8841C17.9556 9.78497 15.3383 -0.793544 27.2202 0.147809C36.6863 0.89803 47.8146 10.3317 49.0843 20.1711C50.5867 31.8131 44.9191 46.4951 51.6392 57.0704C61.0396 71.8655 67.8201 68.4745 67.8201 93.4412C67.8201 104.109 61.9114 109.994 55.1432 113.234C49.9276 115.733 44.0721 116.575 38.3638 115.648C32.6555 114.72 27.3678 112.067 23.2117 108.046C15.6901 100.767 11.2187 90.3057 12.7308 79.8026C14.2585 69.1955 22.5778 61.1517 27.0707 51.7961Z" fill="#BDD0FB"/>
<path id="Vector_6" d="M35.0104 132.066C35.0843 132.066 35.156 132.041 35.2141 131.996C35.2723 131.95 35.3136 131.887 35.3316 131.815C41.2208 108.309 44.4258 87.0013 44.8594 68.4836C45.2059 53.6554 43.7861 40.5694 40.639 29.5891C35.262 10.8355 26.8322 4.81101 26.476 4.56527C26.4037 4.51847 26.3161 4.50159 26.2317 4.51819C26.1473 4.53479 26.0726 4.58358 26.0234 4.65424C25.9743 4.72489 25.9546 4.81189 25.9684 4.89683C25.9823 4.98177 26.0286 5.058 26.0976 5.10941C26.1834 5.16922 34.7264 11.2919 40.0273 29.8596C44.9264 47.0224 47.9773 78.6116 34.6893 131.654C34.6786 131.696 34.6763 131.74 34.6826 131.783C34.6889 131.826 34.7037 131.867 34.7261 131.905C34.7484 131.942 34.7779 131.975 34.8129 132C34.8479 132.026 34.8876 132.045 34.9298 132.056C34.9561 132.062 34.9832 132.066 35.0104 132.066Z" fill="#7D97F4"/>
<path id="Vector_7" d="M17.6366 25.4766C18.124 25.3479 18.6315 25.3135 19.1318 25.3752C22.093 25.7158 23.3087 28.8383 24.1791 31.2801C24.9242 33.3708 25.8044 35.9088 25.3617 38.1745C24.8864 40.6234 22.2854 42.6212 20.3982 40.1345C18.2528 37.3079 15.0342 32.9684 15.0147 29.2232C15.0056 27.3613 16.051 25.9063 17.6366 25.4766Z" fill="#BDD0FB"/>
<path id="Vector_8" d="M1.06689 108.633C-0.233304 100.057 2.88196 90.2102 4.43765 81.1406C5.26067 76.3454 5.64098 71.584 4.87062 66.7557C4.10545 61.9553 1.84701 56.7603 3.92732 51.9749C8.12046 42.3338 18.0878 46.7214 23.7976 53.9792C30.4234 62.4013 32.2352 76.164 34.7517 86.762C36.2684 93.1513 38.5541 99.7043 39.3544 106.214C40.68 117 38.2414 124.488 33.0823 129.544C30.6747 131.904 27.5679 133.422 24.2264 133.869C20.8849 134.317 17.4882 133.672 14.5441 132.029C9.07805 128.981 3.16801 122.471 1.06689 108.633Z" fill="#91B3FA"/>
<path id="Vector_9" d="M23.8708 148.427C23.8525 148.427 23.8343 148.426 23.8162 148.423C23.7736 148.415 23.7329 148.4 23.6962 148.377C23.6596 148.354 23.6279 148.324 23.6028 148.289C23.5778 148.254 23.5599 148.214 23.5502 148.172C23.5406 148.13 23.5393 148.086 23.5464 148.044C23.5679 147.914 25.7275 134.88 25.7828 116.882C25.8341 100.282 24.0555 75.9436 15.2889 54.2678C15.2714 54.2275 15.2622 54.1842 15.2617 54.1403C15.2613 54.0964 15.2696 54.0528 15.2863 54.0122C15.3029 53.9716 15.3275 53.9347 15.3586 53.9037C15.3897 53.8728 15.4267 53.8483 15.4674 53.8319C15.5081 53.8154 15.5517 53.8073 15.5956 53.808C15.6395 53.8086 15.6828 53.8181 15.723 53.8357C15.7632 53.8534 15.7995 53.8789 15.8296 53.9108C15.8598 53.9427 15.8833 53.9803 15.8987 54.0214C24.7069 75.8 26.4953 100.234 26.4407 116.897C26.3841 134.945 24.2167 148.023 24.1952 148.153C24.1823 148.229 24.1427 148.299 24.0833 148.349C24.0239 148.4 23.9486 148.427 23.8708 148.427Z" fill="#7D97F4"/>
<path id="Vector_10" d="M136.163 89.3384H171.111V155.409C171.111 155.583 171.077 155.757 171.01 155.918C170.944 156.08 170.846 156.227 170.722 156.351C170.598 156.474 170.452 156.572 170.29 156.639C170.128 156.706 169.955 156.741 169.78 156.741H136.163V89.3384Z" fill="#7D97F4"/>
<g id="Group" opacity="0.89">
<path id="Vector_11" opacity="0.67" d="M163.653 107.645H143.828C143.788 107.645 143.756 107.678 143.756 107.718V138.36C143.756 138.4 143.788 138.433 143.828 138.433H163.653C163.693 138.433 163.726 138.4 163.726 138.36V107.718C163.726 107.678 163.693 107.645 163.653 107.645Z" fill="white"/>
<path id="Vector_12" d="M162.23 109.309H154.557C154.535 109.309 154.517 109.327 154.517 109.349V136.728C154.517 136.751 154.535 136.769 154.557 136.769H162.23C162.252 136.769 162.27 136.751 162.27 136.728V109.349C162.27 109.327 162.252 109.309 162.23 109.309Z" fill="#7D97F4"/>
<path id="Vector_13" d="M152.925 109.309H145.252C145.23 109.309 145.212 109.327 145.212 109.349V136.728C145.212 136.751 145.23 136.769 145.252 136.769H152.925C152.948 136.769 152.966 136.751 152.966 136.728V109.349C152.966 109.327 152.948 109.309 152.925 109.309Z" fill="#7D97F4"/>
</g>
<path id="Vector_14" d="M177.691 94.6608H134.503L132.742 63.5728L168.444 62.8954L179.392 91.996C179.525 92.2818 179.583 92.5964 179.562 92.9107C179.541 93.225 179.441 93.529 179.272 93.7945C179.102 94.0601 178.868 94.2786 178.592 94.43C178.316 94.5814 178.006 94.6608 177.691 94.6608Z" fill="url(#paint1_linear_298_444)"/>
<path id="Vector_15" d="M168.59 64.3249L134.272 63.9414L134.488 60.4672L166.563 60.7117C167.802 60.7884 168.747 61.7941 168.675 62.9571L168.59 64.3249Z" fill="url(#paint2_linear_298_444)"/>
<path id="Vector_16" d="M48.4136 156.505H14.9147C14.53 156.505 14.1611 156.353 13.8891 156.081C13.6171 155.809 13.4643 155.44 13.4643 155.055L13.4643 89.105H48.4136L48.4136 156.505Z" fill="#7D97F4"/>
<g id="Group_2" opacity="0.89">
<path id="Vector_17" opacity="0.67" d="M20.9228 138.199H40.7475C40.7877 138.199 40.8203 138.166 40.8203 138.126L40.8203 107.484C40.8203 107.444 40.7877 107.411 40.7475 107.411H20.9228C20.8826 107.411 20.85 107.444 20.85 107.484L20.85 138.126C20.85 138.166 20.8826 138.199 20.9228 138.199Z" fill="white"/>
<path id="Vector_18" d="M22.3466 136.535H30.0198C30.042 136.535 30.0601 136.517 30.0601 136.494L30.0601 109.115C30.0601 109.093 30.042 109.075 30.0198 109.075H22.3466C22.3244 109.075 22.3063 109.093 22.3063 109.115L22.3063 136.494C22.3063 136.517 22.3244 136.535 22.3466 136.535Z" fill="#7D97F4"/>
<path id="Vector_19" d="M31.6508 136.535H39.324C39.3462 136.535 39.3643 136.517 39.3643 136.494V109.115C39.3643 109.093 39.3462 109.075 39.324 109.075H31.6508C31.6286 109.075 31.6105 109.093 31.6105 109.115L31.6105 136.494C31.6105 136.517 31.6286 136.535 31.6508 136.535Z" fill="#7D97F4"/>
</g>
<path id="Vector_20" d="M6.88521 94.4268H50.0725L51.8343 63.3387L16.1322 62.6613L5.1839 91.762C5.05133 92.0478 4.99289 92.3623 5.01397 92.6767C5.03504 92.991 5.13495 93.295 5.30448 93.5605C5.474 93.826 5.70768 94.0446 5.98395 94.196C6.26022 94.3474 6.57017 94.4268 6.88521 94.4268Z" fill="url(#paint3_linear_298_444)"/>
<path id="Vector_21" d="M15.9853 64.0909L50.304 63.7073L50.0882 60.2332L18.0123 60.4776C16.7772 60.5543 15.8287 61.5601 15.9008 62.7231L15.9853 64.0909Z" fill="url(#paint4_linear_298_444)"/>
<path id="Vector_22" d="M43.5833 85.025V154.001C43.5833 155.455 44.1608 156.849 45.1888 157.877C46.2168 158.905 47.6111 159.483 49.0649 159.483H138.937C139.403 159.483 139.849 159.298 140.178 158.969C140.507 158.64 140.692 158.193 140.692 157.728V85.025H43.5833Z" fill="#91B3FA"/>
<path id="Vector_23" d="M81.7571 115.975H101.112C101.173 115.975 101.232 116 101.275 116.043C101.319 116.086 101.343 116.145 101.343 116.207V154.636H81.5256V116.207C81.5256 116.145 81.55 116.086 81.5934 116.043C81.6368 116 81.6957 115.975 81.7571 115.975Z" fill="#7D97F4"/>
<path id="Vector_24" d="M82.5046 117.433H100.365C100.426 117.433 100.485 117.458 100.528 117.501C100.572 117.545 100.596 117.603 100.596 117.665V153.179H82.2732V117.665C82.2732 117.603 82.2976 117.545 82.341 117.501C82.3844 117.458 82.4432 117.433 82.5046 117.433Z" fill="url(#paint5_linear_298_444)"/>
<path id="Vector_25" d="M99.9468 113.373H82.9253C82.7415 113.373 82.5595 113.337 82.3897 113.267C82.2199 113.197 82.0656 113.093 81.9356 112.963C81.8056 112.834 81.7025 112.679 81.6322 112.509C81.5618 112.34 81.5256 112.158 81.5256 111.974V110.752C81.5257 110.398 81.6599 110.057 81.9011 109.798C82.1424 109.539 82.4728 109.381 82.8258 109.356L99.8447 108.173C100.036 108.16 100.228 108.187 100.409 108.251C100.59 108.315 100.755 108.416 100.896 108.547C101.036 108.678 101.148 108.836 101.224 109.012C101.301 109.188 101.34 109.378 101.34 109.57V111.975C101.34 112.345 101.193 112.7 100.932 112.962C100.671 113.224 100.317 113.372 99.9468 113.373Z" fill="#BDD0FB"/>
<path id="Vector_26" d="M101.21 157.031H81.8929C81.4717 157.031 81.0677 156.864 80.7699 156.566C80.472 156.268 80.3047 155.864 80.3047 155.443V154.056C80.3047 153.221 80.9398 150.913 81.7726 150.855L101.1 151.129C101.317 151.114 101.535 151.144 101.741 151.217C101.946 151.29 102.134 151.404 102.293 151.553C102.453 151.701 102.58 151.881 102.666 152.081C102.753 152.281 102.798 152.496 102.798 152.714V155.444C102.798 155.865 102.63 156.269 102.332 156.567C102.035 156.864 101.631 157.031 101.21 157.031Z" fill="#BDD0FB"/>
<path id="Vector_27" d="M101.261 160.052H81.9441C81.5229 160.052 81.119 159.885 80.8211 159.587C80.5233 159.289 80.356 158.885 80.356 158.464V157.077C80.356 156.242 80.5386 154.694 81.3708 154.636L101.151 154.15C101.369 154.135 101.587 154.165 101.792 154.238C101.997 154.31 102.186 154.425 102.345 154.573C102.504 154.722 102.631 154.902 102.718 155.102C102.805 155.302 102.849 155.517 102.849 155.735V158.465C102.849 158.886 102.682 159.29 102.384 159.588C102.086 159.885 101.682 160.052 101.261 160.052Z" fill="#7D97F4"/>
<path id="Vector_28" d="M135.532 105.837H107.667C107.554 105.837 107.462 105.929 107.462 106.042V150.883C107.462 150.996 107.554 151.087 107.667 151.087H135.532C135.645 151.087 135.736 150.996 135.736 150.883V106.042C135.736 105.929 135.645 105.837 135.532 105.837Z" fill="white"/>
<path id="Vector_29" d="M133.922 107.736H109.22C109.115 107.736 109.029 107.822 109.029 107.927V149.226C109.029 149.331 109.115 149.417 109.22 149.417H133.922C134.027 149.417 134.112 149.331 134.112 149.226V107.927C134.112 107.822 134.027 107.736 133.922 107.736Z" fill="#7D97F4"/>
<path id="Vector_30" d="M121.774 107.164H120.336V151.088H121.774V107.164Z" fill="white"/>
<path id="Vector_31" d="M76.4835 105.837H48.6177C48.505 105.837 48.4136 105.929 48.4136 106.042V150.883C48.4136 150.996 48.505 151.087 48.6177 151.087H76.4835C76.5962 151.087 76.6876 150.996 76.6876 150.883V106.042C76.6876 105.929 76.5962 105.837 76.4835 105.837Z" fill="white"/>
<path id="Vector_32" d="M74.8717 107.736H50.17C50.0648 107.736 49.9795 107.822 49.9795 107.927V149.226C49.9795 149.331 50.0648 149.417 50.17 149.417H74.8717C74.9769 149.417 75.0622 149.331 75.0622 149.226V107.927C75.0622 107.822 74.9769 107.736 74.8717 107.736Z" fill="#7D97F4"/>
<path id="Vector_33" d="M62.7241 107.164H61.2861V151.088H62.7241V107.164Z" fill="white"/>
<path id="Vector_34" d="M141.826 43.3799L141.001 42.7564V41.8885H139.853L92.1367 5.82391L43.8936 41.8885V85.025H141.001V47.8279L141.826 43.3799Z" fill="#91B3FA"/>
<path id="Vector_35" d="M121.47 10.019H113.438V23.0972H121.47V10.019Z" fill="#7D97F4"/>
<path id="Vector_36" d="M111.531 8.12201H123.514C123.593 8.12201 123.672 8.13762 123.745 8.16793C123.818 8.19825 123.885 8.24269 123.941 8.29871C123.997 8.35473 124.041 8.42124 124.072 8.49444C124.102 8.56763 124.117 8.64608 124.117 8.72531V12.1384H111.135V8.51662C111.136 8.4119 111.177 8.31163 111.252 8.2377C111.326 8.16377 111.426 8.12218 111.531 8.12201Z" fill="url(#paint6_linear_298_444)"/>
<path id="Vector_37" d="M40.646 48.7581L92.1767 9.23889L141.091 47.1803C142.869 48.5599 145.477 47.5938 145.927 45.3893L146.613 42.0335L92.1767 0.563232L39.4875 40.8106C39.0287 41.1611 38.6982 41.6531 38.5473 42.2104C38.3964 42.7677 38.4335 43.3593 38.6528 43.8934L40.646 48.7581Z" fill="url(#paint7_linear_298_444)"/>
<g id="Group_3" opacity="0.89">
<path id="Vector_38" d="M81.8454 78.6331H101.67C101.71 78.6331 101.743 78.6005 101.743 78.5602V47.9182C101.743 47.878 101.71 47.8454 101.67 47.8454H81.8454C81.8052 47.8454 81.7726 47.878 81.7726 47.9182V78.5602C81.7726 78.6005 81.8052 78.6331 81.8454 78.6331Z" fill="white"/>
<path id="Vector_39" d="M90.9422 49.509H83.2691C83.2468 49.509 83.2288 49.527 83.2288 49.5493V76.9285C83.2288 76.9507 83.2468 76.9688 83.2691 76.9688H90.9422C90.9644 76.9688 90.9825 76.9507 90.9825 76.9285V49.5493C90.9825 49.527 90.9644 49.509 90.9422 49.509Z" fill="#7D97F4"/>
<path id="Vector_40" d="M100.246 49.509H92.5733C92.551 49.509 92.533 49.527 92.533 49.5493V76.9285C92.533 76.9507 92.551 76.9688 92.5733 76.9688H100.246C100.269 76.9688 100.287 76.9507 100.287 76.9285V49.5493C100.287 49.527 100.269 49.509 100.246 49.509Z" fill="#7D97F4"/>
</g>
<g id="Group_4" opacity="0.89">
<path id="Vector_41" d="M53.819 78.8509H73.6437C73.684 78.8509 73.7166 78.8183 73.7166 78.778V48.136C73.7166 48.0958 73.684 48.0632 73.6437 48.0632H53.819C53.7788 48.0632 53.7462 48.0958 53.7462 48.136V78.778C53.7462 78.8183 53.7788 78.8509 53.819 78.8509Z" fill="white"/>
<path id="Vector_42" d="M62.9158 49.7268H55.2427C55.2204 49.7268 55.2024 49.7448 55.2024 49.7671V77.1463C55.2024 77.1685 55.2204 77.1866 55.2427 77.1866H62.9158C62.9381 77.1866 62.9561 77.1685 62.9561 77.1463V49.7671C62.9561 49.7448 62.9381 49.7268 62.9158 49.7268Z" fill="#7D97F4"/>
<path id="Vector_43" d="M72.2207 49.7268H64.5476C64.5254 49.7268 64.5073 49.7448 64.5073 49.7671V77.1463C64.5073 77.1685 64.5254 77.1866 64.5476 77.1866H72.2207C72.243 77.1866 72.261 77.1685 72.261 77.1463V49.7671C72.261 49.7448 72.243 49.7268 72.2207 49.7268Z" fill="#7D97F4"/>
</g>
<g id="Group_5" opacity="0.89">
<path id="Vector_44" d="M108.656 79.1292H128.481C128.521 79.1292 128.554 79.0966 128.554 79.0564V48.4143C128.554 48.3741 128.521 48.3415 128.481 48.3415H108.656C108.616 48.3415 108.583 48.3741 108.583 48.4143V79.0564C108.583 79.0966 108.616 79.1292 108.656 79.1292Z" fill="white"/>
<path id="Vector_45" d="M117.753 50.0051H110.08C110.058 50.0051 110.04 50.0231 110.04 50.0454V77.4246C110.04 77.4468 110.058 77.4649 110.08 77.4649H117.753C117.776 77.4649 117.794 77.4468 117.794 77.4246V50.0454C117.794 50.0231 117.776 50.0051 117.753 50.0051Z" fill="#7D97F4"/>
<path id="Vector_46" d="M127.058 50.0051H119.385C119.362 50.0051 119.344 50.0231 119.344 50.0454V77.4246C119.344 77.4468 119.362 77.4649 119.385 77.4649H127.058C127.08 77.4649 127.098 77.4468 127.098 77.4246V50.0454C127.098 50.0231 127.08 50.0051 127.058 50.0051Z" fill="#7D97F4"/>
</g>
<path id="Vector_47" d="M142.939 84.1395H41.3345C41.0505 84.1395 40.8203 84.3697 40.8203 84.6537V89.1869C40.8203 89.4709 41.0505 89.7012 41.3345 89.7012H142.939C143.223 89.7012 143.453 89.4709 143.453 89.1869V84.6537C143.453 84.3697 143.223 84.1395 142.939 84.1395Z" fill="#7D97F4"/>
<path id="Vector_48" d="M141.924 180.619C141.922 180.562 141.928 180.506 141.941 180.451C142.78 177.122 146.946 175.049 146.946 175.049L148.598 175.179C149.547 178.113 149.425 179.912 149.272 180.713C149.268 180.736 149.261 180.758 149.255 180.778C147.895 180.901 145.091 180.98 141.924 180.619Z" fill="url(#paint8_linear_298_444)"/>
<path id="Vector_49" d="M149.257 180.778C149.226 180.906 149.161 181.023 149.069 181.117C148.977 181.21 148.86 181.276 148.733 181.308C146.795 181.715 143.715 181.387 142.422 181.218C142.137 181.181 141.928 180.917 141.924 180.619C145.091 180.98 147.895 180.901 149.257 180.778Z" fill="#7D97F4"/>
<path id="Vector_50" d="M149.263 172.719L148.563 176.086C148.544 176.202 148.488 176.309 148.403 176.391C148.319 176.473 148.21 176.526 148.093 176.541C147.732 176.578 147.369 176.572 147.009 176.524C146.649 176.471 146.398 176.104 146.461 175.711L146.948 172.72L149.263 172.719Z" fill="url(#paint9_linear_298_444)"/>
<path id="Vector_51" d="M134.772 180.736C136.596 180.685 137.539 180.47 138.027 180.271C138.027 180.452 138.027 180.637 138.021 180.828C138.023 180.922 137.988 181.012 137.923 181.081C137.859 181.149 137.771 181.19 137.677 181.194L127.666 181.129C127.346 181.129 127.159 180.756 127.298 180.463C128.609 180.572 131.953 180.815 134.772 180.736Z" fill="#7D97F4"/>
<path id="Vector_52" d="M127.296 180.464C127.307 180.437 127.32 180.412 127.336 180.388C128.22 179.153 130.472 176.692 134.923 175.625L137.058 175.56C137.058 175.56 138.009 177.213 138.027 180.273C137.539 180.473 136.597 180.687 134.772 180.739C131.953 180.815 128.609 180.572 127.296 180.464Z" fill="url(#paint10_linear_298_444)"/>
<path id="Vector_53" d="M137.549 172.421C137.515 172.578 137.071 174.974 136.899 175.903C136.884 176.006 136.834 176.1 136.759 176.172C136.683 176.244 136.585 176.288 136.482 176.297C136.116 176.317 135.526 176.32 135.02 176.182C134.746 176.108 134.565 175.829 134.581 175.52L134.821 171.73L137.549 172.421Z" fill="url(#paint11_linear_298_444)"/>
<path id="Vector_54" d="M139.167 128.187C139.167 128.187 136.23 148.37 134.11 172.386C134.071 172.833 134.427 173.223 134.867 173.315C135.517 173.452 136.466 173.614 137.254 173.591C137.459 173.585 137.655 173.508 137.809 173.373C137.963 173.239 138.065 173.055 138.099 172.853C138.821 168.619 143.973 145.892 145.326 140.89C145.326 140.89 146.879 162.137 146.383 173.16C146.376 173.292 146.42 173.422 146.505 173.523C146.591 173.624 146.712 173.688 146.844 173.703C147.481 173.771 148.123 173.769 148.76 173.698C148.915 173.683 149.061 173.616 149.173 173.508C149.286 173.401 149.36 173.259 149.383 173.104C149.897 169.52 152.858 148.189 152.732 132.822C152.724 131.955 151.715 124.835 151.715 124.835L139.167 128.187Z" fill="url(#paint12_linear_298_444)"/>
<path id="Vector_55" d="M138.029 94.2473L137.635 104.808C136.589 105.171 135.523 105.474 134.443 105.715C133.81 103.676 132.415 101.174 131.273 99.3123C135.469 97.8294 138.029 94.2473 138.029 94.2473Z" fill="url(#paint13_linear_298_444)"/>
<path id="Vector_56" d="M152.154 129.35C152.302 129.297 152.432 129.203 152.528 129.08C152.625 128.956 152.684 128.807 152.7 128.651C153.09 124.861 154.981 101.367 143.042 91.7015C143.042 91.7015 142.358 89.9098 136.73 94.3137C131.102 98.7175 134.115 103.333 135.463 109.698C137.093 117.402 139.954 123.699 138.688 128.44C138.645 128.597 138.662 128.766 138.737 128.911C138.811 129.057 138.937 129.17 139.091 129.228C143.462 130.839 147.817 130.892 152.154 129.35Z" fill="url(#paint14_linear_298_444)"/>
<path id="Vector_57" d="M138.385 84.6616C138.389 84.9964 143.156 91.7679 143.156 91.7679C143.156 91.7679 142.301 93.4529 138.216 94.8234L134.689 87.5695L138.385 84.6616Z" fill="url(#paint15_linear_298_444)"/>
<path id="Vector_58" d="M140.747 107.833C140.778 107.833 140.808 107.823 140.833 107.806C144.642 105.233 146.433 101.079 146.451 101.038C146.466 101 146.465 100.958 146.45 100.921C146.434 100.884 146.405 100.854 146.367 100.838C146.33 100.823 146.288 100.822 146.251 100.837C146.213 100.851 146.183 100.88 146.166 100.917C146.149 100.958 144.391 105.029 140.66 107.548C140.633 107.566 140.612 107.593 140.601 107.624C140.589 107.656 140.589 107.69 140.598 107.722C140.608 107.754 140.628 107.781 140.654 107.801C140.681 107.821 140.714 107.831 140.747 107.831V107.833Z" fill="url(#paint16_linear_298_444)"/>
<path id="Vector_59" d="M135.074 102.076C135.1 102.076 135.126 102.069 135.148 102.057C135.171 102.044 135.19 102.026 135.204 102.004C135.215 101.987 136.379 100.176 138.595 96.2074C139.276 94.9872 140.172 94.2149 141.257 93.9113C143.053 93.4094 144.785 94.3722 144.802 94.3819C144.819 94.392 144.839 94.3985 144.859 94.401C144.879 94.4036 144.9 94.4021 144.919 94.3968C144.939 94.3914 144.957 94.3822 144.973 94.3697C144.989 94.3573 145.003 94.3417 145.013 94.3241C145.023 94.3064 145.029 94.2869 145.032 94.2667C145.035 94.2466 145.033 94.2261 145.028 94.2064C145.022 94.1868 145.013 94.1685 145.001 94.1524C144.988 94.1363 144.973 94.1229 144.955 94.1128C144.88 94.0705 143.1 93.0726 141.176 93.6122C140.006 93.9373 139.048 94.7609 138.325 96.0566C136.114 100.014 134.955 101.819 134.944 101.837C134.922 101.872 134.915 101.914 134.923 101.954C134.932 101.994 134.956 102.029 134.99 102.051C135.015 102.067 135.044 102.076 135.074 102.076Z" fill="url(#paint17_linear_298_444)"/>
<path id="Vector_60" d="M134.632 80.7817C134.632 80.7817 132.935 84.6784 132.822 86.7237C132.708 88.7689 132.267 90.0958 134.632 90.5079C136.997 90.9201 138.988 89.7415 140.068 87.704C140.068 87.704 141.759 84.5653 141.38 83.2794C141.001 81.9935 134.632 80.7817 134.632 80.7817Z" fill="url(#paint18_linear_298_444)"/>
<path id="Vector_61" d="M139.26 86.2394L139.126 86.1802C139.085 86.1624 139.048 86.1365 139.018 86.104C138.988 86.0715 138.965 86.0333 138.95 85.9915C138.935 85.9497 138.929 85.9053 138.932 85.8611C138.935 85.8169 138.947 85.7737 138.967 85.7342C139.3 85.09 139.951 83.6136 139.111 83.269C138.028 82.825 133.741 81.9506 132.816 80.4294C131.927 78.9673 132.714 77.08 133.898 76.5437C133.936 76.5256 133.979 76.5227 134.018 76.5355C134.058 76.5484 134.091 76.5759 134.111 76.6126L134.21 76.7998C134.225 76.8282 134.248 76.8514 134.276 76.8666C134.305 76.8817 134.337 76.8881 134.369 76.8848C134.401 76.8815 134.431 76.8687 134.455 76.8481C134.48 76.8276 134.498 76.8001 134.507 76.7693C134.515 76.7395 134.532 76.7128 134.555 76.6925C134.578 76.6721 134.607 76.6589 134.638 76.6545C134.668 76.6501 134.7 76.6546 134.728 76.6676C134.756 76.6806 134.779 76.7015 134.796 76.7277C135.081 77.1827 135.848 77.9206 137.901 78.2996C140.818 78.8379 142.747 80.0185 142.795 82.0345C142.796 82.063 142.805 82.0909 142.82 82.1151C142.835 82.1393 142.856 82.1591 142.881 82.1723C142.907 82.1856 142.935 82.1918 142.964 82.1905C142.992 82.1891 143.02 82.1801 143.044 82.1645C143.26 82.0345 143.604 81.9695 144.065 82.3595C144.866 83.0337 144.538 84.7812 142.782 86.2186C142.761 86.234 142.745 86.254 142.734 86.277C142.723 86.2999 142.718 86.3252 142.719 86.3506C142.719 86.376 142.726 86.4009 142.739 86.4232C142.751 86.4454 142.768 86.4644 142.789 86.4786C143.107 86.686 143.583 87.1794 142.353 87.8367C141.08 88.5167 140.13 88.4608 139.765 88.4003C139.743 88.3968 139.722 88.3888 139.704 88.3769C139.685 88.365 139.669 88.3495 139.657 88.3312C139.645 88.3128 139.637 88.2922 139.633 88.2706C139.629 88.2489 139.629 88.2267 139.635 88.2053L140.025 86.4338C140.03 86.4103 140.029 86.386 140.024 86.3626C140.018 86.3392 140.008 86.3174 139.992 86.2987C139.977 86.28 139.958 86.2649 139.937 86.2546C139.915 86.2442 139.891 86.2388 139.867 86.2387L139.26 86.2394Z" fill="url(#paint19_linear_298_444)"/>
<path id="Vector_62" d="M139.187 86.6132C139.187 86.6132 139.837 84.1246 140.95 84.8221C142.063 85.5197 140.37 87.6111 139.473 87.7041L139.187 86.6132Z" fill="url(#paint20_linear_298_444)"/>
<path id="Vector_63" d="M117.221 93.4529C117.221 93.4529 118.072 91.946 118.018 91.2133C117.964 90.4806 118.42 89.4054 117.934 89.4847C117.449 89.564 117.349 89.4996 117.219 90.3786C117.089 91.2575 115.549 95.0957 117.221 93.4529Z" fill="url(#paint21_linear_298_444)"/>
<path id="Vector_64" d="M117.061 91.0566L117.081 94.0679C122.837 100.282 127.495 100.648 131.273 99.3123C132.415 101.174 133.808 103.676 134.443 105.715C119.073 109.104 115.454 94.9735 115.454 94.9735C113.373 94.1115 112.952 93.6083 113.041 93.0421L117.061 91.0566Z" fill="url(#paint22_linear_298_444)"/>
<path id="Vector_65" d="M112.635 88.0687C113.126 87.8692 114.088 86.0365 114.272 86.6385C114.456 87.2405 114.194 88.0687 114.272 88.3236C114.35 88.5784 115.548 91.5299 115.312 92.1852C115.139 92.6578 114.188 92.5883 114.042 93.3619C114.03 93.4835 113.972 93.5962 113.882 93.6781C113.791 93.76 113.673 93.8054 113.551 93.8054C113.428 93.8054 113.31 93.76 113.22 93.6781C113.129 93.5962 113.072 93.4835 113.059 93.3619C113.036 93.2605 112.144 88.2683 112.635 88.0687Z" fill="url(#paint23_linear_298_444)"/>
<path id="Vector_66" d="M95.8785 85.7303C95.991 92.7209 100.689 98.5614 107.066 100.429L107.091 101.947L107.147 105.494L108.714 105.468L108.754 107.991L107.188 108.016L107.208 109.277L108.775 109.252L108.798 110.707L107.232 110.733L107.264 112.77L108.006 112.758L108.048 115.378L107.306 115.39L107.325 116.554L108.766 116.531L108.816 119.656L107.375 119.679L107.414 122.085L108.98 122.06L109.022 124.631L107.455 124.656L107.503 127.647C107.509 128 107.643 128.339 107.881 128.6L111.735 132.826C111.91 133.018 112.133 133.159 112.381 133.235C112.629 133.311 112.893 133.319 113.145 133.258C113.193 133.247 113.239 133.232 113.285 133.216C113.297 133.212 113.309 133.208 113.321 133.202C113.357 133.189 113.393 133.174 113.428 133.157C113.441 133.151 113.454 133.145 113.467 133.138C113.513 133.115 113.558 133.089 113.601 133.061L116.136 131.393C116.34 131.259 116.506 131.075 116.62 130.859C116.733 130.643 116.791 130.402 116.786 130.158L116.307 100.275C122.618 98.2039 127.129 92.2138 127.017 85.2252C126.878 76.6243 119.795 69.7644 111.194 69.9022C102.593 70.04 95.7407 77.1294 95.8785 85.7303ZM111.286 75.341C111.909 75.331 112.522 75.5062 113.046 75.8444C113.57 76.1826 113.982 76.6687 114.23 77.241C114.478 77.8134 114.55 78.4464 114.439 79.06C114.327 79.6736 114.035 80.2403 113.601 80.6883C113.167 81.1363 112.61 81.4456 112.001 81.5771C111.391 81.7085 110.756 81.6562 110.176 81.4268C109.596 81.1973 109.097 80.801 108.742 80.288C108.388 79.775 108.193 79.1683 108.183 78.5447C108.176 78.1304 108.252 77.7189 108.404 77.3336C108.557 76.9484 108.784 76.597 109.072 76.2994C109.36 76.0019 109.705 75.7642 110.085 75.5997C110.465 75.4352 110.874 75.3473 111.288 75.341H111.286Z" fill="url(#paint24_linear_298_444)"/>
<path id="Vector_67" d="M105.993 91.409L106.22 105.575L107.786 105.55L107.827 108.072L106.261 108.098L106.281 109.359L107.847 109.334L107.87 110.789L106.304 110.815L106.337 112.852L107.078 112.84L107.121 115.46L106.379 115.472L106.397 116.636L107.838 116.613L107.888 119.738L106.448 119.761L106.486 122.166L108.053 122.141L108.094 124.712L106.527 124.737L106.575 127.728C106.581 128.081 106.716 128.42 106.954 128.681L110.807 132.907C111.04 133.161 111.356 133.325 111.698 133.368C112.04 133.411 112.387 133.331 112.675 133.141L115.21 131.474C115.414 131.339 115.581 131.156 115.696 130.94C115.81 130.724 115.868 130.483 115.864 130.238L115.285 94.1654L105.993 91.409Z" fill="url(#paint25_linear_298_444)"/>
<path id="Vector_68" d="M110.27 69.9893C101.67 70.1271 94.8111 77.2113 94.9483 85.8142C95.0855 94.417 102.17 101.275 110.77 101.137C119.371 100.999 126.231 93.9151 126.093 85.3149C125.955 76.7146 118.871 69.8508 110.27 69.9893ZM110.459 81.7296C109.835 81.7395 109.223 81.5643 108.699 81.2261C108.175 80.888 107.763 80.402 107.515 79.8297C107.267 79.2573 107.194 78.6243 107.306 78.0108C107.418 77.3972 107.709 76.8305 108.143 76.3825C108.577 75.9344 109.134 75.6251 109.744 75.4935C110.353 75.362 110.988 75.4142 111.568 75.6436C112.148 75.8729 112.647 76.2691 113.002 76.782C113.357 77.295 113.552 77.9016 113.562 78.5252C113.569 78.9394 113.494 79.3508 113.341 79.736C113.189 80.1212 112.962 80.4726 112.674 80.7701C112.386 81.0677 112.042 81.3056 111.662 81.4702C111.282 81.6348 110.873 81.723 110.459 81.7296Z" fill="url(#paint26_linear_298_444)"/>
<path id="Vector_69" d="M126.093 85.3123C125.955 76.7114 118.871 69.8508 110.27 69.9893C101.67 70.1278 94.8111 77.2113 94.9483 85.8142C95.0601 92.8048 99.759 98.6453 106.135 100.513L106.16 102.032C108.123 101.961 109.106 102.497 109.637 103.097C111.127 104.781 110.109 129.974 111.417 133.311C111.624 133.381 111.845 133.403 112.063 133.375C112.28 133.347 112.489 133.27 112.672 133.15L115.207 131.482C115.411 131.348 115.578 131.164 115.692 130.948C115.807 130.732 115.865 130.491 115.861 130.247L115.381 100.365C121.694 98.291 126.205 92.3022 126.093 85.3123ZM110.358 75.4229C110.981 75.4128 111.594 75.5879 112.118 75.926C112.642 76.2642 113.054 76.7501 113.302 77.3225C113.55 77.8948 113.623 78.5279 113.511 79.1415C113.399 79.7552 113.108 80.3219 112.674 80.77C112.24 81.2181 111.683 81.5274 111.073 81.6589C110.464 81.7904 109.829 81.7381 109.249 81.5087C108.669 81.2793 108.17 80.883 107.815 80.37C107.46 79.857 107.265 79.2503 107.255 78.6266C107.242 77.7904 107.561 76.9833 108.143 76.3825C108.725 75.7817 109.521 75.4366 110.358 75.4229Z" fill="url(#paint27_linear_298_444)"/>
<path id="Vector_70" d="M110.32 73.0455C103.407 73.1566 97.8932 78.8503 98.0043 85.7628C98.1155 92.6754 103.809 98.189 110.722 98.0784C117.634 97.9679 123.148 92.2736 123.037 85.3611C122.926 78.4485 117.232 72.9343 110.32 73.0455ZM110.459 81.7296C109.835 81.7395 109.223 81.5643 108.699 81.2262C108.175 80.888 107.763 80.402 107.515 79.8297C107.267 79.2574 107.194 78.6244 107.306 78.0108C107.418 77.3972 107.709 76.8305 108.143 76.3825C108.577 75.9344 109.134 75.6251 109.744 75.4936C110.353 75.3621 110.988 75.4143 111.568 75.6436C112.148 75.873 112.647 76.2691 113.002 76.7821C113.357 77.295 113.552 77.9016 113.562 78.5252C113.569 78.9394 113.494 79.3508 113.341 79.736C113.189 80.1212 112.962 80.4726 112.674 80.7702C112.386 81.0677 112.042 81.3056 111.662 81.4702C111.282 81.6348 110.873 81.723 110.459 81.7296Z" fill="url(#paint28_linear_298_444)"/>
<path id="Vector_71" d="M140.747 107.833C140.747 107.833 126.08 112.742 117.877 106.496C117.626 106.303 117.339 106.163 117.032 106.085C116.726 106.007 116.407 105.992 116.095 106.041L112.96 106.552C112.326 106.655 111.677 106.511 111.147 106.15C110.616 105.789 110.244 105.238 110.108 104.611C109.946 103.868 109.868 103.056 110.033 102.358L115.949 102.001L115.78 101.233C115.78 101.233 118.395 101.873 118.445 103.919C118.445 103.919 124.58 107.937 135.769 101.7C135.771 101.701 140.128 105.111 140.747 107.833Z" fill="url(#paint29_linear_298_444)"/>
<path id="Vector_72" d="M153.854 99.497C154.457 98.2312 155.508 97.3997 156.142 96.1593C156.941 94.5991 156.969 92.5272 156.445 90.7862C156.011 89.3417 155.238 88.0948 154.794 86.6541C154.198 84.7162 154.187 83.8821 154.459 81.9363C154.698 80.222 155.222 78.3965 156.516 77.4129C158.116 76.1972 160.074 75.9664 161.906 76.4065C163.807 76.8616 165.651 77.8901 167.041 79.6005C168.432 81.3109 169.339 83.7118 169.317 86.1724C169.301 87.8373 168.88 89.553 169.3 91.1301C169.625 92.3569 170.474 93.3353 171.465 93.6298C172.57 93.9548 173.713 93.4783 174.846 93.4997C175.967 93.5186 177.08 94.0471 177.935 94.969C178.749 95.8577 179.257 96.9843 179.383 98.1831C179.513 99.4359 179.168 100.784 178.408 101.601C177.888 102.16 177.161 102.539 176.97 103.368C176.756 104.296 177.384 105.228 178.084 105.604C178.784 105.98 179.572 106.013 180.285 106.35C181.879 107.104 182.844 109.389 182.719 111.546C182.594 113.703 181.522 115.655 180.115 116.87C178.708 118.084 177 118.629 175.304 118.804C173.609 118.98 171.905 118.808 170.207 118.707C168.264 118.591 166.282 118.558 164.439 117.765C162.576 116.963 160.966 115.43 159.464 113.814C158.754 113.048 158.034 112.211 157.714 111.098C157.482 110.29 157.481 109.393 157.214 108.602C156.643 106.906 155.058 106.185 154.141 104.754C153.212 103.302 153.092 101.098 153.854 99.497Z" fill="url(#paint30_linear_298_444)"/>
<path id="Vector_73" d="M174.935 102.545C174.939 102.546 174.943 102.546 174.946 102.545C175.75 102.357 176.458 101.609 176.75 100.639C177.043 99.6692 176.91 98.5101 176.412 97.6871C175.671 96.4642 174.367 96.1483 173.096 95.9318L170.791 95.5346C169.491 95.3103 168.157 94.9891 167.411 93.7663C166.612 92.4622 166.771 90.6809 166.926 88.9555C166.943 88.7605 166.961 88.5654 166.976 88.3704C167.178 85.9091 166.976 83.7696 166.374 82.0111C165.641 79.8657 164.273 78.2866 162.717 77.7854C162.685 77.7743 162.652 77.799 162.645 77.8393C162.64 77.857 162.642 77.8759 162.65 77.8925C162.658 77.9091 162.671 77.9223 162.688 77.9297C164.209 78.4173 165.549 79.9632 166.264 82.067C166.857 83.8021 167.056 85.9163 166.857 88.3516C166.841 88.5466 166.823 88.7416 166.806 88.9366C166.65 90.6919 166.487 92.5018 167.315 93.8534C168.091 95.1204 169.449 95.4494 170.773 95.6782L173.079 96.0755C174.326 96.2906 175.604 96.5994 176.318 97.7768C176.792 98.5569 176.919 99.6621 176.643 100.584C176.366 101.506 175.69 102.218 174.926 102.397C174.909 102.404 174.895 102.416 174.886 102.432C174.878 102.448 174.875 102.466 174.879 102.484C174.88 102.499 174.886 102.514 174.896 102.525C174.906 102.536 174.92 102.543 174.935 102.545Z" fill="#BDD0FB"/>
<path id="Vector_74" d="M174.209 101.646C174.224 101.645 174.239 101.641 174.253 101.634C174.267 101.627 174.279 101.617 174.289 101.605C174.57 101.27 174.89 100.89 175.079 100.406C175.252 99.9683 175.339 99.3182 175.062 98.8065C174.882 98.473 174.589 98.2819 174.299 98.1246C173.609 97.7491 172.868 97.4764 172.1 97.3152C171.608 97.2131 171.105 97.1598 170.619 97.1078C169.991 97.0428 169.342 96.9726 168.72 96.7984C167.976 96.5897 166.643 96.0182 166.063 94.534C165.594 93.3339 165.769 91.9986 165.953 90.5801C166.102 89.4314 166.257 88.2436 166.045 87.115C166.029 87.0351 165.966 86.985 165.903 87.0045C165.87 87.0195 165.843 87.0457 165.827 87.0787C165.811 87.1116 165.807 87.1491 165.816 87.1846C166.017 88.2547 165.867 89.4119 165.72 90.5313C165.538 91.9317 165.35 93.3808 165.851 94.6667C166.475 96.2627 167.883 96.8699 168.667 97.0903C169.304 97.269 169.962 97.3386 170.598 97.4062C171.079 97.4569 171.578 97.5096 172.06 97.6097C172.81 97.7672 173.533 98.0333 174.206 98.3996C174.445 98.5296 174.714 98.6915 174.867 98.9749C175.047 99.3084 175.047 99.82 174.867 100.275C174.696 100.71 174.406 101.055 174.126 101.389C174.102 101.419 174.089 101.456 174.088 101.494C174.087 101.532 174.099 101.569 174.12 101.601C174.13 101.615 174.144 101.626 174.159 101.634C174.174 101.642 174.192 101.646 174.209 101.646Z" fill="#BDD0FB"/>
<path id="Vector_75" d="M156.079 96.9823C157.451 96.5468 161.454 95.7185 165.33 99.1816C165.652 99.4695 165.89 99.8403 166.017 100.254C166.144 100.667 166.155 101.108 166.049 101.527C165.084 105.321 162.558 116.522 165.009 121.311C165.009 121.311 160.901 125.989 156.279 122.347C156.279 122.347 154.088 113.458 151.344 109.585C149.449 106.91 154.132 99.3825 155.318 97.5635C155.497 97.2878 155.766 97.0824 156.079 96.9823Z" fill="url(#paint31_linear_298_444)"/>
<path id="Vector_76" d="M159.766 89.4177C159.766 89.4177 161.898 95.1536 162.092 97.6962C162.092 97.6962 159.855 98.7578 157.703 97.0617C157.703 97.0617 157.387 91.3037 157.049 90.2765L159.766 89.4177Z" fill="url(#paint32_linear_298_444)"/>
<path id="Vector_77" d="M156.806 81.5976C156.806 81.5976 151.592 89.1492 154.815 91.266C158.038 93.3827 161.751 88.0154 161.751 88.0154C161.751 88.0154 162.921 83.9094 161.606 82.5441C160.291 81.1789 156.806 81.5976 156.806 81.5976Z" fill="url(#paint33_linear_298_444)"/>
<path id="Vector_78" d="M159.246 79.7741C159.246 79.7741 156.805 80.3943 156.479 81.5085C156.154 82.6228 159.99 83.5889 161.06 83.6227L161.994 88.0831C161.994 88.0831 164.475 83.8333 163.424 81.4182C162.374 79.003 159.246 79.7741 159.246 79.7741Z" fill="url(#paint34_linear_298_444)"/>
<path id="Vector_79" d="M160.708 87.4843C160.708 87.4843 162.745 85.0457 163.596 86.6001C164.447 88.1546 161.772 89.3748 160.826 88.62L160.708 87.4843Z" fill="url(#paint35_linear_298_444)"/>
<path id="Vector_80" d="M151.254 141.165C151.276 141.57 150.617 144.794 150.257 146.513C150.113 147.205 150.233 147.926 150.594 148.533L164.36 170.875C164.526 171.145 164.65 171.439 164.726 171.747C164.989 172.802 165.54 175.388 165.311 177.753L164.641 179.204L167.631 178.474L168.151 170.413L167.294 169.909C166.553 169.474 165.971 168.813 165.631 168.024C164.372 165.098 161.242 157.655 160.407 154.015C159.459 149.879 154.796 146.581 154.796 146.581L155.576 144.655L151.254 141.165Z" fill="url(#paint36_linear_298_444)"/>
<path id="Vector_81" d="M170.917 175.65C170.917 175.65 169.257 173.108 169.05 172.112C168.844 171.116 168.285 169.36 167.295 169.907C167.295 169.907 166.905 174.769 167.095 176.664C167.286 178.558 164.981 178.534 164.981 178.534C164.981 178.534 164.347 178.634 163.888 179.107C163.573 179.432 163.811 179.987 164.265 180.009C165.341 180.065 166.419 179.986 167.475 179.775C167.689 179.731 167.882 179.616 168.023 179.449C168.164 179.283 168.246 179.074 168.255 178.856L168.498 173.265L170.582 175.812L170.917 175.65Z" fill="url(#paint37_linear_298_444)"/>
<path id="Vector_82" d="M159.318 144.629C159.318 144.629 160.117 164.799 160.228 167.664C160.34 170.529 159.924 176.888 157.082 178.833L158.347 179.738C158.347 179.738 159.888 178.385 161.373 175.805C163.041 172.907 163.551 172.374 163.551 172.374L162.966 171.218C162.709 170.712 162.627 170.136 162.732 169.578C163.304 166.563 165.214 156.536 165.745 154.374C166.37 151.823 166.363 148.429 163.997 145.626C161.631 142.824 159.318 144.629 159.318 144.629Z" fill="url(#paint38_linear_298_444)"/>
<path id="Vector_83" d="M162.551 180.58C162.594 180.58 162.636 180.564 162.668 180.536C162.7 180.508 162.721 180.469 162.726 180.426C162.811 179.752 163.166 177.049 163.48 176.345C163.84 175.539 165.005 172.153 163.407 171.893C163.407 171.893 159.542 177.74 158.792 178.533C158.042 179.325 157.077 178.833 157.077 178.833C156.567 179.022 156.122 179.353 155.794 179.786C155.736 179.865 155.701 179.958 155.693 180.055C155.685 180.152 155.704 180.249 155.748 180.336C155.793 180.423 155.86 180.495 155.943 180.546C156.027 180.596 156.123 180.623 156.22 180.622L158.885 180.604C159.264 180.601 159.632 180.484 159.942 180.268C160.253 180.052 160.491 179.747 160.625 179.394C161.076 178.214 161.854 176.481 162.781 175.704L162.369 180.384C162.366 180.409 162.369 180.434 162.377 180.458C162.385 180.481 162.397 180.503 162.414 180.522C162.431 180.54 162.451 180.555 162.474 180.565C162.497 180.575 162.522 180.58 162.547 180.579L162.551 180.58Z" fill="url(#paint39_linear_298_444)"/>
<path id="Vector_84" d="M155.612 120.181C155.612 120.181 156.244 122.087 155.372 125.256L149.967 145.344C149.927 145.496 149.945 145.658 150.019 145.797C150.094 145.935 150.218 146.041 150.367 146.091C152.089 146.676 157.748 148.326 165.426 147.672C165.614 147.657 165.792 147.581 165.934 147.456C166.075 147.331 166.172 147.164 166.211 146.979C166.681 144.692 168.283 136.886 168.616 135.282C169.874 129.171 171.282 122.578 164.558 118.715C161.511 120.08 158.658 120.901 155.612 120.181Z" fill="url(#paint40_linear_298_444)"/>
<path id="Vector_85" d="M165.888 99.9267C165.888 99.9267 172.491 105.236 174.227 112.609C175.963 119.982 164.838 120.948 164.838 120.948C164.838 120.948 163.3 119.284 161.514 119.915C159.728 120.546 161.328 116.971 163.428 116.946C165.527 116.921 164.582 118.598 167.531 117.206C170.404 115.848 172.128 111.765 164.645 105.738C164.208 105.391 163.865 104.939 163.648 104.425C162.155 100.836 163.255 98.4503 165.888 99.9267Z" fill="url(#paint41_linear_298_444)"/>
<path id="Vector_86" d="M116.339 133.142C116.339 133.142 120.082 143.228 125.775 141.99C125.775 141.99 126.36 145.422 125.404 145.825C125.404 145.825 116.864 146.073 116.016 134.345L116.339 133.142Z" fill="url(#paint42_linear_298_444)"/>
<path id="Vector_87" d="M116.499 135.506C116.484 135.68 117.133 135.801 117.341 135.056C117.283 134.731 117.183 133.315 116.934 133.095C115.613 131.925 113.257 130.604 113.257 130.604C113.181 130.704 113.147 130.83 113.163 130.954C113.178 131.079 113.241 131.193 113.339 131.272L114.515 132.065C114.392 132.472 114.214 132.83 114.194 133.295C114.182 133.648 114.306 133.992 114.541 134.256C114.775 134.524 115.09 134.869 115.374 135.131C115.912 135.627 116.499 135.506 116.499 135.506Z" fill="url(#paint43_linear_298_444)"/>
<path id="Vector_88" d="M115.849 134.932C115.691 134.545 115.234 133.496 115.03 133.282C114.883 133.128 114.815 132.987 114.823 132.851C114.83 132.789 114.849 132.729 114.881 132.675C114.913 132.621 114.955 132.575 115.006 132.539L115.063 132.492L116.187 133.094L116.637 133.798L116.452 133.916L116.033 133.26L115.093 132.758C115.065 132.786 115.047 132.824 115.043 132.864C115.038 132.934 115.089 133.026 115.188 133.13C115.458 133.412 115.992 134.703 116.052 134.849L115.849 134.932Z" fill="url(#paint44_linear_298_444)"/>
<path id="Vector_89" fill-rule="evenodd" clip-rule="evenodd" d="M125.721 128.927C125.721 128.927 127.528 127.295 125.204 125.525C123.021 123.862 121.425 126.093 122.148 127.529C122.16 127.553 122.167 127.58 122.167 127.606C122.167 127.633 122.162 127.659 122.15 127.683C122.139 127.707 122.122 127.729 122.101 127.745C122.08 127.762 122.056 127.773 122.03 127.779C121.839 127.821 121.674 128.011 121.975 128.681C121.988 128.71 121.993 128.741 121.989 128.772C121.986 128.803 121.974 128.833 121.955 128.858C121.687 129.217 120.795 130.655 123.487 130.873C123.511 130.875 123.535 130.871 123.557 130.864C123.579 130.856 123.6 130.844 123.617 130.828L125.721 128.927Z" fill="url(#paint45_linear_298_444)"/>
<path id="Vector_90" fill-rule="evenodd" clip-rule="evenodd" d="M135.215 131.322C135.215 131.322 135.389 129.238 136.504 128.559C137.619 127.881 139.783 127.303 140.69 129.568C141.123 130.648 140.979 131.162 140.711 131.404C140.467 131.625 140.44 131.968 140.601 132.257C140.785 132.582 140.809 132.99 140.256 133.358C140.177 133.409 140.109 133.475 140.056 133.552C140.003 133.629 139.966 133.716 139.947 133.808C139.803 134.564 139.03 136.375 134.899 134.393L135.215 131.322Z" fill="url(#paint46_linear_298_444)"/>
<path id="Vector_91" fill-rule="evenodd" clip-rule="evenodd" d="M130.44 127.578C131.252 127.229 132.975 126.874 134.314 129.217C134.407 129.38 134.543 129.515 134.708 129.607C135.505 130.047 137.815 131.645 135.712 134.531C135.615 134.663 135.553 134.817 135.529 134.978C135.458 135.467 135.226 136.55 134.526 136.818C134.317 136.898 134.141 137.045 134.026 137.236C133.556 138.01 132.215 139.638 129.959 137.938C129.844 137.851 129.711 137.789 129.569 137.758L126.455 137.072C126.289 137.036 126.117 137.043 125.954 137.091C125.573 137.202 124.804 137.299 124.517 136.403C124.459 136.221 124.351 136.059 124.205 135.935C123.685 135.491 122.574 134.287 123.413 132.599C123.507 132.411 123.541 132.198 123.509 131.989C123.411 131.357 123.359 129.954 124.671 129.348C124.868 129.259 125.031 129.107 125.132 128.916C125.57 128.074 126.995 125.917 129.508 127.498C129.645 127.586 129.802 127.64 129.964 127.653C130.126 127.667 130.29 127.641 130.44 127.578Z" fill="url(#paint47_linear_298_444)"/>
<path id="Vector_92" fill-rule="evenodd" clip-rule="evenodd" d="M126.211 177.076L126.666 177.6L126.354 178.738C126.315 178.884 126.234 179.016 126.123 179.118C126.011 179.22 125.873 179.289 125.724 179.316C124.712 179.502 122.416 179.836 121.235 179.328C121.235 179.328 120.868 176.867 124.937 177.6L126.211 177.076Z" fill="url(#paint48_linear_298_444)"/>
<path id="Vector_93" fill-rule="evenodd" clip-rule="evenodd" d="M133.306 178.383L133.547 178.976L133.45 181.109C133.436 181.409 133.194 181.661 132.868 181.711C132.306 181.804 131.736 181.834 131.167 181.802C130.69 181.765 130.392 181.317 130.578 180.917L131.293 179.379C131.347 179.265 131.422 179.163 131.516 179.079C131.609 178.994 131.719 178.93 131.837 178.889L133.306 178.383Z" fill="url(#paint49_linear_298_444)"/>
<path id="Vector_94" fill-rule="evenodd" clip-rule="evenodd" d="M131.24 136.799L131.703 141.388C131.703 141.388 129.208 142.234 127.565 141.28L128.009 136.672L131.24 136.799Z" fill="url(#paint50_linear_298_444)"/>
<path id="Vector_95" fill-rule="evenodd" clip-rule="evenodd" d="M135.241 161.926C135.241 161.926 134.058 175.128 133.275 179.167C133.275 179.167 132.69 179.593 131.815 179.044L130.752 161.426L135.241 161.926Z" fill="url(#paint51_linear_298_444)"/>
<path id="Vector_96" fill-rule="evenodd" clip-rule="evenodd" d="M129.981 162.722L126.737 177.506C126.737 177.506 125.854 178.422 124.708 177.506L125.267 161.964L129.981 162.722Z" fill="url(#paint52_linear_298_444)"/>
<path id="Vector_97" fill-rule="evenodd" clip-rule="evenodd" d="M134.083 141.734L134.895 141.825C136.467 143.51 139.349 155.087 140.389 157.551L144.619 156.86C144.657 156.852 144.696 156.855 144.732 156.868C144.768 156.88 144.8 156.903 144.825 156.932C144.849 156.962 144.865 156.998 144.87 157.036C144.876 157.073 144.871 157.112 144.857 157.148C144.669 157.607 143.964 158.931 141.216 158.931C139.933 158.931 141.936 159.926 141.169 160.268C141.169 160.268 139.482 159.661 139.478 158.593C139.478 158.593 134.645 147.583 133.651 146.425C132.657 145.266 134.083 141.734 134.083 141.734Z" fill="url(#paint53_linear_298_444)"/>
<path id="Vector_98" fill-rule="evenodd" clip-rule="evenodd" d="M134.895 141.825C134.895 141.825 130.595 140.232 125.228 141.881C125.228 141.881 124.626 145.944 124.936 147.878L134.185 148.213L134.895 141.825Z" fill="url(#paint54_linear_298_444)"/>
<path id="Vector_99" fill-rule="evenodd" clip-rule="evenodd" d="M125.062 149.149C125.062 149.149 122.106 158.64 121.668 164.96C121.662 165.037 121.672 165.115 121.697 165.188C121.721 165.262 121.76 165.33 121.811 165.388C121.862 165.446 121.923 165.494 121.993 165.529C122.062 165.563 122.137 165.584 122.215 165.589C122.83 165.633 123.915 165.784 125.388 166.276C127.779 167.071 129.757 166.809 131.544 166.296C132.947 165.893 136.453 165.541 137.897 165.409C137.978 165.401 138.057 165.377 138.128 165.337C138.2 165.298 138.262 165.244 138.312 165.179C138.361 165.114 138.396 165.039 138.415 164.96C138.434 164.881 138.437 164.798 138.422 164.718C138.003 162.378 136.407 154.076 133.989 148.432L125.062 149.149Z" fill="url(#paint55_linear_298_444)"/>
<path id="Vector_100" fill-rule="evenodd" clip-rule="evenodd" d="M124.905 147.659L125.062 149.149C125.062 149.149 127.906 149.16 134.19 148.949L134.222 147.871C134.222 147.871 127.261 148.007 124.905 147.659Z" fill="url(#paint56_linear_298_444)"/>
<path id="Vector_101" fill-rule="evenodd" clip-rule="evenodd" d="M124.926 132.35C124.211 135.109 124.42 138.28 127.667 138.992C129.913 139.484 132.274 137.196 132.987 134.436C133.701 131.677 132.479 129.575 130.253 128.999C128.027 128.422 125.64 129.59 124.926 132.35Z" fill="url(#paint57_linear_298_444)"/>
<path id="Vector_102" fill-rule="evenodd" clip-rule="evenodd" d="M125.171 133.201C125.171 133.201 125.065 131.532 124.233 132.047C123.4 132.562 124.554 134.562 125.069 134.679C125.583 134.796 125.171 133.201 125.171 133.201Z" fill="url(#paint58_linear_298_444)"/>
<path id="Vector_103" fill-rule="evenodd" clip-rule="evenodd" d="M132.29 135.125C132.29 135.125 132.539 133.852 133.44 134.441C134.342 135.029 132.621 137.106 131.561 136.647L132.29 135.125Z" fill="url(#paint59_linear_298_444)"/>
<path id="Vector_104" fill-rule="evenodd" clip-rule="evenodd" d="M133.622 134.117C133.622 134.117 131.04 136.912 129.699 131.112C129.699 131.112 128.36 132.845 127.748 131.312C127.748 131.312 125.083 132.223 124.789 131.104C124.495 129.986 128.391 126.944 131.525 129.126C134.66 131.307 133.622 134.117 133.622 134.117Z" fill="url(#paint60_linear_298_444)"/>
<path id="Vector_105" d="M45.7512 180.44C45.7498 180.386 45.7553 180.333 45.7674 180.281C46.5586 177.146 49.7915 175.539 49.7915 175.539L51.3466 175.661C52.2405 178.424 52.8171 179.773 52.6734 180.528C52.6695 180.549 52.663 180.569 52.6572 180.589C51.3745 180.704 48.7345 180.779 45.7512 180.44Z" fill="url(#paint61_linear_298_444)"/>
<path id="Vector_106" d="M52.6575 180.589C52.629 180.71 52.5679 180.82 52.4809 180.908C52.3938 180.996 52.2842 181.058 52.164 181.088C50.3392 181.471 47.4391 181.163 46.2215 181.003C45.953 180.968 45.756 180.72 45.7515 180.44C48.7348 180.779 51.3748 180.704 52.6575 180.589Z" fill="#7D97F4"/>
<path id="Vector_107" d="M48.511 173.119L49.1916 176.397C49.2109 176.51 49.2653 176.613 49.3471 176.692C49.429 176.771 49.5339 176.822 49.6467 176.838C49.9976 176.874 50.3515 176.868 50.7012 176.821C51.0529 176.77 51.2973 176.413 51.2349 176.03L50.7616 173.119H48.511Z" fill="url(#paint62_linear_298_444)"/>
<path id="Vector_108" d="M65.8705 180.562C64.2095 180.516 63.3508 180.32 62.9067 180.139C62.9067 180.304 62.9067 180.472 62.9119 180.646C62.9097 180.731 62.9412 180.814 62.9998 180.877C63.0583 180.939 63.1391 180.976 63.2246 180.979L72.3442 180.921C72.6348 180.921 72.8051 180.581 72.679 180.314C71.4835 180.413 68.4384 180.634 65.8705 180.562Z" fill="#7D97F4"/>
<path id="Vector_109" d="M72.679 180.314C72.669 180.29 72.6571 180.267 72.6433 180.245C71.8378 179.121 69.7867 176.88 65.7334 175.908L63.7889 175.846C63.7889 175.846 62.923 177.351 62.9067 180.137C63.3508 180.318 64.2069 180.514 65.8705 180.561C68.4384 180.634 71.4835 180.413 72.679 180.314Z" fill="url(#paint63_linear_298_444)"/>
<path id="Vector_110" d="M63.4282 172.9C63.4497 173.045 63.7162 175.247 63.8183 176.101C63.8265 176.196 63.8661 176.285 63.9308 176.354C63.9955 176.424 64.0815 176.469 64.1752 176.484C64.5061 176.523 65.0424 176.559 65.5111 176.463C65.6389 176.431 65.7518 176.356 65.8311 176.251C65.9104 176.146 65.9512 176.017 65.9467 175.886V172.428L63.4282 172.9Z" fill="url(#paint64_linear_298_444)"/>
<path id="Vector_111" d="M49.8099 130.078C49.8099 130.078 46.6985 157.735 48.4271 175.021C48.4271 175.021 50.5016 175.021 51.5385 174.675C51.5385 174.675 54.7721 147.631 55.8181 139.895C55.8262 139.833 55.8557 139.777 55.9014 139.736C55.9471 139.694 56.006 139.671 56.0677 139.669C56.1293 139.667 56.1896 139.687 56.2378 139.725C56.2861 139.763 56.3191 139.818 56.331 139.878C57.6215 146.388 62.6903 171.918 63.2929 174.329C63.2929 174.329 65.0215 175.02 66.4043 174.329C66.4043 174.329 63.6388 137.338 61.5643 130.768L49.8099 130.078Z" fill="url(#paint65_linear_298_444)"/>
<path id="Vector_112" d="M43.5871 97.9263C43.5871 97.9263 56.7243 95.8518 67.0959 98.6174L66.4016 109.335C66.4016 109.335 63.6361 124.2 61.5617 130.769C61.5617 130.769 53.6103 132.152 49.8072 130.078C49.8072 130.078 46.6959 111.409 44.9679 108.643C44.9705 108.643 43.2419 101.383 43.5871 97.9263Z" fill="url(#paint66_linear_298_444)"/>
<path id="Vector_113" d="M52.7134 88.4796L51.4048 97.3295C51.4048 97.3295 55.0616 99.0094 57.6217 97.258L57.0704 91.0118L52.7134 88.4796Z" fill="url(#paint67_linear_298_444)"/>
<path id="Vector_114" d="M58.3483 82.7164C58.3893 82.7912 59.1785 87.2542 59.6641 90.0165C59.7115 90.2857 59.7013 90.5619 59.6343 90.8269C59.5673 91.0919 59.445 91.3398 59.2754 91.5542C59.1058 91.7686 58.8928 91.9447 58.6504 92.0709C58.4079 92.1972 58.1415 92.2707 57.8686 92.2866L56.8096 92.3516C55.8702 92.4072 54.944 92.11 54.2123 91.5184C53.4806 90.9268 52.9961 90.0833 52.8537 89.1531L52.0879 84.1473C52.0879 84.1473 57.3478 80.9013 58.3483 82.7164Z" fill="url(#paint68_linear_298_444)"/>
<path id="Vector_115" d="M50.9457 84.1597C50.5393 83.6545 50.185 82.838 51.0503 81.9792C51.926 81.1094 52.9194 81.3291 53.5493 81.6178C53.6853 81.6833 53.8389 81.703 53.987 81.6737C54.1351 81.6443 54.2696 81.5677 54.3704 81.4552C54.4199 81.3958 54.4841 81.3503 54.5566 81.3234C54.6292 81.2965 54.7075 81.289 54.7838 81.3018C54.8696 81.314 54.957 81.309 55.0407 81.2869C55.1245 81.2649 55.2031 81.2264 55.2718 81.1736C55.3405 81.1207 55.3979 81.0547 55.4407 80.9794C55.4835 80.9041 55.5108 80.821 55.521 80.7349C55.5958 80.1076 55.93 79.3697 57.0397 79.1539C59.0745 78.7638 60.0899 80.7973 60.0535 82.2289C60.0171 83.6604 57.7866 83.9614 56.5209 83.7241C55.5913 83.5492 54.7877 84.3664 54.4263 84.8124C54.362 84.8922 54.3169 84.9857 54.2943 85.0856C54.2718 85.1856 54.2725 85.2894 54.2963 85.389L54.6174 86.7718C54.3951 87.2022 54.176 87.641 53.8633 88.007C53.6767 88.2405 53.4186 88.4063 53.1287 88.479C52.749 87.7723 51.6881 87.6527 51.1946 87.6338C51.1016 87.6308 51.0103 87.6087 50.9262 87.5689C50.8421 87.5291 50.7671 87.4724 50.7058 87.4024C50.3339 86.9753 49.7514 86.0235 50.8657 85.088C50.9965 84.9737 51.078 84.8131 51.0929 84.64C51.1078 84.4669 51.055 84.2947 50.9457 84.1597Z" fill="url(#paint69_linear_298_444)"/>
<path id="Vector_116" d="M53.4927 89.9599C53.4927 89.9599 53.4491 87.4629 52.4382 87.2295C51.4273 86.9961 50.3371 87.7255 51.203 89.2207C52.277 91.08 53.4927 89.9599 53.4927 89.9599Z" fill="url(#paint70_linear_298_444)"/>
<path id="Vector_117" d="M43.5871 97.9263C43.5871 97.9263 23.1903 120.052 47.2173 128.522V126.794C47.2173 126.794 38.229 119.187 45.1428 108.816C45.1434 108.816 44.2788 98.9632 43.5871 97.9263Z" fill="url(#paint71_linear_298_444)"/>
<path id="Vector_118" d="M47.3903 126.966C47.3903 126.966 50.5017 124.891 51.8844 125.582C53.2672 126.273 53.2672 127.311 53.2672 127.311C53.2672 127.311 52.5762 128.694 51.5386 128.351C50.501 128.009 48.082 128.696 47.0445 128.351C47.0445 128.349 46.6986 126.966 47.3903 126.966Z" fill="url(#paint72_linear_298_444)"/>
<path id="Vector_119" d="M83.0013 105.741C76.4165 106.729 72.7168 102.231 69.5183 99.7128C65.2926 96.3849 61.4167 98.3476 61.4167 98.3476L65.5722 108.047C72.2974 114.388 79.5408 111.875 83.8874 109.821C83.9411 108.408 83.6363 107.004 83.0013 105.741Z" fill="url(#paint73_linear_298_444)"/>
<path id="Vector_120" d="M92.2576 101.813L90.0739 102.987C87.4546 104.582 85.111 105.425 83.0015 105.741C83.6359 107.003 83.9407 108.406 83.8875 109.817C86.655 108.509 88.3895 106.939 88.3895 106.939C93.3367 103.989 92.2576 101.813 92.2576 101.813Z" fill="url(#paint74_linear_298_444)"/>
<path id="Vector_121" d="M98.6906 104.89C98.621 104.658 98.5002 104.446 98.3373 104.267C98.1743 104.089 97.9734 103.949 97.7493 103.859L93.3156 102.077C93.3156 102.077 93.2506 101.508 94.2524 101.122C95.2542 100.736 95.0208 99.612 95.0208 99.612C95.0208 99.612 93.6504 100.237 91.6403 101.229C90.4922 101.796 89.8486 102.798 89.5073 103.552L90.6482 105.052C93.3787 105.873 96.1435 106.027 98.9311 105.702L98.6906 104.89Z" fill="url(#paint75_linear_298_444)"/>
</g>
<defs>
<linearGradient id="paint0_linear_298_444" x1="192.308" y1="205.063" x2="58.8225" y2="60.9856" gradientUnits="userSpaceOnUse">
<stop stop-color="#DAE3FE"/>
<stop offset="1" stop-color="#E9EFFD"/>
</linearGradient>
<linearGradient id="paint1_linear_298_444" x1="208.819" y1="-42.4464" x2="185.207" y2="11.7208" gradientUnits="userSpaceOnUse">
<stop stop-color="#4F52FF"/>
<stop offset="1" stop-color="#4042E2"/>
</linearGradient>
<linearGradient id="paint2_linear_298_444" x1="151.868" y1="60.5225" x2="162.722" y2="-1.30897" gradientUnits="userSpaceOnUse">
<stop stop-color="#4F52FF"/>
<stop offset="1" stop-color="#4042E2"/>
</linearGradient>
<linearGradient id="paint3_linear_298_444" x1="90.1966" y1="-32.1858" x2="44.3625" y2="56.704" gradientUnits="userSpaceOnUse">
<stop stop-color="#4F52FF"/>
<stop offset="1" stop-color="#4042E2"/>
</linearGradient>
<linearGradient id="paint4_linear_298_444" x1="37.0836" y1="40.3738" x2="47.9372" y2="-21.4577" gradientUnits="userSpaceOnUse">
<stop stop-color="#4F52FF"/>
<stop offset="1" stop-color="#4042E2"/>
</linearGradient>
<linearGradient id="paint5_linear_298_444" x1="82.2732" y1="135.306" x2="100.596" y2="135.306" gradientUnits="userSpaceOnUse">
<stop stop-color="#4F52FF"/>
<stop offset="1" stop-color="#4042E2"/>
</linearGradient>
<linearGradient id="paint6_linear_298_444" x1="146.608" y1="-71.6564" x2="132.422" y2="-31.5423" gradientUnits="userSpaceOnUse">
<stop stop-color="#4F52FF"/>
<stop offset="1" stop-color="#4042E2"/>
</linearGradient>
<linearGradient id="paint7_linear_298_444" x1="105.328" y1="-66.3684" x2="96.9937" y2="4.46645" gradientUnits="userSpaceOnUse">
<stop stop-color="#4F52FF"/>
<stop offset="1" stop-color="#4042E2"/>
</linearGradient>
<linearGradient id="paint8_linear_298_444" x1="149.378" y1="177.965" x2="141.924" y2="177.965" gradientUnits="userSpaceOnUse">
<stop stop-color="#09005D"/>
<stop offset="1" stop-color="#1A0F91"/>
</linearGradient>
<linearGradient id="paint9_linear_298_444" x1="147.305" y1="169.478" x2="148.729" y2="181.906" gradientUnits="userSpaceOnUse">
<stop stop-color="#A22B25"/>
<stop offset="1" stop-color="#C0423C"/>
</linearGradient>
<linearGradient id="paint10_linear_298_444" x1="138.027" y1="178.155" x2="127.297" y2="178.155" gradientUnits="userSpaceOnUse">
<stop stop-color="#09005D"/>
<stop offset="1" stop-color="#1A0F91"/>
</linearGradient>
<linearGradient id="paint11_linear_298_444" x1="137.12" y1="170.102" x2="137.798" y2="182.615" gradientUnits="userSpaceOnUse">
<stop stop-color="#A22B25"/>
<stop offset="1" stop-color="#C0423C"/>
</linearGradient>
<linearGradient id="paint12_linear_298_444" x1="137.867" y1="181.202" x2="152.606" y2="110.922" gradientUnits="userSpaceOnUse">
<stop stop-color="#09005D"/>
<stop offset="1" stop-color="#1A0F91"/>
</linearGradient>
<linearGradient id="paint13_linear_298_444" x1="-822.947" y1="-696.151" x2="-790.059" y2="-668.854" gradientUnits="userSpaceOnUse">
<stop stop-color="#FF928E"/>
<stop offset="1" stop-color="#FE7062"/>
</linearGradient>
<linearGradient id="paint14_linear_298_444" x1="144.934" y1="104.769" x2="139.014" y2="134.59" gradientUnits="userSpaceOnUse">
<stop stop-color="#FEBBBA"/>
<stop offset="1" stop-color="#FF928E"/>
</linearGradient>
<linearGradient id="paint15_linear_298_444" x1="137.46" y1="97.0961" x2="141.406" y2="77.069" gradientUnits="userSpaceOnUse">
<stop stop-color="#A22B25"/>
<stop offset="1" stop-color="#C0423C"/>
</linearGradient>
<linearGradient id="paint16_linear_298_444" x1="27.2332" y1="-318.213" x2="40.3895" y2="-270.412" gradientUnits="userSpaceOnUse">
<stop stop-color="#FF928E"/>
<stop offset="1" stop-color="#FE7062"/>
</linearGradient>
<linearGradient id="paint17_linear_298_444" x1="25.5294" y1="-317.745" x2="38.6857" y2="-269.943" gradientUnits="userSpaceOnUse">
<stop stop-color="#FF928E"/>
<stop offset="1" stop-color="#FE7062"/>
</linearGradient>
<linearGradient id="paint18_linear_298_444" x1="-139.334" y1="-618.617" x2="-133.487" y2="-603.707" gradientUnits="userSpaceOnUse">
<stop stop-color="#A22B25"/>
<stop offset="1" stop-color="#C0423C"/>
</linearGradient>
<linearGradient id="paint19_linear_298_444" x1="141.103" y1="78.3367" x2="132.071" y2="89.9644" gradientUnits="userSpaceOnUse">
<stop stop-color="#09005D"/>
<stop offset="1" stop-color="#1A0F91"/>
</linearGradient>
<linearGradient id="paint20_linear_298_444" x1="-136.551" y1="-619.707" x2="-130.704" y2="-604.797" gradientUnits="userSpaceOnUse">
<stop stop-color="#A22B25"/>
<stop offset="1" stop-color="#C0423C"/>
</linearGradient>
<linearGradient id="paint21_linear_298_444" x1="112.528" y1="87.5415" x2="133.06" y2="105.277" gradientUnits="userSpaceOnUse">
<stop stop-color="#A22B25"/>
<stop offset="1" stop-color="#C0423C"/>
</linearGradient>
<linearGradient id="paint22_linear_298_444" x1="124.523" y1="93.0778" x2="119.589" y2="132.874" gradientUnits="userSpaceOnUse">
<stop stop-color="#A22B25"/>
<stop offset="1" stop-color="#C0423C"/>
</linearGradient>
<linearGradient id="paint23_linear_298_444" x1="111.768" y1="88.4218" x2="132.3" y2="106.157" gradientUnits="userSpaceOnUse">
<stop stop-color="#A22B25"/>
<stop offset="1" stop-color="#C0423C"/>
</linearGradient>
<linearGradient id="paint24_linear_298_444" x1="104.321" y1="40.8785" x2="118.829" y2="131.626" gradientUnits="userSpaceOnUse">
<stop stop-color="#E1473D"/>
<stop offset="1" stop-color="#E9605A"/>
</linearGradient>
<linearGradient id="paint25_linear_298_444" x1="73.9805" y1="102.896" x2="120.65" y2="115.107" gradientUnits="userSpaceOnUse">
<stop stop-color="#FF928E"/>
<stop offset="1" stop-color="#FE7062"/>
</linearGradient>
<linearGradient id="paint26_linear_298_444" x1="95.1996" y1="75.8688" x2="164.178" y2="119.539" gradientUnits="userSpaceOnUse">
<stop stop-color="#FF9085"/>
<stop offset="1" stop-color="#FB6FBB"/>
</linearGradient>
<linearGradient id="paint27_linear_298_444" x1="96.7613" y1="87.2542" x2="135.56" y2="120.012" gradientUnits="userSpaceOnUse">
<stop stop-color="#FEBBBA"/>
<stop offset="1" stop-color="#FF928E"/>
</linearGradient>
<linearGradient id="paint28_linear_298_444" x1="113.458" y1="66.6185" x2="96.7941" y2="174.061" gradientUnits="userSpaceOnUse">
<stop stop-color="#FF928E"/>
<stop offset="1" stop-color="#FE7062"/>
</linearGradient>
<linearGradient id="paint29_linear_298_444" x1="168.851" y1="71.051" x2="149.118" y2="86.509" gradientUnits="userSpaceOnUse">
<stop stop-color="#A22B25"/>
<stop offset="1" stop-color="#C0423C"/>
</linearGradient>
<linearGradient id="paint30_linear_298_444" x1="152.694" y1="85.1465" x2="195.144" y2="131.568" gradientUnits="userSpaceOnUse">
<stop stop-color="#09005D"/>
<stop offset="1" stop-color="#1A0F91"/>
</linearGradient>
<linearGradient id="paint31_linear_298_444" x1="215.976" y1="63.1105" x2="183.087" y2="90.4081" gradientUnits="userSpaceOnUse">
<stop stop-color="#FF928E"/>
<stop offset="1" stop-color="#FE7062"/>
</linearGradient>
<linearGradient id="paint32_linear_298_444" x1="156.725" y1="100.646" x2="159.858" y2="93.3776" gradientUnits="userSpaceOnUse">
<stop stop-color="#FEBBBA"/>
<stop offset="1" stop-color="#FF928E"/>
</linearGradient>
<linearGradient id="paint33_linear_298_444" x1="156.274" y1="83.1123" x2="163.099" y2="97.2823" gradientUnits="userSpaceOnUse">
<stop stop-color="#FEBBBA"/>
<stop offset="1" stop-color="#FF928E"/>
</linearGradient>
<linearGradient id="paint34_linear_298_444" x1="159.232" y1="80.8279" x2="205.13" y2="131.019" gradientUnits="userSpaceOnUse">
<stop stop-color="#09005D"/>
<stop offset="1" stop-color="#1A0F91"/>
</linearGradient>
<linearGradient id="paint35_linear_298_444" x1="159.354" y1="81.6288" x2="166.178" y2="95.7988" gradientUnits="userSpaceOnUse">
<stop stop-color="#FEBBBA"/>
<stop offset="1" stop-color="#FF928E"/>
</linearGradient>
<linearGradient id="paint36_linear_298_444" x1="177.134" y1="191.558" x2="152.073" y2="148.335" gradientUnits="userSpaceOnUse">
<stop stop-color="#FEBBBA"/>
<stop offset="1" stop-color="#FF928E"/>
</linearGradient>
<linearGradient id="paint37_linear_298_444" x1="171.612" y1="176.243" x2="164.414" y2="176.315" gradientUnits="userSpaceOnUse">
<stop stop-color="#09005D"/>
<stop offset="1" stop-color="#1A0F91"/>
</linearGradient>
<linearGradient id="paint38_linear_298_444" x1="148.906" y1="159.679" x2="185.853" y2="171.087" gradientUnits="userSpaceOnUse">
<stop stop-color="#FEBBBA"/>
<stop offset="1" stop-color="#FF928E"/>
</linearGradient>
<linearGradient id="paint39_linear_298_444" x1="164.951" y1="177.61" x2="156.371" y2="177.695" gradientUnits="userSpaceOnUse">
<stop stop-color="#09005D"/>
<stop offset="1" stop-color="#1A0F91"/>
</linearGradient>
<linearGradient id="paint40_linear_298_444" x1="158.574" y1="137.484" x2="170.743" y2="117.422" gradientUnits="userSpaceOnUse">
<stop stop-color="#E1473D"/>
<stop offset="1" stop-color="#E9605A"/>
</linearGradient>
<linearGradient id="paint41_linear_298_444" x1="174.401" y1="121.672" x2="139.099" y2="70.9201" gradientUnits="userSpaceOnUse">
<stop stop-color="#FEBBBA"/>
<stop offset="1" stop-color="#FF928E"/>
</linearGradient>
<linearGradient id="paint42_linear_298_444" x1="118.921" y1="137.585" x2="127.821" y2="149.885" gradientUnits="userSpaceOnUse">
<stop stop-color="#FEBBBA"/>
<stop offset="1" stop-color="#FF928E"/>
</linearGradient>
<linearGradient id="paint43_linear_298_444" x1="119.3" y1="138.581" x2="128.99" y2="151.974" gradientUnits="userSpaceOnUse">
<stop stop-color="#FEBBBA"/>
<stop offset="1" stop-color="#FF928E"/>
</linearGradient>
<linearGradient id="paint44_linear_298_444" x1="114.823" y1="133.713" x2="116.637" y2="133.713" gradientUnits="userSpaceOnUse">
<stop stop-color="#FF928E"/>
<stop offset="1" stop-color="#FE7062"/>
</linearGradient>
<linearGradient id="paint45_linear_298_444" x1="120.475" y1="125.237" x2="127.473" y2="131.411" gradientUnits="userSpaceOnUse">
<stop stop-color="#09005D"/>
<stop offset="1" stop-color="#1A0F91"/>
</linearGradient>
<linearGradient id="paint46_linear_298_444" x1="138.698" y1="133.149" x2="133.132" y2="132.126" gradientUnits="userSpaceOnUse">
<stop stop-color="#09005D"/>
<stop offset="1" stop-color="#1A0F91"/>
</linearGradient>
<linearGradient id="paint47_linear_298_444" x1="-123.585" y1="-119.899" x2="-97.3776" y2="-93.4025" gradientUnits="userSpaceOnUse">
<stop stop-color="#09005D"/>
<stop offset="1" stop-color="#1A0F91"/>
</linearGradient>
<linearGradient id="paint48_linear_298_444" x1="126.662" y1="178.337" x2="121.223" y2="178.337" gradientUnits="userSpaceOnUse">
<stop stop-color="#E1473D"/>
<stop offset="1" stop-color="#E9605A"/>
</linearGradient>
<linearGradient id="paint49_linear_298_444" x1="133.547" y1="180.1" x2="130.522" y2="180.1" gradientUnits="userSpaceOnUse">
<stop stop-color="#E1473D"/>
<stop offset="1" stop-color="#E9605A"/>
</linearGradient>
<linearGradient id="paint50_linear_298_444" x1="130.07" y1="145.763" x2="129.632" y2="141.314" gradientUnits="userSpaceOnUse">
<stop stop-color="#FEBBBA"/>
<stop offset="1" stop-color="#FF928E"/>
</linearGradient>
<linearGradient id="paint51_linear_298_444" x1="110.469" y1="99.8669" x2="92.146" y2="43.7519" gradientUnits="userSpaceOnUse">
<stop stop-color="#FEBBBA"/>
<stop offset="1" stop-color="#FF928E"/>
</linearGradient>
<linearGradient id="paint52_linear_298_444" x1="104.989" y1="101.656" x2="86.666" y2="45.541" gradientUnits="userSpaceOnUse">
<stop stop-color="#FEBBBA"/>
<stop offset="1" stop-color="#FF928E"/>
</linearGradient>
<linearGradient id="paint53_linear_298_444" x1="146.935" y1="163.766" x2="132.247" y2="143.585" gradientUnits="userSpaceOnUse">
<stop stop-color="#FEBBBA"/>
<stop offset="1" stop-color="#FF928E"/>
</linearGradient>
<linearGradient id="paint54_linear_298_444" x1="221.054" y1="69.228" x2="188.165" y2="96.5256" gradientUnits="userSpaceOnUse">
<stop stop-color="#FF928E"/>
<stop offset="1" stop-color="#FE7062"/>
</linearGradient>
<linearGradient id="paint55_linear_298_444" x1="227.821" y1="77.381" x2="194.932" y2="104.679" gradientUnits="userSpaceOnUse">
<stop stop-color="#FF928E"/>
<stop offset="1" stop-color="#FE7062"/>
</linearGradient>
<linearGradient id="paint56_linear_298_444" x1="222.589" y1="71.0785" x2="189.7" y2="98.3768" gradientUnits="userSpaceOnUse">
<stop stop-color="#E1473D"/>
<stop offset="1" stop-color="#E9605A"/>
</linearGradient>
<linearGradient id="paint57_linear_298_444" x1="130.256" y1="138.046" x2="131.165" y2="129.003" gradientUnits="userSpaceOnUse">
<stop stop-color="#FEBBBA"/>
<stop offset="1" stop-color="#FF928E"/>
</linearGradient>
<linearGradient id="paint58_linear_298_444" x1="121.948" y1="139.707" x2="122.939" y2="131.097" gradientUnits="userSpaceOnUse">
<stop stop-color="#FEBBBA"/>
<stop offset="1" stop-color="#FF928E"/>
</linearGradient>
<linearGradient id="paint59_linear_298_444" x1="130.07" y1="140.641" x2="131.061" y2="132.031" gradientUnits="userSpaceOnUse">
<stop stop-color="#FEBBBA"/>
<stop offset="1" stop-color="#FF928E"/>
</linearGradient>
<linearGradient id="paint60_linear_298_444" x1="-122.871" y1="-120.604" x2="-96.6647" y2="-94.108" gradientUnits="userSpaceOnUse">
<stop stop-color="#09005D"/>
<stop offset="1" stop-color="#1A0F91"/>
</linearGradient>
<linearGradient id="paint61_linear_298_444" x1="52.9478" y1="252.122" x2="50.3375" y2="201.815" gradientUnits="userSpaceOnUse">
<stop stop-color="#09005D"/>
<stop offset="1" stop-color="#1A0F91"/>
</linearGradient>
<linearGradient id="paint62_linear_298_444" x1="50.4164" y1="169.964" x2="49.0304" y2="182.063" gradientUnits="userSpaceOnUse">
<stop stop-color="#FEBBBA"/>
<stop offset="1" stop-color="#FF928E"/>
</linearGradient>
<linearGradient id="paint63_linear_298_444" x1="66.6513" y1="202.082" x2="69.2615" y2="151.775" gradientUnits="userSpaceOnUse">
<stop stop-color="#09005D"/>
<stop offset="1" stop-color="#1A0F91"/>
</linearGradient>
<linearGradient id="paint64_linear_298_444" x1="65.0203" y1="171.512" x2="63.7233" y2="182.83" gradientUnits="userSpaceOnUse">
<stop stop-color="#FEBBBA"/>
<stop offset="1" stop-color="#FF928E"/>
</linearGradient>
<linearGradient id="paint65_linear_298_444" x1="79.0312" y1="90.9617" x2="49.8405" y2="176.396" gradientUnits="userSpaceOnUse">
<stop stop-color="#E1473D"/>
<stop offset="1" stop-color="#E9605A"/>
</linearGradient>
<linearGradient id="paint66_linear_298_444" x1="60.0541" y1="110.694" x2="26.7149" y2="126.982" gradientUnits="userSpaceOnUse">
<stop stop-color="#09005D"/>
<stop offset="1" stop-color="#1A0F91"/>
</linearGradient>
<linearGradient id="paint67_linear_298_444" x1="51.4048" y1="93.2676" x2="57.6217" y2="93.2676" gradientUnits="userSpaceOnUse">
<stop stop-color="#FEBBBA"/>
<stop offset="1" stop-color="#FF928E"/>
</linearGradient>
<linearGradient id="paint68_linear_298_444" x1="576.087" y1="-385.063" x2="584.399" y2="-392.623" gradientUnits="userSpaceOnUse">
<stop stop-color="#FEBBBA"/>
<stop offset="1" stop-color="#FF928E"/>
</linearGradient>
<linearGradient id="paint69_linear_298_444" x1="50.0139" y1="86.7562" x2="59.8853" y2="81.3719" gradientUnits="userSpaceOnUse">
<stop stop-color="#09005D"/>
<stop offset="1" stop-color="#1A0F91"/>
</linearGradient>
<linearGradient id="paint70_linear_298_444" x1="574.994" y1="-386.267" x2="583.305" y2="-393.827" gradientUnits="userSpaceOnUse">
<stop stop-color="#FEBBBA"/>
<stop offset="1" stop-color="#FF928E"/>
</linearGradient>
<linearGradient id="paint71_linear_298_444" x1="58.2286" y1="106.958" x2="24.8895" y2="123.246" gradientUnits="userSpaceOnUse">
<stop stop-color="#09005D"/>
<stop offset="1" stop-color="#1A0F91"/>
</linearGradient>
<linearGradient id="paint72_linear_298_444" x1="52.9181" y1="124.99" x2="41.8553" y2="134.439" gradientUnits="userSpaceOnUse">
<stop stop-color="#FEBBBA"/>
<stop offset="1" stop-color="#FF928E"/>
</linearGradient>
<linearGradient id="paint73_linear_298_444" x1="59.8734" y1="110.324" x2="26.5336" y2="126.612" gradientUnits="userSpaceOnUse">
<stop stop-color="#09005D"/>
<stop offset="1" stop-color="#1A0F91"/>
</linearGradient>
<linearGradient id="paint74_linear_298_444" x1="77.4685" y1="109.447" x2="101.15" y2="101.335" gradientUnits="userSpaceOnUse">
<stop stop-color="#FEBBBA"/>
<stop offset="1" stop-color="#FF928E"/>
</linearGradient>
<linearGradient id="paint75_linear_298_444" x1="77.4363" y1="109.354" x2="101.117" y2="101.241" gradientUnits="userSpaceOnUse">
<stop stop-color="#FEBBBA"/>
<stop offset="1" stop-color="#FF928E"/>
</linearGradient>
</defs>
</svg>
