<svg width="247" height="184" viewBox="0 0 247 184" fill="none" xmlns="http://www.w3.org/2000/svg">
<path d="M246.35 161.31H0V161.433H246.35V161.31Z" fill="#D1E3FF"/>
<path d="M199.795 166.67H189.675V166.793H199.795V166.67Z" fill="#D1E3FF"/>
<path d="M209.659 166.606H203.406V166.729H209.659V166.606Z" fill="#D1E3FF"/>
<path d="M155.546 166.606H136.424V166.729H155.546V166.606Z" fill="#D1E3FF"/>
<path d="M99.363 168.769H75.9795V168.892H99.363V168.769Z" fill="#D1E3FF"/>
<path d="M50.5068 164.872H47.0234V164.995H50.5068V164.872Z" fill="#D1E3FF"/>
<path d="M80.0933 164.872H53.2461V164.995H80.0933V164.872Z" fill="#D1E3FF"/>
<path d="M48.7676 167.848H34.6616V167.971H48.7676V167.848Z" fill="#D1E3FF"/>
<path d="M116.77 139.335H21.6343C20.889 139.334 20.1747 139.037 19.6482 138.51C19.1217 137.982 18.8259 137.267 18.8259 136.522V2.78868C18.8324 2.04767 19.131 1.33915 19.6568 0.817003C20.1827 0.29486 20.8933 0.00126938 21.6343 0H116.77C117.516 0 118.231 0.296402 118.759 0.824C119.287 1.3516 119.583 2.06717 119.583 2.81331V136.522C119.583 137.268 119.287 137.984 118.759 138.511C118.231 139.039 117.516 139.335 116.77 139.335ZM21.6343 0.0985402C20.9217 0.0998454 20.2387 0.383845 19.7353 0.888202C19.2319 1.39256 18.9491 2.07606 18.9491 2.78868V136.522C18.9491 137.235 19.2319 137.918 19.7353 138.422C20.2387 138.927 20.9217 139.211 21.6343 139.212H116.77C117.483 139.211 118.166 138.927 118.671 138.423C119.175 137.919 119.459 137.235 119.46 136.522V2.78868C119.459 2.07561 119.175 1.39212 118.671 0.887901C118.166 0.383685 117.483 0.0998426 116.77 0.0985402H21.6343Z" fill="#D1E3FF"/>
<path d="M223.346 139.335H128.205C127.46 139.334 126.745 139.037 126.218 138.51C125.69 137.983 125.393 137.268 125.392 136.522V2.78868C125.4 2.04722 125.7 1.3387 126.226 0.816695C126.753 0.294688 127.464 0.00125554 128.205 0H223.346C224.086 0.00256425 224.795 0.296728 225.32 0.818732C225.845 1.34074 226.143 2.04852 226.149 2.78868V136.522C226.149 137.266 225.854 137.981 225.329 138.508C224.803 139.035 224.09 139.333 223.346 139.335ZM128.205 0.0985402C127.492 0.0998426 126.809 0.383685 126.305 0.887901C125.8 1.39212 125.517 2.07561 125.515 2.78868V136.522C125.517 137.235 125.8 137.919 126.305 138.423C126.809 138.927 127.492 139.211 128.205 139.212H223.346C224.059 139.211 224.742 138.927 225.247 138.423C225.751 137.919 226.035 137.235 226.036 136.522V2.78868C226.035 2.07561 225.751 1.39212 225.247 0.887901C224.742 0.383685 224.059 0.0998426 223.346 0.0985402H128.205Z" fill="#D1E3FF"/>
<path d="M38.0513 161.31H27.9263C27.9263 161.31 21.6789 155.772 19.6637 148.342C18.7227 144.918 23.3294 142.558 26.1132 145.001C32.6266 150.727 38.0513 161.31 38.0513 161.31Z" fill="#E3EEFF"/>
<path d="M42.3129 161.31H32.1879C32.1879 161.31 26.3987 149.416 28.6355 140.759C28.809 140.081 29.1632 139.462 29.6605 138.969C30.1578 138.475 30.7795 138.126 31.4595 137.958C32.1394 137.791 32.8522 137.81 33.5219 138.015C34.1916 138.221 34.7931 138.604 35.2623 139.123C42.9189 147.549 42.3129 161.31 42.3129 161.31Z" fill="#E3EEFF"/>
<path d="M42.3228 161.31H48.8609C48.8609 161.31 52.9601 154.082 56.8081 145.198C60.3999 136.916 54.2806 133.457 50.4375 141.597C45.5499 151.953 42.3228 161.31 42.3228 161.31Z" fill="#E3EEFF"/>
<path d="M44.1113 161.31H54.2363C54.2363 161.31 64.4303 156.486 63.8637 147.356C63.7109 144.967 60.9814 143.415 58.5622 144.341C47.6933 148.509 44.1113 161.31 44.1113 161.31Z" fill="#E3EEFF"/>
<path d="M38.4305 161.31H48.5506C48.5506 161.31 51.6102 144.42 47.984 133.783C46.9 130.605 43.057 130.048 41.2734 132.797C34.6761 143.085 38.4305 161.31 38.4305 161.31Z" fill="#E3EEFF"/>
<path d="M105.492 71.4414L134.014 48.792L217.157 75.5456H105.492V71.4414Z" fill="#D1E3FF"/>
<path d="M166.153 161.31H213.669V79.6547H166.153V161.31Z" fill="#E3EEFF"/>
<path d="M201.431 161.31H192.291C192.291 161.31 186.66 156.875 184.827 150.884C183.984 148.13 188.138 146.228 190.65 148.194C196.533 152.801 201.431 161.31 201.431 161.31Z" fill="#F5FCFF"/>
<path d="M205.283 161.31H196.139C196.139 161.31 190.911 151.746 192.931 144.785C193.631 142.37 197.031 141.626 198.913 143.469C205.83 150.244 205.283 161.31 205.283 161.31Z" fill="#F5FCFF"/>
<path d="M205.293 161.31H211.206C213.818 157.116 216.216 152.793 218.389 148.357C221.631 141.695 216.103 138.912 212.635 145.46C209.911 150.61 207.46 155.901 205.293 161.31Z" fill="#F5FCFF"/>
<path d="M206.904 161.31H216.049C216.049 161.31 225.257 157.432 224.74 150.091C224.607 148.169 222.139 146.923 219.956 147.667C210.141 151.017 206.904 161.31 206.904 161.31Z" fill="#F5FCFF"/>
<path d="M201.775 161.31H210.915C210.915 161.31 213.679 147.731 210.422 139.173C210.193 138.592 209.812 138.084 209.32 137.701C208.827 137.317 208.241 137.073 207.622 136.994C207.003 136.914 206.374 137.002 205.801 137.249C205.227 137.495 204.73 137.891 204.362 138.394C198.386 146.652 201.775 161.31 201.775 161.31Z" fill="#F5FCFF"/>
<path d="M166.148 79.6547H213.669L217.158 75.5456H166.148V79.6547Z" fill="#D1E3FF"/>
<path d="M192.675 86.449H145.243V126.141H192.675V86.449Z" fill="#D1E3FF"/>
<path d="M190.448 123.633V88.9519H147.475V123.633H190.448Z" fill="#F5FCFF"/>
<path d="M191.759 104.61H146.169V107.97H191.759V104.61Z" fill="#D1E3FF"/>
<path d="M166.149 65.4551H44.8359V161.305H166.149V65.4551Z" fill="#F3F8FF"/>
<path d="M110.986 82.5518H54.2363V130.038H110.986V82.5518Z" fill="#E3EEFF"/>
<path d="M108.315 127.042V85.5474H56.9017V127.042H108.315Z" fill="white"/>
<path d="M108.32 118.47V85.5424H56.9071V118.47H108.32Z" fill="#F5FCFF"/>
<path d="M109.882 116.459H55.3398V120.48H109.882V116.459Z" fill="#E3EEFF"/>
<path d="M123.983 149.559H156.408V80.6154H123.983V149.559Z" fill="#D1E3FF"/>
<path d="M154.698 149.559V82.1822H125.688V149.559H154.698Z" fill="#E3EEFF"/>
<path d="M152.131 111.355V84.8822H128.245V111.355H152.131Z" fill="#D2E4FF"/>
<path d="M152.136 141.878V115.405H128.25V141.878H152.136Z" fill="#D2E4FF"/>
<path d="M168.119 72.1361H42.8647V63.4843L105.492 30.8578L168.119 63.4843V72.1361Z" fill="#E3EEFF"/>
<path d="M173.657 68.0368L105.492 32.528L37.3272 68.0368L35.9624 65.4157L105.492 29.1924L175.022 65.4157L173.657 68.0368Z" fill="#D1E3FF"/>
<path d="M105.492 66.3814C102.824 66.3823 100.215 65.592 97.9961 64.1103C95.777 62.6286 94.0472 60.522 93.0254 58.0571C92.0036 55.5922 91.7357 52.8796 92.2557 50.2625C92.7756 47.6453 94.0601 45.2412 95.9465 43.3541C97.8329 41.4669 100.237 40.1816 102.854 39.6607C105.471 39.1398 108.183 39.4067 110.649 40.4276C113.114 41.4485 115.221 43.1775 116.703 45.3961C118.186 47.6146 118.977 50.223 118.977 52.8913C118.973 56.467 117.552 59.8953 115.024 62.4241C112.496 64.953 109.068 66.3762 105.492 66.3814ZM105.492 42.3623C103.408 42.3613 101.371 42.9784 99.6379 44.1355C97.9049 45.2926 96.554 46.9377 95.7561 48.8628C94.9582 50.7878 94.7491 52.9062 95.1554 54.95C95.5617 56.9939 96.5651 58.8713 98.0386 60.3448C99.5121 61.8183 101.39 62.8216 103.433 63.2279C105.477 63.6342 107.596 63.4252 109.521 62.6273C111.446 61.8294 113.091 60.4785 114.248 58.7454C115.405 57.0124 116.022 54.9751 116.021 52.8913C116.015 50.1017 114.903 47.4284 112.929 45.4568C110.956 43.4852 108.282 42.376 105.492 42.3721V42.3623Z" fill="#D1E3FF"/>
<path d="M105.492 62.7107C110.915 62.7107 115.311 58.3144 115.311 52.8912C115.311 47.4681 110.915 43.0717 105.492 43.0717C100.069 43.0717 95.6724 47.4681 95.6724 52.8912C95.6724 58.3144 100.069 62.7107 105.492 62.7107Z" fill="#F5FCFF"/>
<path d="M160.566 148.411H119.82V150.525H160.566V148.411Z" fill="#E3EEFF"/>
<path d="M159.635 150.529H120.751V154.86H159.635V150.529Z" fill="#D1E3FF"/>
<path d="M163.66 154.86H116.726V156.974H163.66V154.86Z" fill="#E3EEFF"/>
<path d="M162.586 156.974H117.8V161.305H162.586V156.974Z" fill="#D1E3FF"/>
<path d="M153.107 111.749C153.107 112.103 153.002 112.449 152.805 112.743C152.609 113.037 152.33 113.266 152.003 113.401C151.676 113.537 151.316 113.572 150.969 113.503C150.622 113.434 150.304 113.264 150.054 113.014C149.803 112.764 149.633 112.445 149.564 112.098C149.495 111.751 149.531 111.391 149.666 111.065C149.801 110.738 150.031 110.459 150.325 110.262C150.619 110.066 150.965 109.961 151.318 109.961C151.793 109.961 152.248 110.149 152.583 110.484C152.918 110.82 153.107 111.275 153.107 111.749Z" fill="white"/>
<path d="M36.2727 17.4415C33.415 11.268 35.6863 6.86823 42.6778 6.86823C47.0579 6.86823 52.4874 8.60252 57.779 11.4158C58.3752 9.80964 60.0602 8.84887 62.7701 8.84887C67.5345 8.84887 74.1022 11.8051 79.2558 16.0176C80.5023 15.0864 82.3056 14.51 84.6262 14.4213C89.1788 14.2291 94.7069 15.9388 99.5255 18.7226C100.097 18.1871 100.857 17.9001 101.639 17.9244C104.27 17.816 107.827 19.5404 109.591 21.7724C109.705 21.9153 109.803 22.0483 109.897 22.1862H32.7252C30.2863 19.9888 32.9814 17.5499 36.2727 17.4415Z" fill="#F3F8FF"/>
<path d="M137.148 27.9016C137.367 27.8776 137.588 27.8661 137.808 27.8671C137.606 25.576 138.793 24.1127 141.326 24.1127C143.159 24.1127 145.401 24.8764 147.687 26.1673C147.036 21.733 149.13 18.831 153.875 18.831C157.703 18.831 162.551 20.7131 167.341 23.758C167.759 22.0138 169.173 20.9693 171.543 20.9693C175.707 20.9693 181.624 24.1965 186.369 28.7539C187.393 27.739 188.931 27.1132 190.956 27.0098C194.922 26.8078 199.824 28.6603 204.209 31.6855C204.416 31.4048 204.689 31.1791 205.003 31.028C205.318 30.8768 205.664 30.8049 206.013 30.8183C208.18 30.705 211.166 32.3753 212.91 34.6072H133.66C131.797 31.2421 133.28 28.2809 137.148 27.9016Z" fill="#F3F8FF"/>
<path d="M123.175 183.56C175.935 183.56 218.705 181.063 218.705 177.983C218.705 174.902 175.935 172.405 123.175 172.405C70.4156 172.405 27.6455 174.902 27.6455 177.983C27.6455 181.063 70.4156 183.56 123.175 183.56Z" fill="#F0F6FF"/>
<path d="M150.593 31.2853L149.995 29.8319C149.896 29.5903 149.619 29.4751 149.378 29.5745L120.828 41.3241C120.587 41.4236 120.471 41.7 120.571 41.9416L121.169 43.395C121.268 43.6366 121.545 43.7518 121.786 43.6524L150.336 31.9027C150.577 31.8033 150.693 31.5269 150.593 31.2853Z" fill="#B3CDFF"/>
<path d="M144.091 34.4698L143.132 32.1416L140.959 33.036L141.917 35.3642L144.091 34.4698Z" fill="#6EA5F4"/>
<path d="M149.775 34.4093L147.215 28.1901C146.64 26.791 145.039 26.1236 143.64 26.6994L143.343 26.8213C141.944 27.3971 141.277 28.9981 141.853 30.3972L144.412 36.6164C144.988 38.0155 146.589 38.6829 147.988 38.1071L148.284 37.9852C149.683 37.4094 150.351 35.8084 149.775 34.4093Z" fill="#0053CC"/>
<path d="M135.808 173.534H132.221L131.265 165.217H134.857L135.808 173.534Z" fill="#FF8B7B"/>
<path d="M161.073 173.534H157.482L154.683 165.217H158.275L161.073 173.534Z" fill="#FF8B7B"/>
<path d="M157.003 173.115H161.379C161.45 173.114 161.52 173.139 161.575 173.184C161.631 173.228 161.669 173.291 161.684 173.361L162.394 176.554C162.41 176.631 162.408 176.711 162.39 176.788C162.371 176.864 162.335 176.936 162.285 176.997C162.235 177.058 162.172 177.107 162.1 177.14C162.028 177.174 161.95 177.19 161.871 177.189C160.462 177.165 159.408 177.086 157.659 177.086C156.57 177.086 154.323 177.199 152.815 177.199C151.308 177.199 151.111 175.721 151.727 175.573C154.496 174.967 155.535 174.135 156.422 173.336C156.582 173.193 156.789 173.114 157.003 173.115Z" fill="#14365B"/>
<path d="M132.245 173.115H136.187C136.258 173.116 136.327 173.141 136.382 173.186C136.437 173.23 136.476 173.292 136.492 173.361L137.202 176.554C137.219 176.631 137.219 176.711 137.2 176.787C137.182 176.864 137.147 176.936 137.097 176.997C137.047 177.058 136.984 177.107 136.913 177.14C136.842 177.174 136.763 177.191 136.685 177.189C135.271 177.165 133.236 177.086 131.447 177.086C129.368 177.086 127.575 177.199 125.136 177.199C123.658 177.199 123.254 175.721 123.874 175.573C126.683 174.957 128.974 174.893 131.398 173.396C131.65 173.227 131.943 173.13 132.245 173.115Z" fill="#14365B"/>
<path d="M133.236 70.4166C132.64 69.9239 132.117 69.4607 131.585 68.9385C131.053 68.4162 130.536 67.9531 130.023 67.4604C128.999 66.4405 128.008 65.3861 127.067 64.2824C126.126 63.1788 125.21 62.021 124.348 60.804L123.717 59.8728L123.121 58.8874C122.919 58.5721 122.741 58.2124 122.554 57.8724L122.278 57.3551C122.18 57.1482 122.081 56.9462 121.992 56.7343C121.315 55.0823 121.064 53.2862 121.263 51.5117C121.449 49.9087 121.888 48.3454 122.564 46.8803C123.189 45.5047 123.952 44.1957 124.84 42.9732C125.274 42.3721 125.737 41.7957 126.21 41.234C126.692 40.664 127.203 40.1196 127.742 39.6031L129.762 41.3867C129.432 41.8794 129.063 42.4805 128.733 43.0422C128.402 43.6039 128.092 44.1951 127.801 44.7814C127.221 45.9216 126.736 47.1082 126.353 48.3288C125.609 50.7037 125.535 53.0637 126.437 54.7339C126.486 54.8423 126.55 54.9409 126.609 55.0443L126.855 55.4336C127.028 55.6898 127.171 55.9509 127.348 56.2022L127.895 56.9708L128.486 57.7345C129.289 58.7199 130.152 59.7053 131.053 60.6907C131.955 61.6761 132.901 62.6122 133.857 63.5434C134.812 64.4746 135.827 65.4107 136.759 66.268L133.236 70.4166Z" fill="#FF8B7B"/>
<path d="M138.055 72.949C134.699 73.6684 126.254 66.2089 126.254 66.2089L131.181 59.6856C131.181 59.6856 136.163 63.7799 140.38 65.1742C144.696 66.608 141.74 72.1558 138.055 72.949Z" fill="#14365B"/>
<path d="M126.377 42.2884L126.791 39.2533H131.511C131.511 39.2533 130.354 43.8502 127.757 43.5447L126.377 42.2884Z" fill="#FF8B7B"/>
<path d="M127.856 37.0953L131.053 36.3415L131.512 39.2533H126.792L127.856 37.0953Z" fill="#FF8B7B"/>
<path d="M131.265 165.222L131.758 169.508H135.35L134.857 165.222H131.265Z" fill="#EA7063"/>
<path d="M158.28 165.222H154.688L156.127 169.508H159.718L158.28 165.222Z" fill="#EA7063"/>
<path d="M133.261 66.6425C133.261 66.6425 129.023 77.4819 133.049 97.6825H152.264C152.397 94.7263 150.544 80.3592 153.387 66.47C151.272 66.062 149.133 65.7905 146.982 65.6571C144.263 65.4993 141.537 65.4993 138.818 65.6571C136.943 65.8398 135.085 66.1693 133.261 66.6425Z" fill="#14365B"/>
<path d="M139.646 72.2297C138.084 72.1558 137.237 72.1706 136.867 72.1903H136.729C136.015 75.6145 135.281 81.4185 135.931 89.4348L141.124 89.5431C141.109 83.8045 141.512 78.0723 142.331 72.3923C141.538 72.3381 140.602 72.274 139.646 72.2297Z" fill="#45A2FF"/>
<path d="M146.135 56.4535C145.642 59.0795 145.11 63.8932 146.948 65.6423C144.988 67.3908 142.506 68.4438 139.887 68.6379C137.764 67.8693 138.153 66.5686 138.37 66.1449C138.546 65.8462 138.833 65.6286 139.168 65.5388C141.705 64.7456 141.631 62.6762 141.139 60.7301L146.135 56.4535Z" fill="#FF8B7B"/>
<path d="M144.095 58.1976L141.139 60.7301C141.265 61.2046 141.349 61.6893 141.39 62.1786C142.538 62.3265 144.085 61.1932 144.085 59.9172C144.134 59.3452 144.137 58.7702 144.095 58.1976Z" fill="#EA7063"/>
<path d="M136.478 48.8166C134.832 49.802 134.354 55.34 136.749 56.1628C139.143 56.9856 139.601 46.9641 136.478 48.8166Z" fill="#0F264C"/>
<path d="M139.651 51.7334C137.936 51.5166 132.556 51.9108 133.842 48.5062C135.128 45.1017 140.784 47.2055 141.233 48.8117C141.681 50.4179 142.647 52.1276 139.651 51.7334Z" fill="#0F264C"/>
<path d="M145.425 52.2261C145.686 55.7785 146.021 57.8429 144.489 59.8974C142.183 62.9817 137.616 61.9618 136.295 58.5573C135.108 55.4927 134.876 50.1814 138.133 48.3288C138.849 47.9121 139.66 47.6855 140.489 47.6705C141.317 47.6555 142.136 47.8527 142.866 48.2432C143.597 48.6338 144.216 49.2048 144.664 49.9019C145.112 50.599 145.374 51.3991 145.425 52.2261Z" fill="#FF8B7B"/>
<path d="M145.647 55.7243C143.893 56.7442 139.148 49.7084 144.731 48.1219C150.313 46.5354 148.49 54.0787 145.647 55.7243Z" fill="#0F264C"/>
<path d="M143.1 51.0584C140.809 50.3982 133.408 49.7823 135.882 45.4269C138.355 41.0714 145.608 45.1411 145.854 47.3977C146.1 49.6542 147.096 52.2261 143.1 51.0584Z" fill="#0F264C"/>
<path d="M143.405 49.7626C142.449 48.0185 138.478 43.2738 142.493 42.175C146.509 41.0763 148.406 47.7672 147.179 49.2502C145.952 50.7332 145.07 52.8124 143.405 49.7626Z" fill="#0F264C"/>
<path d="M147.091 48.59C147.516 47.2354 147.722 45.8216 147.702 44.402C148.224 45.2051 148.717 47.7918 147.091 48.59Z" fill="#0F264C"/>
<path d="M149.85 48.4176C148.78 48.2245 147.681 48.253 146.623 48.5013C147.105 47.8657 148.909 46.969 149.85 48.4176Z" fill="#0F264C"/>
<path d="M144.647 50.1617C145.667 51.1471 148.175 54.8177 149.702 52.2458C151.229 49.6739 146.982 47.1119 145.726 47.6588C144.47 48.2057 142.883 48.4274 144.647 50.1617Z" fill="#0F264C"/>
<path d="M147.544 55.9066C147.172 56.7211 146.494 57.3565 145.657 57.6754C144.543 58.0843 143.888 57.1088 144.12 56.0051C144.331 55.0197 145.159 53.6106 146.317 53.6747C146.57 53.693 146.813 53.7742 147.026 53.9109C147.24 54.0475 147.415 54.2354 147.537 54.4572C147.659 54.679 147.723 54.9279 147.725 55.181C147.726 55.4342 147.664 55.6836 147.544 55.9066Z" fill="#FF8B7B"/>
<path d="M133.029 97.6678C133.029 97.6678 122.904 123.323 123.293 134.27C123.702 145.657 130.393 168.676 130.393 168.676H136.478C136.478 168.676 134.014 146.332 134.271 135.138C134.566 122.948 145.672 97.6924 145.672 97.6924L133.029 97.6678Z" fill="#407BFF"/>
<path d="M141.114 106.147L141.7 107.468C139.569 112.953 137.719 118.545 136.158 124.219C135.985 117.755 137.33 110.611 141.114 106.147Z" fill="#2B6AD8"/>
<path d="M139.858 97.6678C139.858 97.6678 137.813 123.914 140.05 134.192C142.513 145.45 154.442 168.68 154.442 168.68H161.014C161.014 168.68 152.22 146.361 150.82 135.216C149.303 123.126 152.249 97.6727 152.249 97.6727L139.858 97.6678Z" fill="#407BFF"/>
<path d="M153.279 168.818H161.872V166.503L152.264 166.355L153.279 168.818Z" fill="#B3CDFF"/>
<path d="M129.053 168.818H137.651V166.478L128.043 166.355L129.053 168.818Z" fill="#B3CDFF"/>
<path d="M140.213 53.9555C140.252 54.2412 140.134 54.4925 139.947 54.5171C139.759 54.5418 139.572 54.3348 139.533 54.0244C139.493 53.714 139.616 53.4874 139.804 53.4628C139.991 53.4381 140.173 53.6648 140.213 53.9555Z" fill="#0F264C"/>
<path d="M136.97 54.394C137.01 54.6847 136.892 54.9359 136.704 54.9606C136.517 54.9852 136.33 54.7734 136.291 54.4679C136.251 54.1624 136.374 53.9259 136.562 53.9013C136.749 53.8766 136.931 54.1082 136.97 54.394Z" fill="#0F264C"/>
<path d="M138.02 54.3989C137.799 55.3228 137.451 56.2116 136.985 57.0398C137.2 57.153 137.437 57.2178 137.68 57.2297C137.922 57.2416 138.165 57.2004 138.39 57.1088L138.02 54.3989Z" fill="#FF5652"/>
<path d="M139.326 57.7887C139.305 57.789 139.284 57.7817 139.268 57.7681C139.251 57.7546 139.241 57.7356 139.237 57.7148C139.235 57.6922 139.242 57.6698 139.256 57.6516C139.269 57.6335 139.289 57.6209 139.311 57.6162C139.669 57.5759 140.013 57.4519 140.314 57.2542C140.615 57.0565 140.866 56.7906 141.045 56.4781C141.05 56.468 141.057 56.4589 141.065 56.4514C141.073 56.4439 141.083 56.4382 141.094 56.4345C141.104 56.4308 141.115 56.4293 141.127 56.43C141.138 56.4307 141.149 56.4337 141.159 56.4387C141.178 56.4492 141.193 56.4667 141.2 56.4877C141.208 56.5086 141.207 56.5316 141.198 56.552C141.007 56.8904 140.739 57.1788 140.415 57.3938C140.092 57.6087 139.722 57.744 139.336 57.7887H139.326Z" fill="#0F264C"/>
<path d="M141.026 52.7779C141.004 52.7765 140.982 52.7706 140.963 52.7604C140.943 52.7502 140.926 52.736 140.912 52.7188C140.765 52.5641 140.584 52.446 140.383 52.3741C140.182 52.3022 139.966 52.2785 139.754 52.305C139.71 52.3137 139.664 52.3047 139.626 52.2798C139.588 52.2549 139.562 52.2162 139.552 52.1719C139.547 52.1502 139.547 52.1277 139.551 52.1057C139.555 52.0838 139.564 52.063 139.576 52.0445C139.589 52.026 139.605 52.0103 139.624 51.9983C139.642 51.9863 139.663 51.9783 139.686 51.9748C139.953 51.9307 140.228 51.9524 140.486 52.0383C140.743 52.1241 140.976 52.2715 141.164 52.4675C141.18 52.4832 141.193 52.5019 141.202 52.5227C141.21 52.5434 141.215 52.5657 141.215 52.5883C141.215 52.6108 141.21 52.6331 141.202 52.6538C141.193 52.6746 141.18 52.6933 141.164 52.709C141.148 52.7304 141.127 52.7478 141.103 52.7597C141.079 52.7717 141.052 52.7779 141.026 52.7779Z" fill="#0F264C"/>
<path d="M135.374 53.4776H135.325C135.304 53.4708 135.284 53.46 135.267 53.4457C135.25 53.4314 135.236 53.4139 135.226 53.3942C135.216 53.3745 135.21 53.353 135.209 53.331C135.207 53.3089 135.209 53.2867 135.216 53.2657C135.293 53.0067 135.431 52.7701 135.619 52.5762C135.807 52.3822 136.039 52.2367 136.295 52.1522C136.317 52.1462 136.339 52.1446 136.361 52.1473C136.383 52.15 136.404 52.1571 136.424 52.1681C136.443 52.1791 136.46 52.1938 136.473 52.2114C136.487 52.2289 136.497 52.249 136.502 52.2704C136.508 52.2918 136.51 52.3141 136.507 52.3361C136.504 52.3581 136.497 52.3794 136.486 52.3986C136.475 52.4179 136.461 52.4347 136.443 52.4483C136.426 52.4618 136.405 52.4717 136.384 52.4774C136.183 52.549 136.001 52.667 135.854 52.822C135.706 52.9769 135.598 53.1644 135.537 53.3692C135.524 53.402 135.502 53.4301 135.473 53.4495C135.444 53.469 135.409 53.4788 135.374 53.4776Z" fill="#0F264C"/>
<path d="M154.979 70.1456C155.131 71.7912 155.2 73.358 155.255 74.9642C155.309 76.5704 155.299 78.1618 155.255 79.768C155.231 83.0849 154.844 86.3892 154.102 89.622C153.877 90.5139 153.578 91.3856 153.21 92.2283C153.126 92.4353 152.983 92.721 152.86 92.9329C152.737 93.1448 152.609 93.3665 152.486 93.5537C152.234 93.9528 151.993 94.3026 151.717 94.6426C150.714 95.935 149.642 97.1719 148.505 98.3477C146.305 100.636 143.98 102.799 141.538 104.827L139.611 102.945C141.503 100.481 143.43 98.0176 145.263 95.5984C146.164 94.3765 147.071 93.1349 147.825 91.9426C148.162 91.4326 148.446 90.8894 148.672 90.3216C148.887 89.7169 149.051 89.0957 149.165 88.4641C149.434 87.0534 149.608 85.6264 149.687 84.1924C149.786 82.7143 149.84 81.2362 149.84 79.7039C149.84 76.6935 149.726 73.5994 149.539 70.6235L154.979 70.1456Z" fill="#FF8B7B"/>
<path d="M156.634 68.7758C159.458 73.2791 157.093 80.6647 157.093 80.6647L148.352 80.4085C148.352 80.4085 148.874 75.9742 149.121 71.5399C149.382 66.7558 153.87 64.3613 156.634 68.7758Z" fill="#14365B"/>
<path d="M155.816 173.745C155.572 173.763 155.329 173.697 155.127 173.558C155.061 173.505 155.01 173.436 154.979 173.357C154.948 173.279 154.938 173.194 154.949 173.11C154.949 173.06 154.963 173.011 154.989 172.968C155.015 172.926 155.053 172.891 155.097 172.868C155.496 172.671 156.649 173.361 156.782 173.46C156.796 173.469 156.807 173.481 156.814 173.496C156.821 173.511 156.823 173.527 156.822 173.543C156.819 173.56 156.812 173.575 156.8 173.588C156.789 173.6 156.774 173.609 156.757 173.612C156.45 173.694 156.134 173.738 155.816 173.745ZM155.284 173.001C155.247 172.993 155.208 172.993 155.171 173.001C155.154 173.011 155.14 173.026 155.13 173.043C155.121 173.061 155.116 173.08 155.117 173.1C155.11 173.157 155.117 173.216 155.137 173.27C155.158 173.324 155.192 173.372 155.235 173.41C155.637 173.592 156.093 173.615 156.511 173.474C156.136 173.241 155.719 173.08 155.284 173.001Z" fill="#407BFF"/>
<path d="M156.738 173.617H156.693C156.324 173.415 155.604 172.632 155.708 172.228C155.708 172.154 155.772 172.031 155.979 172.006C156.043 171.997 156.108 172.002 156.171 172.021C156.233 172.04 156.29 172.072 156.338 172.115C156.757 172.455 156.831 173.489 156.831 173.534C156.832 173.549 156.829 173.564 156.822 173.578C156.815 173.592 156.805 173.604 156.792 173.612L156.738 173.617ZM156.013 172.139H155.974C155.861 172.139 155.851 172.203 155.851 172.223C155.801 172.459 156.26 173.056 156.629 173.336C156.604 172.928 156.456 172.536 156.205 172.213C156.15 172.172 156.082 172.152 156.013 172.159V172.139Z" fill="#407BFF"/>
<path d="M130.753 173.745C130.445 173.771 130.138 173.693 129.88 173.524C129.824 173.472 129.78 173.407 129.752 173.336C129.725 173.264 129.715 173.186 129.723 173.11C129.723 173.063 129.737 173.018 129.761 172.978C129.785 172.938 129.82 172.905 129.861 172.883C130.299 172.642 131.738 173.376 131.901 173.455C131.917 173.463 131.93 173.476 131.939 173.491C131.948 173.507 131.952 173.525 131.95 173.543C131.947 173.561 131.938 173.577 131.926 173.591C131.914 173.604 131.898 173.613 131.881 173.617C131.509 173.694 131.132 173.737 130.753 173.745ZM130.102 173.001C130.048 172.999 129.994 173.009 129.944 173.031C129.928 173.041 129.914 173.054 129.905 173.071C129.895 173.087 129.89 173.106 129.89 173.125C129.883 173.175 129.889 173.226 129.907 173.273C129.925 173.321 129.955 173.363 129.994 173.396C130.215 173.593 130.807 173.627 131.595 173.494C131.129 173.246 130.624 173.08 130.102 173.001Z" fill="#407BFF"/>
<path d="M131.866 173.617H131.832C131.398 173.425 130.536 172.632 130.605 172.243C130.605 172.149 130.689 172.026 130.92 172.006C131.008 171.994 131.097 172 131.182 172.025C131.267 172.049 131.346 172.092 131.413 172.149C131.866 172.524 131.965 173.494 131.97 173.534C131.97 173.548 131.968 173.563 131.962 173.577C131.956 173.591 131.947 173.603 131.935 173.612C131.914 173.623 131.889 173.625 131.866 173.617ZM130.989 172.139H130.935C130.782 172.139 130.773 172.213 130.773 172.233C130.733 172.479 131.314 173.09 131.758 173.356C131.714 172.944 131.542 172.556 131.265 172.248C131.185 172.189 131.088 172.158 130.989 172.159V172.139Z" fill="#407BFF"/>
<path d="M141.267 102.595L137.818 101.422L138.286 105.985C138.286 105.985 141.449 106.329 141.819 104.679L141.267 102.595Z" fill="#FF8B7B"/>
<path d="M132.458 105.107L135.547 106.147L138.286 105.985L137.818 101.422L132.458 105.107Z" fill="#FF8B7B"/>
<path d="M109.926 99.8553H103.521V177.983H109.926V99.8553Z" fill="#B3CDFF"/>
<path d="M109.926 99.8554C109.926 100.018 108.492 100.156 106.724 100.156C104.955 100.156 103.521 100.018 103.521 99.8554C103.521 99.6928 104.955 99.5548 106.724 99.5548C108.492 99.5548 109.926 99.6878 109.926 99.8554Z" fill="#92B8F4"/>
<g style="mix-blend-mode:multiply" opacity="0.2">
<path d="M109.926 148.933L103.521 148.47V143.651H109.926V148.933Z" fill="#0053CC"/>
</g>
<path d="M143.632 105.811L73.6074 99.6727L69.8029 143.071L139.828 149.209L143.632 105.811Z" fill="#0053CC"/>
<path d="M68.2661 104.78L68.0259 107.504L68.5167 107.547L68.7569 104.823L68.2661 104.78Z" fill="#45A2FF"/>
<path d="M67.7599 110.551L67.1704 117.236L67.6612 117.279L68.2507 110.594L67.7599 110.551Z" fill="#45A2FF"/>
<path d="M140.501 105.534L70.4756 99.3952L66.6711 142.793L136.696 148.932L140.501 105.534Z" fill="#45A2FF"/>
<path opacity="0.4" d="M140.839 112.286L127.703 111.685L140.75 113.321L140.839 112.286Z" fill="#0053CC"/>
<path opacity="0.4" d="M140.282 113.764L132.177 113.878L140.144 115.316L140.282 113.764Z" fill="#0053CC"/>
<path opacity="0.4" d="M67.6328 131.777L74.7178 131.851L67.7264 130.743L67.6328 131.777Z" fill="#0053CC"/>
<path opacity="0.4" d="M68.3521 123.599L74.4468 123.308L68.4851 122.047L68.3521 123.599Z" fill="#0053CC"/>
<path opacity="0.4" d="M137.675 144.321L131.575 144.612L137.537 145.878L137.675 144.321Z" fill="#0053CC"/>
<path d="M86.173 108.138L95.8152 108.985L95.5737 111.695L89.8486 111.202L89.6564 113.41L94.5489 113.838L94.3223 116.385L89.4347 115.957L88.9814 121.11L85.0645 120.77L86.173 108.138Z" fill="#0053CC"/>
<path d="M96.8697 115.444C97.0504 113.385 97.7648 111.831 99.013 110.783C100.261 109.736 101.903 109.302 103.94 109.483C106.039 109.667 107.607 110.371 108.645 111.596C109.685 112.828 110.123 114.454 109.936 116.489C109.875 117.745 109.51 118.967 108.872 120.051C108.308 120.941 107.491 121.642 106.527 122.066C105.396 122.535 104.165 122.705 102.95 122.559C101.733 122.495 100.545 122.159 99.4761 121.574C98.563 121.014 97.8387 120.194 97.3969 119.218C96.8849 118.031 96.7028 116.727 96.8697 115.444ZM100.767 115.804C100.659 117.075 100.811 118.011 101.235 118.612C101.452 118.906 101.732 119.147 102.054 119.317C102.376 119.488 102.733 119.584 103.097 119.598C103.461 119.651 103.831 119.62 104.181 119.507C104.53 119.394 104.849 119.203 105.113 118.947C105.605 118.455 105.935 117.469 106.059 116.075C106.167 114.888 105.999 113.996 105.566 113.405C105.346 113.111 105.063 112.87 104.739 112.7C104.414 112.529 104.055 112.433 103.689 112.419C103.331 112.374 102.968 112.411 102.626 112.527C102.285 112.643 101.974 112.836 101.718 113.089C101.199 113.612 100.882 114.51 100.767 115.784V115.804Z" fill="#0053CC"/>
<path d="M111.547 123.081L112.651 110.458L119.155 111.03C120.088 111.08 121.009 111.266 121.889 111.582C122.5 111.835 123.008 112.288 123.328 112.868C123.682 113.505 123.825 114.238 123.737 114.961C123.706 115.576 123.509 116.171 123.166 116.683C122.824 117.194 122.348 117.602 121.791 117.863C121.341 118.061 120.864 118.189 120.377 118.243C120.73 118.379 121.061 118.565 121.362 118.795C121.579 119.011 121.77 119.252 121.929 119.514C122.121 119.774 122.286 120.053 122.421 120.347L123.963 124.16L119.554 123.776L117.81 119.736C117.675 119.352 117.464 119 117.189 118.701C116.925 118.482 116.6 118.35 116.258 118.322L115.913 118.292L115.464 123.416L111.547 123.081ZM116.125 115.917L117.765 116.06C118.117 116.065 118.468 116.038 118.815 115.981C119.071 115.954 119.308 115.833 119.48 115.641C119.66 115.445 119.77 115.193 119.79 114.927C119.82 114.75 119.807 114.569 119.754 114.398C119.701 114.227 119.609 114.071 119.485 113.942C119.072 113.64 118.572 113.48 118.061 113.488L116.346 113.336L116.125 115.917Z" fill="#0053CC"/>
<path d="M77.9257 132.211L81.6604 132.305C81.6546 132.804 81.7822 133.295 82.0299 133.728C82.2132 134.001 82.4583 134.225 82.7451 134.385C83.032 134.544 83.3525 134.633 83.6804 134.645C84.1417 134.716 84.6129 134.616 85.0058 134.364C85.1532 134.268 85.2774 134.14 85.3694 133.99C85.4615 133.84 85.519 133.672 85.5379 133.497C85.5489 133.327 85.5229 133.158 85.4616 132.999C85.4004 132.841 85.3053 132.698 85.1832 132.58C84.6108 132.142 83.9502 131.833 83.2469 131.674C81.5717 131.138 80.3974 130.521 79.724 129.821C79.395 129.493 79.1444 129.095 78.9908 128.657C78.8372 128.218 78.7847 127.75 78.8372 127.289C78.8933 126.633 79.1457 126.01 79.5615 125.5C80.0312 124.924 80.6627 124.502 81.3746 124.288C82.3983 124.003 83.4689 123.926 84.5229 124.062C86.1341 124.205 87.3412 124.613 88.1344 125.288C88.5474 125.668 88.8737 126.132 89.0914 126.649C89.309 127.166 89.4128 127.723 89.3957 128.284L85.7005 128.176C85.6964 127.699 85.5216 127.239 85.2078 126.88C84.8588 126.572 84.4119 126.397 83.9465 126.387C83.5844 126.326 83.2122 126.396 82.897 126.584C82.7823 126.657 82.6858 126.756 82.6149 126.872C82.544 126.988 82.5006 127.119 82.4881 127.254C82.4833 127.36 82.502 127.466 82.5429 127.564C82.5837 127.662 82.6458 127.75 82.7246 127.821C83.1002 128.106 83.5343 128.305 83.9958 128.402C85.2346 128.741 86.43 129.222 87.558 129.836C88.1852 130.202 88.6973 130.736 89.0361 131.378C89.3232 131.972 89.4409 132.634 89.376 133.29C89.3115 134.086 89.0094 134.845 88.5089 135.468C87.9905 136.121 87.2888 136.605 86.4937 136.857C85.4952 137.159 84.4449 137.249 83.4094 137.123C81.2613 136.936 79.8111 136.392 79.0589 135.492C78.2956 134.572 77.8928 133.406 77.9257 132.211Z" fill="#0053CC"/>
<path d="M98.9147 136.162L94.4804 135.773L93.6822 137.803L89.7012 137.453L95.584 125.249L99.836 125.624L103.467 138.655L99.3827 138.301L98.9147 136.162ZM98.3481 133.359L97.3627 128.703L95.584 133.137L98.3481 133.359Z" fill="#0053CC"/>
<path d="M105.797 126.131L109.695 126.471L108.887 135.985L114.971 136.517L114.7 139.626L104.713 138.754L105.797 126.131Z" fill="#0053CC"/>
<path d="M117.548 127.176L127.999 128.102L127.762 130.797L121.204 130.215L121.027 132.221L127.117 132.753L126.89 135.325L120.82 134.793L120.603 137.281L127.338 137.872L127.087 140.73L116.445 139.798L117.548 127.176Z" fill="#0053CC"/>
</svg>
