<svg xmlns="http://www.w3.org/2000/svg" xmlns:xlink="http://www.w3.org/1999/xlink" version="1.1" width="1000" height="1000" viewBox="0 0 1000 1000" xml:space="preserve">
<desc>Created with Fabric.js 3.5.0</desc>
<defs>
</defs>
<rect x="0" y="0" width="100%" height="100%" fill="#ffffff"/>
<g transform="matrix(4.0148 0 0 5.4499 498.6056 498.613)" id="198612">
<g style="" vector-effect="non-scaling-stroke">
		<g transform="matrix(1 0 0 1 -0.325 69.3715)">
<path style="stroke: none; stroke-width: 1; stroke-dasharray: none; stroke-linecap: butt; stroke-dashoffset: 0; stroke-linejoin: miter; stroke-miterlimit: 4; is-custom-font: none; font-file-url: none; fill: rgb(209,227,255); fill-rule: nonzero; opacity: 1;" transform=" translate(-123.175, -161.3715)" d="M 246.35 161.31 H 0 V 161.433 H 246.35 V 161.31 Z" stroke-linecap="round"/>
</g>
		<g transform="matrix(1 0 0 1 71.235 74.7315)">
<path style="stroke: none; stroke-width: 1; stroke-dasharray: none; stroke-linecap: butt; stroke-dashoffset: 0; stroke-linejoin: miter; stroke-miterlimit: 4; is-custom-font: none; font-file-url: none; fill: rgb(209,227,255); fill-rule: nonzero; opacity: 1;" transform=" translate(-194.735, -166.7315)" d="M 199.795 166.67 H 189.675 V 166.793 H 199.795 V 166.67 Z" stroke-linecap="round"/>
</g>
		<g transform="matrix(1 0 0 1 83.0325 74.6675)">
<path style="stroke: none; stroke-width: 1; stroke-dasharray: none; stroke-linecap: butt; stroke-dashoffset: 0; stroke-linejoin: miter; stroke-miterlimit: 4; is-custom-font: none; font-file-url: none; fill: rgb(209,227,255); fill-rule: nonzero; opacity: 1;" transform=" translate(-206.5325, -166.6675)" d="M 209.659 166.606 H 203.406 V 166.729 H 209.659 V 166.606 Z" stroke-linecap="round"/>
</g>
		<g transform="matrix(1 0 0 1 22.485 74.6675)">
<path style="stroke: none; stroke-width: 1; stroke-dasharray: none; stroke-linecap: butt; stroke-dashoffset: 0; stroke-linejoin: miter; stroke-miterlimit: 4; is-custom-font: none; font-file-url: none; fill: rgb(209,227,255); fill-rule: nonzero; opacity: 1;" transform=" translate(-145.985, -166.6675)" d="M 155.546 166.606 H 136.424 V 166.729 H 155.546 V 166.606 Z" stroke-linecap="round"/>
</g>
		<g transform="matrix(1 0 0 1 -35.8287 76.8305)">
<path style="stroke: none; stroke-width: 1; stroke-dasharray: none; stroke-linecap: butt; stroke-dashoffset: 0; stroke-linejoin: miter; stroke-miterlimit: 4; is-custom-font: none; font-file-url: none; fill: rgb(209,227,255); fill-rule: nonzero; opacity: 1;" transform=" translate(-87.6713, -168.8305)" d="M 99.363 168.769 H 75.9795 V 168.892 H 99.363 V 168.769 Z" stroke-linecap="round"/>
</g>
		<g transform="matrix(1 0 0 1 -74.7349 72.9335)">
<path style="stroke: none; stroke-width: 1; stroke-dasharray: none; stroke-linecap: butt; stroke-dashoffset: 0; stroke-linejoin: miter; stroke-miterlimit: 4; is-custom-font: none; font-file-url: none; fill: rgb(209,227,255); fill-rule: nonzero; opacity: 1;" transform=" translate(-48.7651, -164.9335)" d="M 50.5068 164.872 H 47.0234 V 164.995 H 50.5068 V 164.872 Z" stroke-linecap="round"/>
</g>
		<g transform="matrix(1 0 0 1 -56.8303 72.9335)">
<path style="stroke: none; stroke-width: 1; stroke-dasharray: none; stroke-linecap: butt; stroke-dashoffset: 0; stroke-linejoin: miter; stroke-miterlimit: 4; is-custom-font: none; font-file-url: none; fill: rgb(209,227,255); fill-rule: nonzero; opacity: 1;" transform=" translate(-66.6697, -164.9335)" d="M 80.0933 164.872 H 53.2461 V 164.995 H 80.0933 V 164.872 Z" stroke-linecap="round"/>
</g>
		<g transform="matrix(1 0 0 1 -81.7854 75.9095)">
<path style="stroke: none; stroke-width: 1; stroke-dasharray: none; stroke-linecap: butt; stroke-dashoffset: 0; stroke-linejoin: miter; stroke-miterlimit: 4; is-custom-font: none; font-file-url: none; fill: rgb(209,227,255); fill-rule: nonzero; opacity: 1;" transform=" translate(-41.7146, -167.9095)" d="M 48.7676 167.848 H 34.6616 V 167.971 H 48.7676 V 167.848 Z" stroke-linecap="round"/>
</g>
		<g transform="matrix(1 0 0 1 -54.2955 -22.3325)">
<path style="stroke: none; stroke-width: 1; stroke-dasharray: none; stroke-linecap: butt; stroke-dashoffset: 0; stroke-linejoin: miter; stroke-miterlimit: 4; is-custom-font: none; font-file-url: none; fill: rgb(209,227,255); fill-rule: nonzero; opacity: 1;" transform=" translate(-69.2044, -69.6675)" d="M 116.77 139.335 H 21.6343 C 20.889 139.334 20.1747 139.037 19.6482 138.51 C 19.1217 137.982 18.8259 137.267 18.8259 136.522 V 2.78868 C 18.8324 2.04767 19.131 1.33915 19.6568 0.817003 C 20.1827 0.29486 20.8933 0.00126938 21.6343 0 H 116.77 C 117.516 0 118.231 0.296402 118.759 0.824 C 119.287 1.3516 119.583 2.06717 119.583 2.81331 V 136.522 C 119.583 137.268 119.287 137.984 118.759 138.511 C 118.231 139.039 117.516 139.335 116.77 139.335 Z M 21.6343 0.0985402 C 20.9217 0.0998454 20.2387 0.383845 19.7353 0.888202 C 19.2319 1.39256 18.9491 2.07606 18.9491 2.78868 V 136.522 C 18.9491 137.235 19.2319 137.918 19.7353 138.422 C 20.2387 138.927 20.9217 139.211 21.6343 139.212 H 116.77 C 117.483 139.211 118.166 138.927 118.671 138.423 C 119.175 137.919 119.459 137.235 119.46 136.522 V 2.78868 C 119.459 2.07561 119.175 1.39212 118.671 0.887901 C 118.166 0.383685 117.483 0.0998426 116.77 0.0985402 H 21.6343 Z" stroke-linecap="round"/>
</g>
		<g transform="matrix(1 0 0 1 52.2705 -22.3325)">
<path style="stroke: none; stroke-width: 1; stroke-dasharray: none; stroke-linecap: butt; stroke-dashoffset: 0; stroke-linejoin: miter; stroke-miterlimit: 4; is-custom-font: none; font-file-url: none; fill: rgb(209,227,255); fill-rule: nonzero; opacity: 1;" transform=" translate(-175.7705, -69.6675)" d="M 223.346 139.335 H 128.205 C 127.46 139.334 126.745 139.037 126.218 138.51 C 125.69 137.983 125.393 137.268 125.392 136.522 V 2.78868 C 125.4 2.04722 125.7 1.3387 126.226 0.816695 C 126.753 0.294688 127.464 0.00125554 128.205 0 H 223.346 C 224.086 0.00256425 224.795 0.296728 225.32 0.818732 C 225.845 1.34074 226.143 2.04852 226.149 2.78868 V 136.522 C 226.149 137.266 225.854 137.981 225.329 138.508 C 224.803 139.035 224.09 139.333 223.346 139.335 Z M 128.205 0.0985402 C 127.492 0.0998426 126.809 0.383685 126.305 0.887901 C 125.8 1.39212 125.517 2.07561 125.515 2.78868 V 136.522 C 125.517 137.235 125.8 137.919 126.305 138.423 C 126.809 138.927 127.492 139.211 128.205 139.212 H 223.346 C 224.059 139.211 224.742 138.927 225.247 138.423 C 225.751 137.919 226.035 137.235 226.036 136.522 V 2.78868 C 226.035 2.07561 225.751 1.39212 225.247 0.887901 C 224.742 0.383685 224.059 0.0998426 223.346 0.0985402 H 128.205 Z" stroke-linecap="round"/>
</g>
		<g transform="matrix(1 0 0 1 -94.7048 60.653)">
<path style="stroke: none; stroke-width: 1; stroke-dasharray: none; stroke-linecap: butt; stroke-dashoffset: 0; stroke-linejoin: miter; stroke-miterlimit: 4; is-custom-font: none; font-file-url: none; fill: rgb(227,238,255); fill-rule: nonzero; opacity: 1;" transform=" translate(-28.7952, -152.653)" d="M 38.0513 161.31 H 27.9263 C 27.9263 161.31 21.6789 155.772 19.6637 148.342 C 18.7227 144.918 23.3294 142.558 26.1132 145.001 C 32.6266 150.727 38.0513 161.31 38.0513 161.31 Z" stroke-linecap="round"/>
</g>
		<g transform="matrix(1 0 0 1 -88.2771 57.5777)">
<path style="stroke: none; stroke-width: 1; stroke-dasharray: none; stroke-linecap: butt; stroke-dashoffset: 0; stroke-linejoin: miter; stroke-miterlimit: 4; is-custom-font: none; font-file-url: none; fill: rgb(227,238,255); fill-rule: nonzero; opacity: 1;" transform=" translate(-35.2229, -149.5778)" d="M 42.3129 161.31 H 32.1879 C 32.1879 161.31 26.3987 149.416 28.6355 140.759 C 28.809 140.081 29.1632 139.462 29.6605 138.969 C 30.1578 138.475 30.7795 138.126 31.4595 137.958 C 32.1394 137.791 32.8522 137.81 33.5219 138.015 C 34.1916 138.221 34.7931 138.604 35.2623 139.123 C 42.9189 147.549 42.3129 161.31 42.3129 161.31 Z" stroke-linecap="round"/>
</g>
		<g transform="matrix(1 0 0 1 -73.3899 57.1363)">
<path style="stroke: none; stroke-width: 1; stroke-dasharray: none; stroke-linecap: butt; stroke-dashoffset: 0; stroke-linejoin: miter; stroke-miterlimit: 4; is-custom-font: none; font-file-url: none; fill: rgb(227,238,255); fill-rule: nonzero; opacity: 1;" transform=" translate(-50.1101, -149.1363)" d="M 42.3228 161.31 H 48.8609 C 48.8609 161.31 52.9601 154.082 56.8081 145.198 C 60.3999 136.916 54.2806 133.457 50.4375 141.597 C 45.5499 151.953 42.3228 161.31 42.3228 161.31 Z" stroke-linecap="round"/>
</g>
		<g transform="matrix(1 0 0 1 -69.5011 60.6898)">
<path style="stroke: none; stroke-width: 1; stroke-dasharray: none; stroke-linecap: butt; stroke-dashoffset: 0; stroke-linejoin: miter; stroke-miterlimit: 4; is-custom-font: none; font-file-url: none; fill: rgb(227,238,255); fill-rule: nonzero; opacity: 1;" transform=" translate(-53.9989, -152.6898)" d="M 44.1113 161.31 H 54.2363 C 54.2363 161.31 64.4303 156.486 63.8637 147.356 C 63.7109 144.967 60.9814 143.415 58.5622 144.341 C 47.6933 148.509 44.1113 161.31 44.1113 161.31 Z" stroke-linecap="round"/>
</g>
		<g transform="matrix(1 0 0 1 -79.9382 54.1699)">
<path style="stroke: none; stroke-width: 1; stroke-dasharray: none; stroke-linecap: butt; stroke-dashoffset: 0; stroke-linejoin: miter; stroke-miterlimit: 4; is-custom-font: none; font-file-url: none; fill: rgb(227,238,255); fill-rule: nonzero; opacity: 1;" transform=" translate(-43.5618, -146.17)" d="M 38.4305 161.31 H 48.5506 C 48.5506 161.31 51.6102 144.42 47.984 133.783 C 46.9 130.605 43.057 130.048 41.2734 132.797 C 34.6761 143.085 38.4305 161.31 38.4305 161.31 Z" stroke-linecap="round"/>
</g>
		<g transform="matrix(1 0 0 1 37.8245 -29.8312)">
<path style="stroke: none; stroke-width: 1; stroke-dasharray: none; stroke-linecap: butt; stroke-dashoffset: 0; stroke-linejoin: miter; stroke-miterlimit: 4; is-custom-font: none; font-file-url: none; fill: rgb(209,227,255); fill-rule: nonzero; opacity: 1;" transform=" translate(-161.3245, -62.1688)" d="M 105.492 71.4414 L 134.014 48.792 L 217.157 75.5456 H 105.492 V 71.4414 Z" stroke-linecap="round"/>
</g>
		<g transform="matrix(1 0 0 1 66.411 28.4823)">
<path style="stroke: none; stroke-width: 1; stroke-dasharray: none; stroke-linecap: butt; stroke-dashoffset: 0; stroke-linejoin: miter; stroke-miterlimit: 4; is-custom-font: none; font-file-url: none; fill: rgb(227,238,255); fill-rule: nonzero; opacity: 1;" transform=" translate(-189.911, -120.4823)" d="M 166.153 161.31 H 213.669 V 79.6547 H 166.153 V 161.31 Z" stroke-linecap="round"/>
</g>
		<g transform="matrix(1 0 0 1 69.5735 62.3479)">
<path style="stroke: none; stroke-width: 1; stroke-dasharray: none; stroke-linecap: butt; stroke-dashoffset: 0; stroke-linejoin: miter; stroke-miterlimit: 4; is-custom-font: none; font-file-url: none; fill: rgb(245,252,255); fill-rule: nonzero; opacity: 1;" transform=" translate(-193.0735, -154.3479)" d="M 201.431 161.31 H 192.291 C 192.291 161.31 186.66 156.875 184.827 150.884 C 183.984 148.13 188.138 146.228 190.65 148.194 C 196.533 152.801 201.431 161.31 201.431 161.31 Z" stroke-linecap="round"/>
</g>
		<g transform="matrix(1 0 0 1 75.3801 59.8742)">
<path style="stroke: none; stroke-width: 1; stroke-dasharray: none; stroke-linecap: butt; stroke-dashoffset: 0; stroke-linejoin: miter; stroke-miterlimit: 4; is-custom-font: none; font-file-url: none; fill: rgb(245,252,255); fill-rule: nonzero; opacity: 1;" transform=" translate(-198.88, -151.8742)" d="M 205.283 161.31 H 196.139 C 196.139 161.31 190.911 151.746 192.931 144.785 C 193.631 142.37 197.031 141.626 198.913 143.469 C 205.83 150.244 205.283 161.31 205.283 161.31 Z" stroke-linecap="round"/>
</g>
		<g transform="matrix(1 0 0 1 88.8323 59.521)">
<path style="stroke: none; stroke-width: 1; stroke-dasharray: none; stroke-linecap: butt; stroke-dashoffset: 0; stroke-linejoin: miter; stroke-miterlimit: 4; is-custom-font: none; font-file-url: none; fill: rgb(245,252,255); fill-rule: nonzero; opacity: 1;" transform=" translate(-212.3323, -151.5211)" d="M 205.293 161.31 H 211.206 C 213.818 157.116 216.216 152.793 218.389 148.357 C 221.631 141.695 216.103 138.912 212.635 145.46 C 209.911 150.61 207.46 155.901 205.293 161.31 Z" stroke-linecap="round"/>
</g>
		<g transform="matrix(1 0 0 1 92.3325 62.3795)">
<path style="stroke: none; stroke-width: 1; stroke-dasharray: none; stroke-linecap: butt; stroke-dashoffset: 0; stroke-linejoin: miter; stroke-miterlimit: 4; is-custom-font: none; font-file-url: none; fill: rgb(245,252,255); fill-rule: nonzero; opacity: 1;" transform=" translate(-215.8325, -154.3794)" d="M 206.904 161.31 H 216.049 C 216.049 161.31 225.257 157.432 224.74 150.091 C 224.607 148.169 222.139 146.923 219.956 147.667 C 210.141 151.017 206.904 161.31 206.904 161.31 Z" stroke-linecap="round"/>
</g>
		<g transform="matrix(1 0 0 1 82.9136 57.1376)">
<path style="stroke: none; stroke-width: 1; stroke-dasharray: none; stroke-linecap: butt; stroke-dashoffset: 0; stroke-linejoin: miter; stroke-miterlimit: 4; is-custom-font: none; font-file-url: none; fill: rgb(245,252,255); fill-rule: nonzero; opacity: 1;" transform=" translate(-206.4136, -149.1377)" d="M 201.775 161.31 H 210.915 C 210.915 161.31 213.679 147.731 210.422 139.173 C 210.193 138.592 209.812 138.084 209.32 137.701 C 208.827 137.317 208.241 137.073 207.622 136.994 C 207.003 136.914 206.374 137.002 205.801 137.249 C 205.227 137.495 204.73 137.891 204.362 138.394 C 198.386 146.652 201.775 161.31 201.775 161.31 Z" stroke-linecap="round"/>
</g>
		<g transform="matrix(1 0 0 1 68.153 -14.3998)">
<path style="stroke: none; stroke-width: 1; stroke-dasharray: none; stroke-linecap: butt; stroke-dashoffset: 0; stroke-linejoin: miter; stroke-miterlimit: 4; is-custom-font: none; font-file-url: none; fill: rgb(209,227,255); fill-rule: nonzero; opacity: 1;" transform=" translate(-191.653, -77.6001)" d="M 166.148 79.6547 H 213.669 L 217.158 75.5456 H 166.148 V 79.6547 Z" stroke-linecap="round"/>
</g>
		<g transform="matrix(1 0 0 1 45.459 14.295)">
<path style="stroke: none; stroke-width: 1; stroke-dasharray: none; stroke-linecap: butt; stroke-dashoffset: 0; stroke-linejoin: miter; stroke-miterlimit: 4; is-custom-font: none; font-file-url: none; fill: rgb(209,227,255); fill-rule: nonzero; opacity: 1;" transform=" translate(-168.959, -106.295)" d="M 192.675 86.449 H 145.243 V 126.141 H 192.675 V 86.449 Z" stroke-linecap="round"/>
</g>
		<g transform="matrix(1 0 0 1 45.4615 14.2925)">
<path style="stroke: none; stroke-width: 1; stroke-dasharray: none; stroke-linecap: butt; stroke-dashoffset: 0; stroke-linejoin: miter; stroke-miterlimit: 4; is-custom-font: none; font-file-url: none; fill: rgb(245,252,255); fill-rule: nonzero; opacity: 1;" transform=" translate(-168.9615, -106.2925)" d="M 190.448 123.633 V 88.9519 H 147.475 V 123.633 H 190.448 Z" stroke-linecap="round"/>
</g>
		<g transform="matrix(1 0 0 1 45.464 14.29)">
<path style="stroke: none; stroke-width: 1; stroke-dasharray: none; stroke-linecap: butt; stroke-dashoffset: 0; stroke-linejoin: miter; stroke-miterlimit: 4; is-custom-font: none; font-file-url: none; fill: rgb(209,227,255); fill-rule: nonzero; opacity: 1;" transform=" translate(-168.964, -106.29)" d="M 191.759 104.61 H 146.169 V 107.97 H 191.759 V 104.61 Z" stroke-linecap="round"/>
</g>
		<g transform="matrix(1 0 0 1 -18.0076 21.3801)">
<path style="stroke: none; stroke-width: 1; stroke-dasharray: none; stroke-linecap: butt; stroke-dashoffset: 0; stroke-linejoin: miter; stroke-miterlimit: 4; is-custom-font: none; font-file-url: none; fill: rgb(243,248,255); fill-rule: nonzero; opacity: 1;" transform=" translate(-105.4924, -113.3801)" d="M 166.149 65.4551 H 44.8359 V 161.305 H 166.149 V 65.4551 Z" stroke-linecap="round"/>
</g>
		<g transform="matrix(1 0 0 1 -40.8888 14.2949)">
<path style="stroke: none; stroke-width: 1; stroke-dasharray: none; stroke-linecap: butt; stroke-dashoffset: 0; stroke-linejoin: miter; stroke-miterlimit: 4; is-custom-font: none; font-file-url: none; fill: rgb(227,238,255); fill-rule: nonzero; opacity: 1;" transform=" translate(-82.6112, -106.2949)" d="M 110.986 82.5518 H 54.2363 V 130.038 H 110.986 V 82.5518 Z" stroke-linecap="round"/>
</g>
		<g transform="matrix(1 0 0 1 -40.8916 14.2947)">
<path style="stroke: none; stroke-width: 1; stroke-dasharray: none; stroke-linecap: butt; stroke-dashoffset: 0; stroke-linejoin: miter; stroke-miterlimit: 4; is-custom-font: none; font-file-url: none; fill: rgb(255,255,255); fill-rule: nonzero; opacity: 1;" transform=" translate(-82.6084, -106.2947)" d="M 108.315 127.042 V 85.5474 H 56.9017 V 127.042 H 108.315 Z" stroke-linecap="round"/>
</g>
		<g transform="matrix(1 0 0 1 -40.8865 10.0062)">
<path style="stroke: none; stroke-width: 1; stroke-dasharray: none; stroke-linecap: butt; stroke-dashoffset: 0; stroke-linejoin: miter; stroke-miterlimit: 4; is-custom-font: none; font-file-url: none; fill: rgb(245,252,255); fill-rule: nonzero; opacity: 1;" transform=" translate(-82.6136, -102.0062)" d="M 108.32 118.47 V 85.5424 H 56.9071 V 118.47 H 108.32 Z" stroke-linecap="round"/>
</g>
		<g transform="matrix(1 0 0 1 -40.8891 26.4695)">
<path style="stroke: none; stroke-width: 1; stroke-dasharray: none; stroke-linecap: butt; stroke-dashoffset: 0; stroke-linejoin: miter; stroke-miterlimit: 4; is-custom-font: none; font-file-url: none; fill: rgb(227,238,255); fill-rule: nonzero; opacity: 1;" transform=" translate(-82.6109, -118.4695)" d="M 109.882 116.459 H 55.3398 V 120.48 H 109.882 V 116.459 Z" stroke-linecap="round"/>
</g>
		<g transform="matrix(1 0 0 1 16.6955 23.0872)">
<path style="stroke: none; stroke-width: 1; stroke-dasharray: none; stroke-linecap: butt; stroke-dashoffset: 0; stroke-linejoin: miter; stroke-miterlimit: 4; is-custom-font: none; font-file-url: none; fill: rgb(209,227,255); fill-rule: nonzero; opacity: 1;" transform=" translate(-140.1955, -115.0872)" d="M 123.983 149.559 H 156.408 V 80.6154 H 123.983 V 149.559 Z" stroke-linecap="round"/>
</g>
		<g transform="matrix(1 0 0 1 16.693 23.8706)">
<path style="stroke: none; stroke-width: 1; stroke-dasharray: none; stroke-linecap: butt; stroke-dashoffset: 0; stroke-linejoin: miter; stroke-miterlimit: 4; is-custom-font: none; font-file-url: none; fill: rgb(227,238,255); fill-rule: nonzero; opacity: 1;" transform=" translate(-140.193, -115.8706)" d="M 154.698 149.559 V 82.1822 H 125.688 V 149.559 H 154.698 Z" stroke-linecap="round"/>
</g>
		<g transform="matrix(1 0 0 1 16.688 6.1186)">
<path style="stroke: none; stroke-width: 1; stroke-dasharray: none; stroke-linecap: butt; stroke-dashoffset: 0; stroke-linejoin: miter; stroke-miterlimit: 4; is-custom-font: none; font-file-url: none; fill: rgb(210,228,255); fill-rule: nonzero; opacity: 1;" transform=" translate(-140.188, -98.1186)" d="M 152.131 111.355 V 84.8822 H 128.245 V 111.355 H 152.131 Z" stroke-linecap="round"/>
</g>
		<g transform="matrix(1 0 0 1 16.693 36.6415)">
<path style="stroke: none; stroke-width: 1; stroke-dasharray: none; stroke-linecap: butt; stroke-dashoffset: 0; stroke-linejoin: miter; stroke-miterlimit: 4; is-custom-font: none; font-file-url: none; fill: rgb(210,228,255); fill-rule: nonzero; opacity: 1;" transform=" translate(-140.193, -128.6415)" d="M 152.136 141.878 V 115.405 H 128.25 V 141.878 H 152.136 Z" stroke-linecap="round"/>
</g>
		<g transform="matrix(1 0 0 1 -18.0082 -40.5031)">
<path style="stroke: none; stroke-width: 1; stroke-dasharray: none; stroke-linecap: butt; stroke-dashoffset: 0; stroke-linejoin: miter; stroke-miterlimit: 4; is-custom-font: none; font-file-url: none; fill: rgb(227,238,255); fill-rule: nonzero; opacity: 1;" transform=" translate(-105.4918, -51.4969)" d="M 168.119 72.1361 H 42.8647 V 63.4843 L 105.492 30.8578 L 168.119 63.4843 V 72.1361 Z" stroke-linecap="round"/>
</g>
		<g transform="matrix(1 0 0 1 -18.0078 -43.3854)">
<path style="stroke: none; stroke-width: 1; stroke-dasharray: none; stroke-linecap: butt; stroke-dashoffset: 0; stroke-linejoin: miter; stroke-miterlimit: 4; is-custom-font: none; font-file-url: none; fill: rgb(209,227,255); fill-rule: nonzero; opacity: 1;" transform=" translate(-105.4922, -48.6146)" d="M 173.657 68.0368 L 105.492 32.528 L 37.3272 68.0368 L 35.9624 65.4157 L 105.492 29.1924 L 175.022 65.4157 L 173.657 68.0368 Z" stroke-linecap="round"/>
</g>
		<g transform="matrix(1 0 0 1 -18.0129 -39.1088)">
<path style="stroke: none; stroke-width: 1; stroke-dasharray: none; stroke-linecap: butt; stroke-dashoffset: 0; stroke-linejoin: miter; stroke-miterlimit: 4; is-custom-font: none; font-file-url: none; fill: rgb(209,227,255); fill-rule: nonzero; opacity: 1;" transform=" translate(-105.487, -52.8913)" d="M 105.492 66.3814 C 102.824 66.3823 100.215 65.592 97.9961 64.1103 C 95.777 62.6286 94.0472 60.522 93.0254 58.0571 C 92.0036 55.5922 91.7357 52.8796 92.2557 50.2625 C 92.7756 47.6453 94.0601 45.2412 95.9465 43.3541 C 97.8329 41.4669 100.237 40.1816 102.854 39.6607 C 105.471 39.1398 108.183 39.4067 110.649 40.4276 C 113.114 41.4485 115.221 43.1775 116.703 45.3961 C 118.186 47.6146 118.977 50.223 118.977 52.8913 C 118.973 56.467 117.552 59.8953 115.024 62.4241 C 112.496 64.953 109.068 66.3762 105.492 66.3814 Z M 105.492 42.3623 C 103.408 42.3613 101.371 42.9784 99.6379 44.1355 C 97.9049 45.2926 96.554 46.9377 95.7561 48.8628 C 94.9582 50.7878 94.7491 52.9062 95.1554 54.95 C 95.5617 56.9939 96.5651 58.8713 98.0386 60.3448 C 99.5121 61.8183 101.39 62.8216 103.433 63.2279 C 105.477 63.6342 107.596 63.4252 109.521 62.6273 C 111.446 61.8294 113.091 60.4785 114.248 58.7454 C 115.405 57.0124 116.022 54.9751 116.021 52.8913 C 116.015 50.1017 114.903 47.4284 112.929 45.4568 C 110.956 43.4852 108.282 42.376 105.492 42.3721 V 42.3623 Z" stroke-linecap="round"/>
</g>
		<g transform="matrix(1 0 0 1 -18.0083 -39.1088)">
<path style="stroke: none; stroke-width: 1; stroke-dasharray: none; stroke-linecap: butt; stroke-dashoffset: 0; stroke-linejoin: miter; stroke-miterlimit: 4; is-custom-font: none; font-file-url: none; fill: rgb(245,252,255); fill-rule: nonzero; opacity: 1;" transform=" translate(-105.4917, -52.8912)" d="M 105.492 62.7107 C 110.915 62.7107 115.311 58.3144 115.311 52.8912 C 115.311 47.4681 110.915 43.0717 105.492 43.0717 C 100.069 43.0717 95.6724 47.4681 95.6724 52.8912 C 95.6724 58.3144 100.069 62.7107 105.492 62.7107 Z" stroke-linecap="round"/>
</g>
		<g transform="matrix(1 0 0 1 16.693 57.468)">
<path style="stroke: none; stroke-width: 1; stroke-dasharray: none; stroke-linecap: butt; stroke-dashoffset: 0; stroke-linejoin: miter; stroke-miterlimit: 4; is-custom-font: none; font-file-url: none; fill: rgb(227,238,255); fill-rule: nonzero; opacity: 1;" transform=" translate(-140.193, -149.468)" d="M 160.566 148.411 H 119.82 V 150.525 H 160.566 V 148.411 Z" stroke-linecap="round"/>
</g>
		<g transform="matrix(1 0 0 1 16.693 60.6945)">
<path style="stroke: none; stroke-width: 1; stroke-dasharray: none; stroke-linecap: butt; stroke-dashoffset: 0; stroke-linejoin: miter; stroke-miterlimit: 4; is-custom-font: none; font-file-url: none; fill: rgb(209,227,255); fill-rule: nonzero; opacity: 1;" transform=" translate(-140.193, -152.6945)" d="M 159.635 150.529 H 120.751 V 154.86 H 159.635 V 150.529 Z" stroke-linecap="round"/>
</g>
		<g transform="matrix(1 0 0 1 16.693 63.917)">
<path style="stroke: none; stroke-width: 1; stroke-dasharray: none; stroke-linecap: butt; stroke-dashoffset: 0; stroke-linejoin: miter; stroke-miterlimit: 4; is-custom-font: none; font-file-url: none; fill: rgb(227,238,255); fill-rule: nonzero; opacity: 1;" transform=" translate(-140.193, -155.917)" d="M 163.66 154.86 H 116.726 V 156.974 H 163.66 V 154.86 Z" stroke-linecap="round"/>
</g>
		<g transform="matrix(1 0 0 1 16.693 67.1395)">
<path style="stroke: none; stroke-width: 1; stroke-dasharray: none; stroke-linecap: butt; stroke-dashoffset: 0; stroke-linejoin: miter; stroke-miterlimit: 4; is-custom-font: none; font-file-url: none; fill: rgb(209,227,255); fill-rule: nonzero; opacity: 1;" transform=" translate(-140.193, -159.1395)" d="M 162.586 156.974 H 117.8 V 161.305 H 162.586 V 156.974 Z" stroke-linecap="round"/>
</g>
		<g transform="matrix(1 0 0 1 27.8184 19.7492)">
<path style="stroke: none; stroke-width: 1; stroke-dasharray: none; stroke-linecap: butt; stroke-dashoffset: 0; stroke-linejoin: miter; stroke-miterlimit: 4; is-custom-font: none; font-file-url: none; fill: rgb(255,255,255); fill-rule: nonzero; opacity: 1;" transform=" translate(-151.3184, -111.7492)" d="M 153.107 111.749 C 153.107 112.103 153.002 112.449 152.805 112.743 C 152.609 113.037 152.33 113.266 152.003 113.401 C 151.676 113.537 151.316 113.572 150.969 113.503 C 150.622 113.434 150.304 113.264 150.054 113.014 C 149.803 112.764 149.633 112.445 149.564 112.098 C 149.495 111.751 149.531 111.391 149.666 111.065 C 149.801 110.738 150.031 110.459 150.325 110.262 C 150.619 110.066 150.965 109.961 151.318 109.961 C 151.793 109.961 152.248 110.149 152.583 110.484 C 152.918 110.82 153.107 111.275 153.107 111.749 Z" stroke-linecap="round"/>
</g>
		<g transform="matrix(1 0 0 1 -52.6599 -77.4728)">
<path style="stroke: none; stroke-width: 1; stroke-dasharray: none; stroke-linecap: butt; stroke-dashoffset: 0; stroke-linejoin: miter; stroke-miterlimit: 4; is-custom-font: none; font-file-url: none; fill: rgb(243,248,255); fill-rule: nonzero; opacity: 1;" transform=" translate(-70.8401, -14.5272)" d="M 36.2727 17.4415 C 33.415 11.268 35.6863 6.86823 42.6778 6.86823 C 47.0579 6.86823 52.4874 8.60252 57.779 11.4158 C 58.3752 9.80964 60.0602 8.84887 62.7701 8.84887 C 67.5345 8.84887 74.1022 11.8051 79.2558 16.0176 C 80.5023 15.0864 82.3056 14.51 84.6262 14.4213 C 89.1788 14.2291 94.7069 15.9388 99.5255 18.7226 C 100.097 18.1871 100.857 17.9001 101.639 17.9244 C 104.27 17.816 107.827 19.5404 109.591 21.7724 C 109.705 21.9153 109.803 22.0483 109.897 22.1862 H 32.7252 C 30.2863 19.9888 32.9814 17.5499 36.2727 17.4415 Z" stroke-linecap="round"/>
</g>
		<g transform="matrix(1 0 0 1 49.3849 -65.2809)">
<path style="stroke: none; stroke-width: 1; stroke-dasharray: none; stroke-linecap: butt; stroke-dashoffset: 0; stroke-linejoin: miter; stroke-miterlimit: 4; is-custom-font: none; font-file-url: none; fill: rgb(243,248,255); fill-rule: nonzero; opacity: 1;" transform=" translate(-172.885, -26.7191)" d="M 137.148 27.9016 C 137.367 27.8776 137.588 27.8661 137.808 27.8671 C 137.606 25.576 138.793 24.1127 141.326 24.1127 C 143.159 24.1127 145.401 24.8764 147.687 26.1673 C 147.036 21.733 149.13 18.831 153.875 18.831 C 157.703 18.831 162.551 20.7131 167.341 23.758 C 167.759 22.0138 169.173 20.9693 171.543 20.9693 C 175.707 20.9693 181.624 24.1965 186.369 28.7539 C 187.393 27.739 188.931 27.1132 190.956 27.0098 C 194.922 26.8078 199.824 28.6603 204.209 31.6855 C 204.416 31.4048 204.689 31.1791 205.003 31.028 C 205.318 30.8768 205.664 30.8049 206.013 30.8183 C 208.18 30.705 211.166 32.3753 212.91 34.6072 H 133.66 C 131.797 31.2421 133.28 28.2809 137.148 27.9016 Z" stroke-linecap="round"/>
</g>
		<g transform="matrix(1 0 0 1 -0.3247 85.9825)">
<path style="stroke: none; stroke-width: 1; stroke-dasharray: none; stroke-linecap: butt; stroke-dashoffset: 0; stroke-linejoin: miter; stroke-miterlimit: 4; is-custom-font: none; font-file-url: none; fill: rgb(240,246,255); fill-rule: nonzero; opacity: 1;" transform=" translate(-123.1753, -177.9825)" d="M 123.175 183.56 C 175.935 183.56 218.705 181.063 218.705 177.983 C 218.705 174.902 175.935 172.405 123.175 172.405 C 70.4156 172.405 27.6455 174.902 27.6455 177.983 C 27.6455 181.063 70.4156 183.56 123.175 183.56 Z" stroke-linecap="round"/>
</g>
		<g transform="matrix(1 0 0 1 12.082 -55.3865)">
<path style="stroke: none; stroke-width: 1; stroke-dasharray: none; stroke-linecap: butt; stroke-dashoffset: 0; stroke-linejoin: miter; stroke-miterlimit: 4; is-custom-font: none; font-file-url: none; fill: rgb(179,205,255); fill-rule: nonzero; opacity: 1;" transform=" translate(-135.582, -36.6135)" d="M 150.593 31.2853 L 149.995 29.8319 C 149.896 29.5903 149.619 29.4751 149.378 29.5745 L 120.828 41.3241 C 120.587 41.4236 120.471 41.7 120.571 41.9416 L 121.169 43.395 C 121.268 43.6366 121.545 43.7518 121.786 43.6524 L 150.336 31.9027 C 150.577 31.8033 150.693 31.5269 150.593 31.2853 Z" stroke-linecap="round"/>
</g>
		<g transform="matrix(1 0 0 1 19.025 -58.2471)">
<path style="stroke: none; stroke-width: 1; stroke-dasharray: none; stroke-linecap: butt; stroke-dashoffset: 0; stroke-linejoin: miter; stroke-miterlimit: 4; is-custom-font: none; font-file-url: none; fill: rgb(110,165,244); fill-rule: nonzero; opacity: 1;" transform=" translate(-142.525, -33.7529)" d="M 144.091 34.4698 L 143.132 32.1416 L 140.959 33.036 L 141.917 35.3642 L 144.091 34.4698 Z" stroke-linecap="round"/>
</g>
		<g transform="matrix(1 0 0 1 22.314 -59.5968)">
<path style="stroke: none; stroke-width: 1; stroke-dasharray: none; stroke-linecap: butt; stroke-dashoffset: 0; stroke-linejoin: miter; stroke-miterlimit: 4; is-custom-font: none; font-file-url: none; fill: rgb(0,83,204); fill-rule: nonzero; opacity: 1;" transform=" translate(-145.8139, -32.4032)" d="M 149.775 34.4093 L 147.215 28.1901 C 146.64 26.791 145.039 26.1236 143.64 26.6994 L 143.343 26.8213 C 141.944 27.3971 141.277 28.9981 141.853 30.3972 L 144.412 36.6164 C 144.988 38.0155 146.589 38.6829 147.988 38.1071 L 148.284 37.9852 C 149.683 37.4094 150.351 35.8084 149.775 34.4093 Z" stroke-linecap="round"/>
</g>
		<g transform="matrix(1 0 0 1 10.0365 77.3755)">
<path style="stroke: none; stroke-width: 1; stroke-dasharray: none; stroke-linecap: butt; stroke-dashoffset: 0; stroke-linejoin: miter; stroke-miterlimit: 4; is-custom-font: none; font-file-url: none; fill: rgb(255,139,123); fill-rule: nonzero; opacity: 1;" transform=" translate(-133.5365, -169.3755)" d="M 135.808 173.534 H 132.221 L 131.265 165.217 H 134.857 L 135.808 173.534 Z" stroke-linecap="round"/>
</g>
		<g transform="matrix(1 0 0 1 34.378 77.3755)">
<path style="stroke: none; stroke-width: 1; stroke-dasharray: none; stroke-linecap: butt; stroke-dashoffset: 0; stroke-linejoin: miter; stroke-miterlimit: 4; is-custom-font: none; font-file-url: none; fill: rgb(255,139,123); fill-rule: nonzero; opacity: 1;" transform=" translate(-157.878, -169.3755)" d="M 161.073 173.534 H 157.482 L 154.683 165.217 H 158.275 L 161.073 173.534 Z" stroke-linecap="round"/>
</g>
		<g transform="matrix(1 0 0 1 33.4025 83.157)">
<path style="stroke: none; stroke-width: 1; stroke-dasharray: none; stroke-linecap: butt; stroke-dashoffset: 0; stroke-linejoin: miter; stroke-miterlimit: 4; is-custom-font: none; font-file-url: none; fill: rgb(20,54,91); fill-rule: nonzero; opacity: 1;" transform=" translate(-156.9025, -175.157)" d="M 157.003 173.115 H 161.379 C 161.45 173.114 161.52 173.139 161.575 173.184 C 161.631 173.228 161.669 173.291 161.684 173.361 L 162.394 176.554 C 162.41 176.631 162.408 176.711 162.39 176.788 C 162.371 176.864 162.335 176.936 162.285 176.997 C 162.235 177.058 162.172 177.107 162.1 177.14 C 162.028 177.174 161.95 177.19 161.871 177.189 C 160.462 177.165 159.408 177.086 157.659 177.086 C 156.57 177.086 154.323 177.199 152.815 177.199 C 151.308 177.199 151.111 175.721 151.727 175.573 C 154.496 174.967 155.535 174.135 156.422 173.336 C 156.582 173.193 156.789 173.114 157.003 173.115 Z" stroke-linecap="round"/>
</g>
		<g transform="matrix(1 0 0 1 6.9041 83.157)">
<path style="stroke: none; stroke-width: 1; stroke-dasharray: none; stroke-linecap: butt; stroke-dashoffset: 0; stroke-linejoin: miter; stroke-miterlimit: 4; is-custom-font: none; font-file-url: none; fill: rgb(20,54,91); fill-rule: nonzero; opacity: 1;" transform=" translate(-130.4042, -175.157)" d="M 132.245 173.115 H 136.187 C 136.258 173.116 136.327 173.141 136.382 173.186 C 136.437 173.23 136.476 173.292 136.492 173.361 L 137.202 176.554 C 137.219 176.631 137.219 176.711 137.2 176.787 C 137.182 176.864 137.147 176.936 137.097 176.997 C 137.047 177.058 136.984 177.107 136.913 177.14 C 136.842 177.174 136.763 177.191 136.685 177.189 C 135.271 177.165 133.236 177.086 131.447 177.086 C 129.368 177.086 127.575 177.199 125.136 177.199 C 123.658 177.199 123.254 175.721 123.874 175.573 C 126.683 174.957 128.974 174.893 131.398 173.396 C 131.65 173.227 131.943 173.13 132.245 173.115 Z" stroke-linecap="round"/>
</g>
		<g transform="matrix(1 0 0 1 5.4778 -36.9901)">
<path style="stroke: none; stroke-width: 1; stroke-dasharray: none; stroke-linecap: butt; stroke-dashoffset: 0; stroke-linejoin: miter; stroke-miterlimit: 4; is-custom-font: none; font-file-url: none; fill: rgb(255,139,123); fill-rule: nonzero; opacity: 1;" transform=" translate(-128.9779, -55.0099)" d="M 133.236 70.4166 C 132.64 69.9239 132.117 69.4607 131.585 68.9385 C 131.053 68.4162 130.536 67.9531 130.023 67.4604 C 128.999 66.4405 128.008 65.3861 127.067 64.2824 C 126.126 63.1788 125.21 62.021 124.348 60.804 L 123.717 59.8728 L 123.121 58.8874 C 122.919 58.5721 122.741 58.2124 122.554 57.8724 L 122.278 57.3551 C 122.18 57.1482 122.081 56.9462 121.992 56.7343 C 121.315 55.0823 121.064 53.2862 121.263 51.5117 C 121.449 49.9087 121.888 48.3454 122.564 46.8803 C 123.189 45.5047 123.952 44.1957 124.84 42.9732 C 125.274 42.3721 125.737 41.7957 126.21 41.234 C 126.692 40.664 127.203 40.1196 127.742 39.6031 L 129.762 41.3867 C 129.432 41.8794 129.063 42.4805 128.733 43.0422 C 128.402 43.6039 128.092 44.1951 127.801 44.7814 C 127.221 45.9216 126.736 47.1082 126.353 48.3288 C 125.609 50.7037 125.535 53.0637 126.437 54.7339 C 126.486 54.8423 126.55 54.9409 126.609 55.0443 L 126.855 55.4336 C 127.028 55.6898 127.171 55.9509 127.348 56.2022 L 127.895 56.9708 L 128.486 57.7345 C 129.289 58.7199 130.152 59.7053 131.053 60.6907 C 131.955 61.6761 132.901 62.6122 133.857 63.5434 C 134.812 64.4746 135.827 65.4107 136.759 66.268 L 133.236 70.4166 Z" stroke-linecap="round"/>
</g>
		<g transform="matrix(1 0 0 1 10.887 -25.6583)">
<path style="stroke: none; stroke-width: 1; stroke-dasharray: none; stroke-linecap: butt; stroke-dashoffset: 0; stroke-linejoin: miter; stroke-miterlimit: 4; is-custom-font: none; font-file-url: none; fill: rgb(20,54,91); fill-rule: nonzero; opacity: 1;" transform=" translate(-134.387, -66.3417)" d="M 138.055 72.949 C 134.699 73.6684 126.254 66.2089 126.254 66.2089 L 131.181 59.6856 C 131.181 59.6856 136.163 63.7799 140.38 65.1742 C 144.696 66.608 141.74 72.1558 138.055 72.949 Z" stroke-linecap="round"/>
</g>
		<g transform="matrix(1 0 0 1 5.444 -50.5937)">
<path style="stroke: none; stroke-width: 1; stroke-dasharray: none; stroke-linecap: butt; stroke-dashoffset: 0; stroke-linejoin: miter; stroke-miterlimit: 4; is-custom-font: none; font-file-url: none; fill: rgb(255,139,123); fill-rule: nonzero; opacity: 1;" transform=" translate(-128.944, -41.4063)" d="M 126.377 42.2884 L 126.791 39.2533 H 131.511 C 131.511 39.2533 130.354 43.8502 127.757 43.5447 L 126.377 42.2884 Z" stroke-linecap="round"/>
</g>
		<g transform="matrix(1 0 0 1 5.652 -54.2026)">
<path style="stroke: none; stroke-width: 1; stroke-dasharray: none; stroke-linecap: butt; stroke-dashoffset: 0; stroke-linejoin: miter; stroke-miterlimit: 4; is-custom-font: none; font-file-url: none; fill: rgb(255,139,123); fill-rule: nonzero; opacity: 1;" transform=" translate(-129.152, -37.7974)" d="M 127.856 37.0953 L 131.053 36.3415 L 131.512 39.2533 H 126.792 L 127.856 37.0953 Z" stroke-linecap="round"/>
</g>
		<g transform="matrix(1 0 0 1 9.8075 75.365)">
<path style="stroke: none; stroke-width: 1; stroke-dasharray: none; stroke-linecap: butt; stroke-dashoffset: 0; stroke-linejoin: miter; stroke-miterlimit: 4; is-custom-font: none; font-file-url: none; fill: rgb(234,112,99); fill-rule: nonzero; opacity: 1;" transform=" translate(-133.3075, -167.365)" d="M 131.265 165.222 L 131.758 169.508 H 135.35 L 134.857 165.222 H 131.265 Z" stroke-linecap="round"/>
</g>
		<g transform="matrix(1 0 0 1 33.703 75.365)">
<path style="stroke: none; stroke-width: 1; stroke-dasharray: none; stroke-linecap: butt; stroke-dashoffset: 0; stroke-linejoin: miter; stroke-miterlimit: 4; is-custom-font: none; font-file-url: none; fill: rgb(234,112,99); fill-rule: nonzero; opacity: 1;" transform=" translate(-157.203, -167.365)" d="M 158.28 165.222 H 154.688 L 156.127 169.508 H 159.718 L 158.28 165.222 Z" stroke-linecap="round"/>
</g>
		<g transform="matrix(1 0 0 1 18.85 -10.3894)">
<path style="stroke: none; stroke-width: 1; stroke-dasharray: none; stroke-linecap: butt; stroke-dashoffset: 0; stroke-linejoin: miter; stroke-miterlimit: 4; is-custom-font: none; font-file-url: none; fill: rgb(20,54,91); fill-rule: nonzero; opacity: 1;" transform=" translate(-142.35, -81.6106)" d="M 133.261 66.6425 C 133.261 66.6425 129.023 77.4819 133.049 97.6825 H 152.264 C 152.397 94.7263 150.544 80.3592 153.387 66.47 C 151.272 66.062 149.133 65.7905 146.982 65.6571 C 144.263 65.4993 141.537 65.4993 138.818 65.6571 C 136.943 65.8398 135.085 66.1693 133.261 66.6425 Z" stroke-linecap="round"/>
</g>
		<g transform="matrix(1 0 0 1 15.5052 -11.1413)">
<path style="stroke: none; stroke-width: 1; stroke-dasharray: none; stroke-linecap: butt; stroke-dashoffset: 0; stroke-linejoin: miter; stroke-miterlimit: 4; is-custom-font: none; font-file-url: none; fill: rgb(69,162,255); fill-rule: nonzero; opacity: 1;" transform=" translate(-139.0053, -80.8587)" d="M 139.646 72.2297 C 138.084 72.1558 137.237 72.1706 136.867 72.1903 H 136.729 C 136.015 75.6145 135.281 81.4185 135.931 89.4348 L 141.124 89.5431 C 141.109 83.8045 141.512 78.0723 142.331 72.3923 C 141.538 72.3381 140.602 72.274 139.646 72.2297 Z" stroke-linecap="round"/>
</g>
		<g transform="matrix(1 0 0 1 19.0709 -29.4543)">
<path style="stroke: none; stroke-width: 1; stroke-dasharray: none; stroke-linecap: butt; stroke-dashoffset: 0; stroke-linejoin: miter; stroke-miterlimit: 4; is-custom-font: none; font-file-url: none; fill: rgb(255,139,123); fill-rule: nonzero; opacity: 1;" transform=" translate(-142.571, -62.5457)" d="M 146.135 56.4535 C 145.642 59.0795 145.11 63.8932 146.948 65.6423 C 144.988 67.3908 142.506 68.4438 139.887 68.6379 C 137.764 67.8693 138.153 66.5686 138.37 66.1449 C 138.546 65.8462 138.833 65.6286 139.168 65.5388 C 141.705 64.7456 141.631 62.6762 141.139 60.7301 L 146.135 56.4535 Z" stroke-linecap="round"/>
</g>
		<g transform="matrix(1 0 0 1 19.1316 -31.8054)">
<path style="stroke: none; stroke-width: 1; stroke-dasharray: none; stroke-linecap: butt; stroke-dashoffset: 0; stroke-linejoin: miter; stroke-miterlimit: 4; is-custom-font: none; font-file-url: none; fill: rgb(234,112,99); fill-rule: nonzero; opacity: 1;" transform=" translate(-142.6316, -60.1946)" d="M 144.095 58.1976 L 141.139 60.7301 C 141.265 61.2046 141.349 61.6893 141.39 62.1786 C 142.538 62.3265 144.085 61.1932 144.085 59.9172 C 144.134 59.3452 144.137 58.7702 144.095 58.1976 Z" stroke-linecap="round"/>
</g>
		<g transform="matrix(1 0 0 1 13.39 -39.6007)">
<path style="stroke: none; stroke-width: 1; stroke-dasharray: none; stroke-linecap: butt; stroke-dashoffset: 0; stroke-linejoin: miter; stroke-miterlimit: 4; is-custom-font: none; font-file-url: none; fill: rgb(15,38,76); fill-rule: nonzero; opacity: 1;" transform=" translate(-136.8901, -52.3993)" d="M 136.478 48.8166 C 134.832 49.802 134.354 55.34 136.749 56.1628 C 139.143 56.9856 139.601 46.9641 136.478 48.8166 Z" stroke-linecap="round"/>
</g>
		<g transform="matrix(1 0 0 1 14.1948 -42.7646)">
<path style="stroke: none; stroke-width: 1; stroke-dasharray: none; stroke-linecap: butt; stroke-dashoffset: 0; stroke-linejoin: miter; stroke-miterlimit: 4; is-custom-font: none; font-file-url: none; fill: rgb(15,38,76); fill-rule: nonzero; opacity: 1;" transform=" translate(-137.6948, -49.2354)" d="M 139.651 51.7334 C 137.936 51.5166 132.556 51.9108 133.842 48.5062 C 135.128 45.1017 140.784 47.2055 141.233 48.8117 C 141.681 50.4179 142.647 52.1276 139.651 51.7334 Z" stroke-linecap="round"/>
</g>
		<g transform="matrix(1 0 0 1 17.0704 -37.2952)">
<path style="stroke: none; stroke-width: 1; stroke-dasharray: none; stroke-linecap: butt; stroke-dashoffset: 0; stroke-linejoin: miter; stroke-miterlimit: 4; is-custom-font: none; font-file-url: none; fill: rgb(255,139,123); fill-rule: nonzero; opacity: 1;" transform=" translate(-140.5703, -54.7048)" d="M 145.425 52.2261 C 145.686 55.7785 146.021 57.8429 144.489 59.8974 C 142.183 62.9817 137.616 61.9618 136.295 58.5573 C 135.108 55.4927 134.876 50.1814 138.133 48.3288 C 138.849 47.9121 139.66 47.6855 140.489 47.6705 C 141.317 47.6555 142.136 47.8527 142.866 48.2432 C 143.597 48.6338 144.216 49.2048 144.664 49.9019 C 145.112 50.599 145.374 51.3991 145.425 52.2261 Z" stroke-linecap="round"/>
</g>
		<g transform="matrix(1 0 0 1 21.7254 -40.1356)">
<path style="stroke: none; stroke-width: 1; stroke-dasharray: none; stroke-linecap: butt; stroke-dashoffset: 0; stroke-linejoin: miter; stroke-miterlimit: 4; is-custom-font: none; font-file-url: none; fill: rgb(15,38,76); fill-rule: nonzero; opacity: 1;" transform=" translate(-145.2254, -51.8645)" d="M 145.647 55.7243 C 143.893 56.7442 139.148 49.7084 144.731 48.1219 C 150.313 46.5354 148.49 54.0787 145.647 55.7243 Z" stroke-linecap="round"/>
</g>
		<g transform="matrix(1 0 0 1 17.2635 -44.576)">
<path style="stroke: none; stroke-width: 1; stroke-dasharray: none; stroke-linecap: butt; stroke-dashoffset: 0; stroke-linejoin: miter; stroke-miterlimit: 4; is-custom-font: none; font-file-url: none; fill: rgb(15,38,76); fill-rule: nonzero; opacity: 1;" transform=" translate(-140.7634, -47.424)" d="M 143.1 51.0584 C 140.809 50.3982 133.408 49.7823 135.882 45.4269 C 138.355 41.0714 145.608 45.1411 145.854 47.3977 C 146.1 49.6542 147.096 52.2261 143.1 51.0584 Z" stroke-linecap="round"/>
</g>
		<g transform="matrix(1 0 0 1 20.6399 -45.3072)">
<path style="stroke: none; stroke-width: 1; stroke-dasharray: none; stroke-linecap: butt; stroke-dashoffset: 0; stroke-linejoin: miter; stroke-miterlimit: 4; is-custom-font: none; font-file-url: none; fill: rgb(15,38,76); fill-rule: nonzero; opacity: 1;" transform=" translate(-144.1399, -46.6928)" d="M 143.405 49.7626 C 142.449 48.0185 138.478 43.2738 142.493 42.175 C 146.509 41.0763 148.406 47.7672 147.179 49.2502 C 145.952 50.7332 145.07 52.8124 143.405 49.7626 Z" stroke-linecap="round"/>
</g>
		<g transform="matrix(1 0 0 1 24.1468 -45.504)">
<path style="stroke: none; stroke-width: 1; stroke-dasharray: none; stroke-linecap: butt; stroke-dashoffset: 0; stroke-linejoin: miter; stroke-miterlimit: 4; is-custom-font: none; font-file-url: none; fill: rgb(15,38,76); fill-rule: nonzero; opacity: 1;" transform=" translate(-147.6468, -46.496)" d="M 147.091 48.59 C 147.516 47.2354 147.722 45.8216 147.702 44.402 C 148.224 45.2051 148.717 47.7918 147.091 48.59 Z" stroke-linecap="round"/>
</g>
		<g transform="matrix(1 0 0 1 24.7365 -43.9303)">
<path style="stroke: none; stroke-width: 1; stroke-dasharray: none; stroke-linecap: butt; stroke-dashoffset: 0; stroke-linejoin: miter; stroke-miterlimit: 4; is-custom-font: none; font-file-url: none; fill: rgb(15,38,76); fill-rule: nonzero; opacity: 1;" transform=" translate(-148.2365, -48.0697)" d="M 149.85 48.4176 C 148.78 48.2245 147.681 48.253 146.623 48.5013 C 147.105 47.8657 148.909 46.969 149.85 48.4176 Z" stroke-linecap="round"/>
</g>
		<g transform="matrix(1 0 0 1 23.4456 -41.6359)">
<path style="stroke: none; stroke-width: 1; stroke-dasharray: none; stroke-linecap: butt; stroke-dashoffset: 0; stroke-linejoin: miter; stroke-miterlimit: 4; is-custom-font: none; font-file-url: none; fill: rgb(15,38,76); fill-rule: nonzero; opacity: 1;" transform=" translate(-146.9457, -50.3641)" d="M 144.647 50.1617 C 145.667 51.1471 148.175 54.8177 149.702 52.2458 C 151.229 49.6739 146.982 47.1119 145.726 47.6588 C 144.47 48.2057 142.883 48.4274 144.647 50.1617 Z" stroke-linecap="round"/>
</g>
		<g transform="matrix(1 0 0 1 22.3993 -36.2784)">
<path style="stroke: none; stroke-width: 1; stroke-dasharray: none; stroke-linecap: butt; stroke-dashoffset: 0; stroke-linejoin: miter; stroke-miterlimit: 4; is-custom-font: none; font-file-url: none; fill: rgb(255,139,123); fill-rule: nonzero; opacity: 1;" transform=" translate(-145.8992, -55.7215)" d="M 147.544 55.9066 C 147.172 56.7211 146.494 57.3565 145.657 57.6754 C 144.543 58.0843 143.888 57.1088 144.12 56.0051 C 144.331 55.0197 145.159 53.6106 146.317 53.6747 C 146.57 53.693 146.813 53.7742 147.026 53.9109 C 147.24 54.0475 147.415 54.2354 147.537 54.4572 C 147.659 54.679 147.723 54.9279 147.725 55.181 C 147.726 55.4342 147.664 55.6836 147.544 55.9066 Z" stroke-linecap="round"/>
</g>
		<g transform="matrix(1 0 0 1 10.9771 41.1719)">
<path style="stroke: none; stroke-width: 1; stroke-dasharray: none; stroke-linecap: butt; stroke-dashoffset: 0; stroke-linejoin: miter; stroke-miterlimit: 4; is-custom-font: none; font-file-url: none; fill: rgb(64,123,255); fill-rule: nonzero; opacity: 1;" transform=" translate(-134.477, -133.1719)" d="M 133.029 97.6678 C 133.029 97.6678 122.904 123.323 123.293 134.27 C 123.702 145.657 130.393 168.676 130.393 168.676 H 136.478 C 136.478 168.676 134.014 146.332 134.271 135.138 C 134.566 122.948 145.672 97.6924 145.672 97.6924 L 133.029 97.6678 Z" stroke-linecap="round"/>
</g>
		<g transform="matrix(1 0 0 1 15.4217 23.183)">
<path style="stroke: none; stroke-width: 1; stroke-dasharray: none; stroke-linecap: butt; stroke-dashoffset: 0; stroke-linejoin: miter; stroke-miterlimit: 4; is-custom-font: none; font-file-url: none; fill: rgb(43,106,216); fill-rule: nonzero; opacity: 1;" transform=" translate(-138.9217, -115.183)" d="M 141.114 106.147 L 141.7 107.468 C 139.569 112.953 137.719 118.545 136.158 124.219 C 135.985 117.755 137.33 110.611 141.114 106.147 Z" stroke-linecap="round"/>
</g>
		<g transform="matrix(1 0 0 1 26.5087 41.1739)">
<path style="stroke: none; stroke-width: 1; stroke-dasharray: none; stroke-linecap: butt; stroke-dashoffset: 0; stroke-linejoin: miter; stroke-miterlimit: 4; is-custom-font: none; font-file-url: none; fill: rgb(64,123,255); fill-rule: nonzero; opacity: 1;" transform=" translate(-150.0087, -133.1739)" d="M 139.858 97.6678 C 139.858 97.6678 137.813 123.914 140.05 134.192 C 142.513 145.45 154.442 168.68 154.442 168.68 H 161.014 C 161.014 168.68 152.22 146.361 150.82 135.216 C 149.303 123.126 152.249 97.6727 152.249 97.6727 L 139.858 97.6678 Z" stroke-linecap="round"/>
</g>
		<g transform="matrix(1 0 0 1 33.568 75.5865)">
<path style="stroke: none; stroke-width: 1; stroke-dasharray: none; stroke-linecap: butt; stroke-dashoffset: 0; stroke-linejoin: miter; stroke-miterlimit: 4; is-custom-font: none; font-file-url: none; fill: rgb(179,205,255); fill-rule: nonzero; opacity: 1;" transform=" translate(-157.068, -167.5865)" d="M 153.279 168.818 H 161.872 V 166.503 L 152.264 166.355 L 153.279 168.818 Z" stroke-linecap="round"/>
</g>
		<g transform="matrix(1 0 0 1 9.347 75.5865)">
<path style="stroke: none; stroke-width: 1; stroke-dasharray: none; stroke-linecap: butt; stroke-dashoffset: 0; stroke-linejoin: miter; stroke-miterlimit: 4; is-custom-font: none; font-file-url: none; fill: rgb(179,205,255); fill-rule: nonzero; opacity: 1;" transform=" translate(-132.847, -167.5865)" d="M 129.053 168.818 H 137.651 V 166.478 L 128.043 166.355 L 129.053 168.818 Z" stroke-linecap="round"/>
</g>
		<g transform="matrix(1 0 0 1 16.3729 -38.0099)">
<path style="stroke: none; stroke-width: 1; stroke-dasharray: none; stroke-linecap: butt; stroke-dashoffset: 0; stroke-linejoin: miter; stroke-miterlimit: 4; is-custom-font: none; font-file-url: none; fill: rgb(15,38,76); fill-rule: nonzero; opacity: 1;" transform=" translate(-139.8729, -53.99)" d="M 140.213 53.9555 C 140.252 54.2412 140.134 54.4925 139.947 54.5171 C 139.759 54.5418 139.572 54.3348 139.533 54.0244 C 139.493 53.714 139.616 53.4874 139.804 53.4628 C 139.991 53.4381 140.173 53.6648 140.213 53.9555 Z" stroke-linecap="round"/>
</g>
		<g transform="matrix(1 0 0 1 13.1306 -37.569)">
<path style="stroke: none; stroke-width: 1; stroke-dasharray: none; stroke-linecap: butt; stroke-dashoffset: 0; stroke-linejoin: miter; stroke-miterlimit: 4; is-custom-font: none; font-file-url: none; fill: rgb(15,38,76); fill-rule: nonzero; opacity: 1;" transform=" translate(-136.6306, -54.431)" d="M 136.97 54.394 C 137.01 54.6847 136.892 54.9359 136.704 54.9606 C 136.517 54.9852 136.33 54.7734 136.291 54.4679 C 136.251 54.1624 136.374 53.9259 136.562 53.9013 C 136.749 53.8766 136.931 54.1082 136.97 54.394 Z" stroke-linecap="round"/>
</g>
		<g transform="matrix(1 0 0 1 14.1875 -36.1847)">
<path style="stroke: none; stroke-width: 1; stroke-dasharray: none; stroke-linecap: butt; stroke-dashoffset: 0; stroke-linejoin: miter; stroke-miterlimit: 4; is-custom-font: none; font-file-url: none; fill: rgb(255,86,82); fill-rule: nonzero; opacity: 1;" transform=" translate(-137.6875, -55.8153)" d="M 138.02 54.3989 C 137.799 55.3228 137.451 56.2116 136.985 57.0398 C 137.2 57.153 137.437 57.2178 137.68 57.2297 C 137.922 57.2416 138.165 57.2004 138.39 57.1088 L 138.02 54.3989 Z" stroke-linecap="round"/>
</g>
		<g transform="matrix(1 0 0 1 16.7211 -34.8908)">
<path style="stroke: none; stroke-width: 1; stroke-dasharray: none; stroke-linecap: butt; stroke-dashoffset: 0; stroke-linejoin: miter; stroke-miterlimit: 4; is-custom-font: none; font-file-url: none; fill: rgb(15,38,76); fill-rule: nonzero; opacity: 1;" transform=" translate(-140.221, -57.1093)" d="M 139.326 57.7887 C 139.305 57.789 139.284 57.7817 139.268 57.7681 C 139.251 57.7546 139.241 57.7356 139.237 57.7148 C 139.235 57.6922 139.242 57.6698 139.256 57.6516 C 139.269 57.6335 139.289 57.6209 139.311 57.6162 C 139.669 57.5759 140.013 57.4519 140.314 57.2542 C 140.615 57.0565 140.866 56.7906 141.045 56.4781 C 141.05 56.468 141.057 56.4589 141.065 56.4514 C 141.073 56.4439 141.083 56.4382 141.094 56.4345 C 141.104 56.4308 141.115 56.4293 141.127 56.43 C 141.138 56.4307 141.149 56.4337 141.159 56.4387 C 141.178 56.4492 141.193 56.4667 141.2 56.4877 C 141.208 56.5086 141.207 56.5316 141.198 56.552 C 141.007 56.8904 140.739 57.1788 140.415 57.3938 C 140.092 57.6087 139.722 57.744 139.336 57.7887 H 139.326 Z" stroke-linecap="round"/>
</g>
		<g transform="matrix(1 0 0 1 16.8815 -39.6347)">
<path style="stroke: none; stroke-width: 1; stroke-dasharray: none; stroke-linecap: butt; stroke-dashoffset: 0; stroke-linejoin: miter; stroke-miterlimit: 4; is-custom-font: none; font-file-url: none; fill: rgb(15,38,76); fill-rule: nonzero; opacity: 1;" transform=" translate(-140.3816, -52.3652)" d="M 141.026 52.7779 C 141.004 52.7765 140.982 52.7706 140.963 52.7604 C 140.943 52.7502 140.926 52.736 140.912 52.7188 C 140.765 52.5641 140.584 52.446 140.383 52.3741 C 140.182 52.3022 139.966 52.2785 139.754 52.305 C 139.71 52.3137 139.664 52.3047 139.626 52.2798 C 139.588 52.2549 139.562 52.2162 139.552 52.1719 C 139.547 52.1502 139.547 52.1277 139.551 52.1057 C 139.555 52.0838 139.564 52.063 139.576 52.0445 C 139.589 52.026 139.605 52.0103 139.624 51.9983 C 139.642 51.9863 139.663 51.9783 139.686 51.9748 C 139.953 51.9307 140.228 51.9524 140.486 52.0383 C 140.743 52.1241 140.976 52.2715 141.164 52.4675 C 141.18 52.4832 141.193 52.5019 141.202 52.5227 C 141.21 52.5434 141.215 52.5657 141.215 52.5883 C 141.215 52.6108 141.21 52.6331 141.202 52.6538 C 141.193 52.6746 141.18 52.6933 141.164 52.709 C 141.148 52.7304 141.127 52.7478 141.103 52.7597 C 141.079 52.7717 141.052 52.7779 141.026 52.7779 Z" stroke-linecap="round"/>
</g>
		<g transform="matrix(1 0 0 1 12.3584 -39.1882)">
<path style="stroke: none; stroke-width: 1; stroke-dasharray: none; stroke-linecap: butt; stroke-dashoffset: 0; stroke-linejoin: miter; stroke-miterlimit: 4; is-custom-font: none; font-file-url: none; fill: rgb(15,38,76); fill-rule: nonzero; opacity: 1;" transform=" translate(-135.8583, -52.8119)" d="M 135.374 53.4776 H 135.325 C 135.304 53.4708 135.284 53.46 135.267 53.4457 C 135.25 53.4314 135.236 53.4139 135.226 53.3942 C 135.216 53.3745 135.21 53.353 135.209 53.331 C 135.207 53.3089 135.209 53.2867 135.216 53.2657 C 135.293 53.0067 135.431 52.7701 135.619 52.5762 C 135.807 52.3822 136.039 52.2367 136.295 52.1522 C 136.317 52.1462 136.339 52.1446 136.361 52.1473 C 136.383 52.15 136.404 52.1571 136.424 52.1681 C 136.443 52.1791 136.46 52.1938 136.473 52.2114 C 136.487 52.2289 136.497 52.249 136.502 52.2704 C 136.508 52.2918 136.51 52.3141 136.507 52.3361 C 136.504 52.3581 136.497 52.3794 136.486 52.3986 C 136.475 52.4179 136.461 52.4347 136.443 52.4483 C 136.426 52.4618 136.405 52.4717 136.384 52.4774 C 136.183 52.549 136.001 52.667 135.854 52.822 C 135.706 52.9769 135.598 53.1644 135.537 53.3692 C 135.524 53.402 135.502 53.4301 135.473 53.4495 C 135.444 53.469 135.409 53.4788 135.374 53.4776 Z" stroke-linecap="round"/>
</g>
		<g transform="matrix(1 0 0 1 23.9514 -4.5137)">
<path style="stroke: none; stroke-width: 1; stroke-dasharray: none; stroke-linecap: butt; stroke-dashoffset: 0; stroke-linejoin: miter; stroke-miterlimit: 4; is-custom-font: none; font-file-url: none; fill: rgb(255,139,123); fill-rule: nonzero; opacity: 1;" transform=" translate(-147.4514, -87.4863)" d="M 154.979 70.1456 C 155.131 71.7912 155.2 73.358 155.255 74.9642 C 155.309 76.5704 155.299 78.1618 155.255 79.768 C 155.231 83.0849 154.844 86.3892 154.102 89.622 C 153.877 90.5139 153.578 91.3856 153.21 92.2283 C 153.126 92.4353 152.983 92.721 152.86 92.9329 C 152.737 93.1448 152.609 93.3665 152.486 93.5537 C 152.234 93.9528 151.993 94.3026 151.717 94.6426 C 150.714 95.935 149.642 97.1719 148.505 98.3477 C 146.305 100.636 143.98 102.799 141.538 104.827 L 139.611 102.945 C 141.503 100.481 143.43 98.0176 145.263 95.5984 C 146.164 94.3765 147.071 93.1349 147.825 91.9426 C 148.162 91.4326 148.446 90.8894 148.672 90.3216 C 148.887 89.7169 149.051 89.0957 149.165 88.4641 C 149.434 87.0534 149.608 85.6264 149.687 84.1924 C 149.786 82.7143 149.84 81.2362 149.84 79.7039 C 149.84 76.6935 149.726 73.5994 149.539 70.6235 L 154.979 70.1456 Z" stroke-linecap="round"/>
</g>
		<g transform="matrix(1 0 0 1 29.6861 -18.4435)">
<path style="stroke: none; stroke-width: 1; stroke-dasharray: none; stroke-linecap: butt; stroke-dashoffset: 0; stroke-linejoin: miter; stroke-miterlimit: 4; is-custom-font: none; font-file-url: none; fill: rgb(20,54,91); fill-rule: nonzero; opacity: 1;" transform=" translate(-153.1861, -73.5565)" d="M 156.634 68.7758 C 159.458 73.2791 157.093 80.6647 157.093 80.6647 L 148.352 80.4085 C 148.352 80.4085 148.874 75.9742 149.121 71.5399 C 149.382 66.7558 153.87 64.3613 156.634 68.7758 Z" stroke-linecap="round"/>
</g>
		<g transform="matrix(1 0 0 1 32.3835 81.2903)">
<path style="stroke: none; stroke-width: 1; stroke-dasharray: none; stroke-linecap: butt; stroke-dashoffset: 0; stroke-linejoin: miter; stroke-miterlimit: 4; is-custom-font: none; font-file-url: none; fill: rgb(64,123,255); fill-rule: nonzero; opacity: 1;" transform=" translate(-155.8835, -173.2904)" d="M 155.816 173.745 C 155.572 173.763 155.329 173.697 155.127 173.558 C 155.061 173.505 155.01 173.436 154.979 173.357 C 154.948 173.279 154.938 173.194 154.949 173.11 C 154.949 173.06 154.963 173.011 154.989 172.968 C 155.015 172.926 155.053 172.891 155.097 172.868 C 155.496 172.671 156.649 173.361 156.782 173.46 C 156.796 173.469 156.807 173.481 156.814 173.496 C 156.821 173.511 156.823 173.527 156.822 173.543 C 156.819 173.56 156.812 173.575 156.8 173.588 C 156.789 173.6 156.774 173.609 156.757 173.612 C 156.45 173.694 156.134 173.738 155.816 173.745 Z M 155.284 173.001 C 155.247 172.993 155.208 172.993 155.171 173.001 C 155.154 173.011 155.14 173.026 155.13 173.043 C 155.121 173.061 155.116 173.08 155.117 173.1 C 155.11 173.157 155.117 173.216 155.137 173.27 C 155.158 173.324 155.192 173.372 155.235 173.41 C 155.637 173.592 156.093 173.615 156.511 173.474 C 156.136 173.241 155.719 173.08 155.284 173.001 Z" stroke-linecap="round"/>
</g>
		<g transform="matrix(1 0 0 1 32.7645 80.8094)">
<path style="stroke: none; stroke-width: 1; stroke-dasharray: none; stroke-linecap: butt; stroke-dashoffset: 0; stroke-linejoin: miter; stroke-miterlimit: 4; is-custom-font: none; font-file-url: none; fill: rgb(64,123,255); fill-rule: nonzero; opacity: 1;" transform=" translate(-156.2645, -172.8093)" d="M 156.738 173.617 H 156.693 C 156.324 173.415 155.604 172.632 155.708 172.228 C 155.708 172.154 155.772 172.031 155.979 172.006 C 156.043 171.997 156.108 172.002 156.171 172.021 C 156.233 172.04 156.29 172.072 156.338 172.115 C 156.757 172.455 156.831 173.489 156.831 173.534 C 156.832 173.549 156.829 173.564 156.822 173.578 C 156.815 173.592 156.805 173.604 156.792 173.612 L 156.738 173.617 Z M 156.013 172.139 H 155.974 C 155.861 172.139 155.851 172.203 155.851 172.223 C 155.801 172.459 156.26 173.056 156.629 173.336 C 156.604 172.928 156.456 172.536 156.205 172.213 C 156.15 172.172 156.082 172.152 156.013 172.159 V 172.139 Z" stroke-linecap="round"/>
</g>
		<g transform="matrix(1 0 0 1 7.3354 81.2922)">
<path style="stroke: none; stroke-width: 1; stroke-dasharray: none; stroke-linecap: butt; stroke-dashoffset: 0; stroke-linejoin: miter; stroke-miterlimit: 4; is-custom-font: none; font-file-url: none; fill: rgb(64,123,255); fill-rule: nonzero; opacity: 1;" transform=" translate(-130.8354, -173.2923)" d="M 130.753 173.745 C 130.445 173.771 130.138 173.693 129.88 173.524 C 129.824 173.472 129.78 173.407 129.752 173.336 C 129.725 173.264 129.715 173.186 129.723 173.11 C 129.723 173.063 129.737 173.018 129.761 172.978 C 129.785 172.938 129.82 172.905 129.861 172.883 C 130.299 172.642 131.738 173.376 131.901 173.455 C 131.917 173.463 131.93 173.476 131.939 173.491 C 131.948 173.507 131.952 173.525 131.95 173.543 C 131.947 173.561 131.938 173.577 131.926 173.591 C 131.914 173.604 131.898 173.613 131.881 173.617 C 131.509 173.694 131.132 173.737 130.753 173.745 Z M 130.102 173.001 C 130.048 172.999 129.994 173.009 129.944 173.031 C 129.928 173.041 129.914 173.054 129.905 173.071 C 129.895 173.087 129.89 173.106 129.89 173.125 C 129.883 173.175 129.889 173.226 129.907 173.273 C 129.925 173.321 129.955 173.363 129.994 173.396 C 130.215 173.593 130.807 173.627 131.595 173.494 C 131.129 173.246 130.624 173.08 130.102 173.001 Z" stroke-linecap="round"/>
</g>
		<g transform="matrix(1 0 0 1 7.7856 80.8109)">
<path style="stroke: none; stroke-width: 1; stroke-dasharray: none; stroke-linecap: butt; stroke-dashoffset: 0; stroke-linejoin: miter; stroke-miterlimit: 4; is-custom-font: none; font-file-url: none; fill: rgb(64,123,255); fill-rule: nonzero; opacity: 1;" transform=" translate(-131.2855, -172.811)" d="M 131.866 173.617 H 131.832 C 131.398 173.425 130.536 172.632 130.605 172.243 C 130.605 172.149 130.689 172.026 130.92 172.006 C 131.008 171.994 131.097 172 131.182 172.025 C 131.267 172.049 131.346 172.092 131.413 172.149 C 131.866 172.524 131.965 173.494 131.97 173.534 C 131.97 173.548 131.968 173.563 131.962 173.577 C 131.956 173.591 131.947 173.603 131.935 173.612 C 131.914 173.623 131.889 173.625 131.866 173.617 Z M 130.989 172.139 H 130.935 C 130.782 172.139 130.773 172.213 130.773 172.233 C 130.733 172.479 131.314 173.09 131.758 173.356 C 131.714 172.944 131.542 172.556 131.265 172.248 C 131.185 172.189 131.088 172.158 130.989 172.159 V 172.139 Z" stroke-linecap="round"/>
</g>
		<g transform="matrix(1 0 0 1 16.3185 11.7184)">
<path style="stroke: none; stroke-width: 1; stroke-dasharray: none; stroke-linecap: butt; stroke-dashoffset: 0; stroke-linejoin: miter; stroke-miterlimit: 4; is-custom-font: none; font-file-url: none; fill: rgb(255,139,123); fill-rule: nonzero; opacity: 1;" transform=" translate(-139.8185, -103.7184)" d="M 141.267 102.595 L 137.818 101.422 L 138.286 105.985 C 138.286 105.985 141.449 106.329 141.819 104.679 L 141.267 102.595 Z" stroke-linecap="round"/>
</g>
		<g transform="matrix(1 0 0 1 11.872 11.7845)">
<path style="stroke: none; stroke-width: 1; stroke-dasharray: none; stroke-linecap: butt; stroke-dashoffset: 0; stroke-linejoin: miter; stroke-miterlimit: 4; is-custom-font: none; font-file-url: none; fill: rgb(255,139,123); fill-rule: nonzero; opacity: 1;" transform=" translate(-135.372, -103.7845)" d="M 132.458 105.107 L 135.547 106.147 L 138.286 105.985 L 137.818 101.422 L 132.458 105.107 Z" stroke-linecap="round"/>
</g>
		<g transform="matrix(1 0 0 1 -16.7765 46.9192)">
<path style="stroke: none; stroke-width: 1; stroke-dasharray: none; stroke-linecap: butt; stroke-dashoffset: 0; stroke-linejoin: miter; stroke-miterlimit: 4; is-custom-font: none; font-file-url: none; fill: rgb(179,205,255); fill-rule: nonzero; opacity: 1;" transform=" translate(-106.7235, -138.9192)" d="M 109.926 99.8553 H 103.521 V 177.983 H 109.926 V 99.8553 Z" stroke-linecap="round"/>
</g>
		<g transform="matrix(1 0 0 1 -16.7765 7.8554)">
<path style="stroke: none; stroke-width: 1; stroke-dasharray: none; stroke-linecap: butt; stroke-dashoffset: 0; stroke-linejoin: miter; stroke-miterlimit: 4; is-custom-font: none; font-file-url: none; fill: rgb(146,184,244); fill-rule: nonzero; opacity: 1;" transform=" translate(-106.7235, -99.8554)" d="M 109.926 99.8554 C 109.926 100.018 108.492 100.156 106.724 100.156 C 104.955 100.156 103.521 100.018 103.521 99.8554 C 103.521 99.6928 104.955 99.5548 106.724 99.5548 C 108.492 99.5548 109.926 99.6878 109.926 99.8554 Z" stroke-linecap="round"/>
</g>
		<g transform="matrix(1 0 0 1 -16.7765 54.292)">
<path style="stroke: none; stroke-width: 1; stroke-dasharray: none; stroke-linecap: butt; stroke-dashoffset: 0; stroke-linejoin: miter; stroke-miterlimit: 4; is-custom-font: none; font-file-url: none; fill: rgb(0,83,204); fill-rule: nonzero; opacity: 0.2;" transform=" translate(-106.7235, -146.292)" d="M 109.926 148.933 L 103.521 148.47 V 143.651 H 109.926 V 148.933 Z" stroke-linecap="round"/>
</g>
		<g transform="matrix(1 0 0 1 -16.7825 32.4408)">
<path style="stroke: none; stroke-width: 1; stroke-dasharray: none; stroke-linecap: butt; stroke-dashoffset: 0; stroke-linejoin: miter; stroke-miterlimit: 4; is-custom-font: none; font-file-url: none; fill: rgb(0,83,204); fill-rule: nonzero; opacity: 1;" transform=" translate(-106.7174, -124.4409)" d="M 143.632 105.811 L 73.6074 99.6727 L 69.8029 143.071 L 139.828 149.209 L 143.632 105.811 Z" stroke-linecap="round"/>
</g>
		<g transform="matrix(1 0 0 1 -55.1086 14.1635)">
<path style="stroke: none; stroke-width: 1; stroke-dasharray: none; stroke-linecap: butt; stroke-dashoffset: 0; stroke-linejoin: miter; stroke-miterlimit: 4; is-custom-font: none; font-file-url: none; fill: rgb(69,162,255); fill-rule: nonzero; opacity: 1;" transform=" translate(-68.3914, -106.1635)" d="M 68.2661 104.78 L 68.0259 107.504 L 68.5167 107.547 L 68.7569 104.823 L 68.2661 104.78 Z" stroke-linecap="round"/>
</g>
		<g transform="matrix(1 0 0 1 -55.7895 21.915)">
<path style="stroke: none; stroke-width: 1; stroke-dasharray: none; stroke-linecap: butt; stroke-dashoffset: 0; stroke-linejoin: miter; stroke-miterlimit: 4; is-custom-font: none; font-file-url: none; fill: rgb(69,162,255); fill-rule: nonzero; opacity: 1;" transform=" translate(-67.7105, -113.915)" d="M 67.7599 110.551 L 67.1704 117.236 L 67.6612 117.279 L 68.2507 110.594 L 67.7599 110.551 Z" stroke-linecap="round"/>
</g>
		<g transform="matrix(1 0 0 1 -19.9139 32.1636)">
<path style="stroke: none; stroke-width: 1; stroke-dasharray: none; stroke-linecap: butt; stroke-dashoffset: 0; stroke-linejoin: miter; stroke-miterlimit: 4; is-custom-font: none; font-file-url: none; fill: rgb(69,162,255); fill-rule: nonzero; opacity: 1;" transform=" translate(-103.5861, -124.1636)" d="M 140.501 105.534 L 70.4756 99.3952 L 66.6711 142.793 L 136.696 148.932 L 140.501 105.534 Z" stroke-linecap="round"/>
</g>
		<g transform="matrix(1 0 0 1 10.771 20.503)">
<path style="stroke: none; stroke-width: 1; stroke-dasharray: none; stroke-linecap: butt; stroke-dashoffset: 0; stroke-linejoin: miter; stroke-miterlimit: 4; is-custom-font: none; font-file-url: none; fill: rgb(0,83,204); fill-rule: nonzero; opacity: 0.4;" transform=" translate(-134.271, -112.503)" d="M 140.839 112.286 L 127.703 111.685 L 140.75 113.321 L 140.839 112.286 Z" stroke-linecap="round"/>
</g>
		<g transform="matrix(1 0 0 1 12.7295 22.54)">
<path style="stroke: none; stroke-width: 1; stroke-dasharray: none; stroke-linecap: butt; stroke-dashoffset: 0; stroke-linejoin: miter; stroke-miterlimit: 4; is-custom-font: none; font-file-url: none; fill: rgb(0,83,204); fill-rule: nonzero; opacity: 0.4;" transform=" translate(-136.2295, -114.54)" d="M 140.282 113.764 L 132.177 113.878 L 140.144 115.316 L 140.282 113.764 Z" stroke-linecap="round"/>
</g>
		<g transform="matrix(1 0 0 1 -52.3247 39.297)">
<path style="stroke: none; stroke-width: 1; stroke-dasharray: none; stroke-linecap: butt; stroke-dashoffset: 0; stroke-linejoin: miter; stroke-miterlimit: 4; is-custom-font: none; font-file-url: none; fill: rgb(0,83,204); fill-rule: nonzero; opacity: 0.4;" transform=" translate(-71.1753, -131.297)" d="M 67.6328 131.777 L 74.7178 131.851 L 67.7264 130.743 L 67.6328 131.777 Z" stroke-linecap="round"/>
</g>
		<g transform="matrix(1 0 0 1 -52.1005 30.823)">
<path style="stroke: none; stroke-width: 1; stroke-dasharray: none; stroke-linecap: butt; stroke-dashoffset: 0; stroke-linejoin: miter; stroke-miterlimit: 4; is-custom-font: none; font-file-url: none; fill: rgb(0,83,204); fill-rule: nonzero; opacity: 0.4;" transform=" translate(-71.3995, -122.823)" d="M 68.3521 123.599 L 74.4468 123.308 L 68.4851 122.047 L 68.3521 123.599 Z" stroke-linecap="round"/>
</g>
		<g transform="matrix(1 0 0 1 11.125 53.0995)">
<path style="stroke: none; stroke-width: 1; stroke-dasharray: none; stroke-linecap: butt; stroke-dashoffset: 0; stroke-linejoin: miter; stroke-miterlimit: 4; is-custom-font: none; font-file-url: none; fill: rgb(0,83,204); fill-rule: nonzero; opacity: 0.4;" transform=" translate(-134.625, -145.0995)" d="M 137.675 144.321 L 131.575 144.612 L 137.537 145.878 L 137.675 144.321 Z" stroke-linecap="round"/>
</g>
		<g transform="matrix(1 0 0 1 -33.0601 22.624)">
<path style="stroke: none; stroke-width: 1; stroke-dasharray: none; stroke-linecap: butt; stroke-dashoffset: 0; stroke-linejoin: miter; stroke-miterlimit: 4; is-custom-font: none; font-file-url: none; fill: rgb(0,83,204); fill-rule: nonzero; opacity: 1;" transform=" translate(-90.4399, -114.624)" d="M 86.173 108.138 L 95.8152 108.985 L 95.5737 111.695 L 89.8486 111.202 L 89.6564 113.41 L 94.5489 113.838 L 94.3223 116.385 L 89.4347 115.957 L 88.9814 121.11 L 85.0645 120.77 L 86.173 108.138 Z" stroke-linecap="round"/>
</g>
		<g transform="matrix(1 0 0 1 -20.1062 24.0264)">
<path style="stroke: none; stroke-width: 1; stroke-dasharray: none; stroke-linecap: butt; stroke-dashoffset: 0; stroke-linejoin: miter; stroke-miterlimit: 4; is-custom-font: none; font-file-url: none; fill: rgb(0,83,204); fill-rule: nonzero; opacity: 1;" transform=" translate(-103.3938, -116.0264)" d="M 96.8697 115.444 C 97.0504 113.385 97.7648 111.831 99.013 110.783 C 100.261 109.736 101.903 109.302 103.94 109.483 C 106.039 109.667 107.607 110.371 108.645 111.596 C 109.685 112.828 110.123 114.454 109.936 116.489 C 109.875 117.745 109.51 118.967 108.872 120.051 C 108.308 120.941 107.491 121.642 106.527 122.066 C 105.396 122.535 104.165 122.705 102.95 122.559 C 101.733 122.495 100.545 122.159 99.4761 121.574 C 98.563 121.014 97.8387 120.194 97.3969 119.218 C 96.8849 118.031 96.7028 116.727 96.8697 115.444 Z M 100.767 115.804 C 100.659 117.075 100.811 118.011 101.235 118.612 C 101.452 118.906 101.732 119.147 102.054 119.317 C 102.376 119.488 102.733 119.584 103.097 119.598 C 103.461 119.651 103.831 119.62 104.181 119.507 C 104.53 119.394 104.849 119.203 105.113 118.947 C 105.605 118.455 105.935 117.469 106.059 116.075 C 106.167 114.888 105.999 113.996 105.566 113.405 C 105.346 113.111 105.063 112.87 104.739 112.7 C 104.414 112.529 104.055 112.433 103.689 112.419 C 103.331 112.374 102.968 112.411 102.626 112.527 C 102.285 112.643 101.974 112.836 101.718 113.089 C 101.199 113.612 100.882 114.51 100.767 115.784 V 115.804 Z" stroke-linecap="round"/>
</g>
		<g transform="matrix(1 0 0 1 -5.745 25.309)">
<path style="stroke: none; stroke-width: 1; stroke-dasharray: none; stroke-linecap: butt; stroke-dashoffset: 0; stroke-linejoin: miter; stroke-miterlimit: 4; is-custom-font: none; font-file-url: none; fill: rgb(0,83,204); fill-rule: nonzero; opacity: 1;" transform=" translate(-117.755, -117.309)" d="M 111.547 123.081 L 112.651 110.458 L 119.155 111.03 C 120.088 111.08 121.009 111.266 121.889 111.582 C 122.5 111.835 123.008 112.288 123.328 112.868 C 123.682 113.505 123.825 114.238 123.737 114.961 C 123.706 115.576 123.509 116.171 123.166 116.683 C 122.824 117.194 122.348 117.602 121.791 117.863 C 121.341 118.061 120.864 118.189 120.377 118.243 C 120.73 118.379 121.061 118.565 121.362 118.795 C 121.579 119.011 121.77 119.252 121.929 119.514 C 122.121 119.774 122.286 120.053 122.421 120.347 L 123.963 124.16 L 119.554 123.776 L 117.81 119.736 C 117.675 119.352 117.464 119 117.189 118.701 C 116.925 118.482 116.6 118.35 116.258 118.322 L 115.913 118.292 L 115.464 123.416 L 111.547 123.081 Z M 116.125 115.917 L 117.765 116.06 C 118.117 116.065 118.468 116.038 118.815 115.981 C 119.071 115.954 119.308 115.833 119.48 115.641 C 119.66 115.445 119.77 115.193 119.79 114.927 C 119.82 114.75 119.807 114.569 119.754 114.398 C 119.701 114.227 119.609 114.071 119.485 113.942 C 119.072 113.64 118.572 113.48 118.061 113.488 L 116.346 113.336 L 116.125 115.917 Z" stroke-linecap="round"/>
</g>
		<g transform="matrix(1 0 0 1 -39.8394 38.5875)">
<path style="stroke: none; stroke-width: 1; stroke-dasharray: none; stroke-linecap: butt; stroke-dashoffset: 0; stroke-linejoin: miter; stroke-miterlimit: 4; is-custom-font: none; font-file-url: none; fill: rgb(0,83,204); fill-rule: nonzero; opacity: 1;" transform=" translate(-83.6607, -130.5875)" d="M 77.9257 132.211 L 81.6604 132.305 C 81.6546 132.804 81.7822 133.295 82.0299 133.728 C 82.2132 134.001 82.4583 134.225 82.7451 134.385 C 83.032 134.544 83.3525 134.633 83.6804 134.645 C 84.1417 134.716 84.6129 134.616 85.0058 134.364 C 85.1532 134.268 85.2774 134.14 85.3694 133.99 C 85.4615 133.84 85.519 133.672 85.5379 133.497 C 85.5489 133.327 85.5229 133.158 85.4616 132.999 C 85.4004 132.841 85.3053 132.698 85.1832 132.58 C 84.6108 132.142 83.9502 131.833 83.2469 131.674 C 81.5717 131.138 80.3974 130.521 79.724 129.821 C 79.395 129.493 79.1444 129.095 78.9908 128.657 C 78.8372 128.218 78.7847 127.75 78.8372 127.289 C 78.8933 126.633 79.1457 126.01 79.5615 125.5 C 80.0312 124.924 80.6627 124.502 81.3746 124.288 C 82.3983 124.003 83.4689 123.926 84.5229 124.062 C 86.1341 124.205 87.3412 124.613 88.1344 125.288 C 88.5474 125.668 88.8737 126.132 89.0914 126.649 C 89.309 127.166 89.4128 127.723 89.3957 128.284 L 85.7005 128.176 C 85.6964 127.699 85.5216 127.239 85.2078 126.88 C 84.8588 126.572 84.4119 126.397 83.9465 126.387 C 83.5844 126.326 83.2122 126.396 82.897 126.584 C 82.7823 126.657 82.6858 126.756 82.6149 126.872 C 82.544 126.988 82.5006 127.119 82.4881 127.254 C 82.4833 127.36 82.502 127.466 82.5429 127.564 C 82.5837 127.662 82.6458 127.75 82.7246 127.821 C 83.1002 128.106 83.5343 128.305 83.9958 128.402 C 85.2346 128.741 86.43 129.222 87.558 129.836 C 88.1852 130.202 88.6973 130.736 89.0361 131.378 C 89.3232 131.972 89.4409 132.634 89.376 133.29 C 89.3115 134.086 89.0094 134.845 88.5089 135.468 C 87.9905 136.121 87.2888 136.605 86.4937 136.857 C 85.4952 137.159 84.4449 137.249 83.4094 137.123 C 81.2613 136.936 79.8111 136.392 79.0589 135.492 C 78.2956 134.572 77.8928 133.406 77.9257 132.211 Z" stroke-linecap="round"/>
</g>
		<g transform="matrix(1 0 0 1 -26.9159 39.952)">
<path style="stroke: none; stroke-width: 1; stroke-dasharray: none; stroke-linecap: butt; stroke-dashoffset: 0; stroke-linejoin: miter; stroke-miterlimit: 4; is-custom-font: none; font-file-url: none; fill: rgb(0,83,204); fill-rule: nonzero; opacity: 1;" transform=" translate(-96.5841, -131.952)" d="M 98.9147 136.162 L 94.4804 135.773 L 93.6822 137.803 L 89.7012 137.453 L 95.584 125.249 L 99.836 125.624 L 103.467 138.655 L 99.3827 138.301 L 98.9147 136.162 Z M 98.3481 133.359 L 97.3627 128.703 L 95.584 133.137 L 98.3481 133.359 Z" stroke-linecap="round"/>
</g>
		<g transform="matrix(1 0 0 1 -13.658 40.8785)">
<path style="stroke: none; stroke-width: 1; stroke-dasharray: none; stroke-linecap: butt; stroke-dashoffset: 0; stroke-linejoin: miter; stroke-miterlimit: 4; is-custom-font: none; font-file-url: none; fill: rgb(0,83,204); fill-rule: nonzero; opacity: 1;" transform=" translate(-109.842, -132.8785)" d="M 105.797 126.131 L 109.695 126.471 L 108.887 135.985 L 114.971 136.517 L 114.7 139.626 L 104.713 138.754 L 105.797 126.131 Z" stroke-linecap="round"/>
</g>
		<g transform="matrix(1 0 0 1 -1.278 41.953)">
<path style="stroke: none; stroke-width: 1; stroke-dasharray: none; stroke-linecap: butt; stroke-dashoffset: 0; stroke-linejoin: miter; stroke-miterlimit: 4; is-custom-font: none; font-file-url: none; fill: rgb(0,83,204); fill-rule: nonzero; opacity: 1;" transform=" translate(-122.222, -133.953)" d="M 117.548 127.176 L 127.999 128.102 L 127.762 130.797 L 121.204 130.215 L 121.027 132.221 L 127.117 132.753 L 126.89 135.325 L 120.82 134.793 L 120.603 137.281 L 127.338 137.872 L 127.087 140.73 L 116.445 139.798 L 117.548 127.176 Z" stroke-linecap="round"/>
</g>
</g>
</g>
</svg>